<svg xmlns="http://www.w3.org/2000/svg" viewBox="0 0 285.74 66.5"><defs><style>.cls-1{fill:#1b8085;}.cls-2{fill:#efc535;}.cls-3{fill:#f38e1c;}.cls-4{fill:#eb3e38;}</style></defs><g id="Layer_2" data-name="Layer 2"><g id="Layer_6" data-name="Layer 6"><path id="touca" class="cls-1" d="M9,33.5c-1.5-6-2.77-8.16-5-8.44-2-.25-4-1.62-4-3.87a3.72,3.72,0,0,1,3.73-3.77c1.92,0,2.69-.46,2.94-2.41.31-2.55,3-3.11,4.72-2.5,1.37.49,2.58,1.77,3.71.4S17,9.69,19.83,10.8s2.31,4.52,1.8,7.13,2.42,7.53,2.42,7.53S13.81,25.7,9,33.5Z"/><path class="cls-1" d="M45.1,47.14c-4-5.2-4.1-20.26-3-34.14S36.66,0,36.66,0s-6.54.34-2.89,13.78c2.12,7.79,4,16,4.56,22.73-4.14-.36-8.19,1.2-12,1.66a25,25,0,0,1-2.66,0,7.71,7.71,0,0,0,0-11c-1.9.16-9.24,1.16-13,6.93a7.69,7.69,0,0,0,2.61,4.47s0,0,0,0S7.33,48.38,6.63,57.72s3,9.46,6.53,6.43c4-3.46,4.72-3.41,7.73-.61,3.47,3.23,6.13,4.22,6.53.91s.8-18.88,2-20.89c0,0,4.82-.91,8.44-2a5.87,5.87,0,0,0,.63-.24,15.1,15.1,0,0,1-1.33,6.58c-3.38,6.31-1.44,18.09.44,18,2.1-.13-.28-11.68,1.49-11.9s1.65,11.67,3.73,11.47-.36-11.84,1.52-12S45.94,65.15,48,64.88C49.91,64.65,49.44,52.84,45.1,47.14Z"/><path id="touca-2" data-name="touca" class="cls-2" d="M87.92,33.5c-1.5-6-2.77-8.16-5-8.44-2-.25-4-1.62-4-3.87a3.72,3.72,0,0,1,3.73-3.77c1.92,0,2.69-.46,2.93-2.41.32-2.55,3-3.11,4.73-2.5,1.37.49,2.58,1.77,3.71.4s1.91-3.22,4.72-2.11,2.31,4.52,1.81,7.13,2.42,7.53,2.42,7.53S92.69,25.7,87.92,33.5Z"/><path class="cls-2" d="M124,47.14c-4-5.2-4.11-20.26-3-34.14s-5.41-13-5.41-13-6.54.34-2.89,13.78c2.11,7.79,4,16,4.55,22.73-4.13-.36-8.19,1.2-12,1.66a25.13,25.13,0,0,1-2.67,0,7.7,7.7,0,0,0,0-11c-1.9.16-9.24,1.16-13,6.93a7.69,7.69,0,0,0,2.61,4.47s0,0,0,0-5.92,9.75-6.63,19.09,3,9.46,6.54,6.43c4-3.46,4.72-3.41,7.73-.61,3.47,3.23,6.13,4.22,6.53.91s.8-18.88,2-20.89c0,0,4.82-.91,8.43-2a5.32,5.32,0,0,0,.64-.24,15.1,15.1,0,0,1-1.33,6.58c-3.38,6.31-1.45,18.09.44,18,2.1-.13-.28-11.68,1.49-11.9s1.64,11.67,3.73,11.47-.36-11.84,1.51-12,1.6,11.67,3.69,11.4C128.79,64.65,128.32,52.84,124,47.14Z"/><path id="touca-3" data-name="touca" class="cls-3" d="M166.81,33.5c-1.51-6-2.77-8.16-5-8.44-2-.25-4-1.62-4-3.87a3.72,3.72,0,0,1,3.73-3.77c1.93,0,2.7-.46,2.94-2.41.32-2.55,3-3.11,4.72-2.5,1.38.49,2.58,1.77,3.72.4s1.91-3.22,4.72-2.11,2.31,4.52,1.81,7.13,2.41,7.53,2.41,7.53S171.58,25.7,166.81,33.5Z"/><path class="cls-3" d="M202.88,47.14c-4-5.2-4.11-20.26-3-34.14s-5.41-13-5.41-13-6.53.34-2.89,13.78c2.12,7.79,4,16,4.56,22.73-4.13-.36-8.19,1.2-12,1.66a25.21,25.21,0,0,1-2.67,0,7.7,7.7,0,0,0,0-11c-1.91.16-9.25,1.16-13,6.93a7.76,7.76,0,0,0,2.62,4.47l0,0s-5.92,9.75-6.62,19.09,3,9.46,6.53,6.43c4-3.46,4.73-3.41,7.74-.61,3.46,3.23,6.12,4.22,6.52.91s.81-18.88,2-20.89c0,0,4.83-.91,8.44-2a5.32,5.32,0,0,0,.64-.24A15.25,15.25,0,0,1,195,47.89c-3.38,6.31-1.45,18.09.43,18,2.11-.13-.27-11.68,1.49-11.9s1.65,11.67,3.73,11.47-.36-11.84,1.52-12,1.6,11.67,3.69,11.4C207.68,64.65,207.21,52.84,202.88,47.14Z"/><path id="touca-4" data-name="touca" class="cls-4" d="M245.69,33.5c-1.5-6-2.77-8.16-5-8.44-2-.25-4-1.62-4-3.87a3.72,3.72,0,0,1,3.73-3.77c1.92,0,2.7-.46,2.94-2.41.32-2.55,3-3.11,4.72-2.5,1.37.49,2.58,1.77,3.72.4s1.9-3.22,4.72-2.11,2.31,4.52,1.81,7.13,2.41,7.53,2.41,7.53S250.47,25.7,245.69,33.5Z"/><path class="cls-4" d="M281.77,47.14c-4-5.2-4.11-20.26-3-34.14s-5.41-13-5.41-13-6.54.34-2.89,13.78c2.12,7.79,4,16,4.56,22.73-4.13-.36-8.19,1.2-12,1.66a25.21,25.21,0,0,1-2.67,0,7.69,7.69,0,0,0,0-11c-1.9.16-9.24,1.16-13,6.93a7.7,7.7,0,0,0,2.62,4.47l0,0s-5.92,9.75-6.62,19.09,3,9.46,6.53,6.43c4-3.46,4.73-3.41,7.73-.61,3.47,3.23,6.13,4.22,6.53.91s.81-18.88,2-20.89c0,0,4.82-.91,8.44-2a5.87,5.87,0,0,0,.63-.24,15,15,0,0,1-1.33,6.58c-3.37,6.31-1.44,18.09.44,18,2.11-.13-.28-11.68,1.49-11.9s1.65,11.67,3.73,11.47-.36-11.84,1.52-12,1.59,11.67,3.69,11.4C286.57,64.65,286.1,52.84,281.77,47.14Z"/></g></g></svg>