<svg width="377" height="112" viewBox="0 0 377 112" fill="none" xmlns="http://www.w3.org/2000/svg">
<path d="M235.927 60.8234C235.932 60.8463 235.932 60.8698 235.927 60.8927C235.934 60.8573 235.934 60.8209 235.927 60.7855V60.8234Z" fill="#E73E38"/>
<path d="M235.927 60.8234C235.932 60.8463 235.932 60.8698 235.927 60.8927C235.934 60.8573 235.934 60.8209 235.927 60.7855V60.8234Z" fill="#E73E38"/>
<path d="M152.149 64.5801C142.566 76.2449 132.401 76.7012 132.401 76.7012C123.025 74.9634 131.151 72.0816 131.151 72.0816C137.755 69.754 143.73 65.9307 148.611 60.9107C158.419 49.596 153.293 47.4956 153.293 47.4956C131.814 49.9211 126.119 75.1759 126.119 75.1759C123.462 86.8344 114.973 101.987 114.973 101.987C111.279 108.682 110.697 100.831 110.697 100.831C110.36 96.6738 113.823 88.0159 120.949 69.6436C128.207 50.9588 129.357 46.1703 129.576 44.9701C129.795 43.7699 129.095 44.1825 129.095 44.1825L119.33 62.0796C113.473 74.2882 102.564 83.565 102.564 83.565C98.0136 86.9907 97.2009 82.7523 97.2009 82.7523C106.665 71.0189 115.329 56.7286 115.329 56.7286L137.577 21.8407C139.153 18.7651 141.616 20.9155 141.616 20.9155C144.272 22.3095 133.902 48.1895 133.902 48.1895C133.445 51.3151 135.521 48.302 135.521 48.302C139.215 43.1073 146.717 40.6568 146.717 40.6568C156.769 36.1559 159.307 43.8949 159.307 43.8949C163.345 53.378 152.149 64.5801 152.149 64.5801Z" fill="#E73E38"/>
<path d="M292.276 29.6795C292.276 29.6795 290.063 32.3425 286.412 29.5795C286.412 29.5795 282.868 27.029 286.412 23.5971C286.412 23.5971 289.625 21.0529 291.944 23.9159C291.932 23.9159 295.376 26.4664 292.276 29.6795Z" fill="#E73E38"/>
<path d="M373.197 58.7851C372.127 59.2916 371.176 60.0204 370.409 60.923C370.409 60.923 367.284 64.9925 359.401 67.6242C359.401 67.6242 352.637 70.9624 351.087 64.7737C350.743 63.3547 349.836 64.2361 354.444 52.6964C354.444 52.6964 354.912 50.821 353.075 50.3459C353.075 50.3459 349.874 48.2705 349.543 46.4327C349.536 46.4062 349.526 46.381 349.511 46.3577C349.199 45.9764 346.036 42.3632 338.409 43.8197C330.595 45.3262 321.687 61.323 321.05 62.1982C318.318 65.8552 319.743 66.324 309.841 69.8122C308.207 70.2195 306.522 70.3859 304.84 70.306C304.022 70.2993 303.214 70.1277 302.464 69.8017C301.714 69.4757 301.037 69.0019 300.474 68.4085C299.911 67.8151 299.473 67.1144 299.187 66.3481C298.901 65.5818 298.772 64.7657 298.808 63.9485C298.982 61.5243 299.71 59.1722 300.933 57.0722C300.933 57.0722 304.434 50.7273 310.223 50.3147C311.078 50.2493 311.937 50.2786 312.786 50.4022C313.102 50.501 313.43 50.5598 313.761 50.5772C314.742 50.6391 315.722 50.4327 316.596 49.9801C317.469 49.5275 318.203 48.8458 318.718 48.008C318.718 48.008 319.343 47.3829 318.093 46.8328C318.093 46.8328 317.305 46.5265 316.093 46.1514C311.652 44.7777 306.852 45.1811 302.702 47.2766C298.883 49.2082 296.514 51.4837 294.62 55.3219C293.841 56.9675 293.191 58.6708 292.676 60.4166C292.082 62.3983 291.963 64.5112 291.044 66.3678C290.425 67.7728 289.493 69.0174 288.318 70.006C287.544 70.6612 286.628 71.1277 285.643 71.3687C284.294 71.6875 282.885 71.6508 281.555 71.2624C280.964 71.0562 280.461 70.6545 280.129 70.1237C279.797 69.5929 279.656 68.9648 279.729 68.3431C279.729 68.3431 280.142 64.8425 282.411 58.6663L288.587 43.8697C288.587 43.8697 290.694 39.2313 285.337 39.7252C285.337 39.7252 282.211 39.4126 281.186 40.4628C280.161 41.513 275.135 55.5907 271.109 61.7169C269.788 64.102 268.314 66.3989 266.696 68.5932C266.696 68.5932 265.533 70.2873 264.62 70.5748C263.37 70.9686 263.614 69.2746 263.739 68.2181C264.185 66.4053 264.744 64.6222 265.414 62.8796C266.839 59.1664 272.715 44.7511 271.928 44.3823C271.928 44.3823 271.078 42.5069 264.026 42.2069C264.026 42.2069 256.256 42.0193 254.756 42.6445C250.767 44.326 242.135 63.1922 240.072 65.7364C240.072 65.7364 239.497 66.399 239.484 66.4115C239.472 66.424 238.984 66.8053 238.94 66.8428C237.359 67.3805 235.583 67.2179 235.74 63.8673C236.787 61.3256 237.574 58.6846 238.09 55.9845L238.128 55.947C238.698 53.542 238.789 51.0484 238.396 48.6081C238.54 47.5767 236.296 44.176 233.295 42.7445C233.295 42.7445 230.545 40.7378 224.869 42.0318C221.419 42.8107 218.263 44.5588 215.773 47.0703C215.773 47.0703 216.798 44.9387 216.836 44.7074C216.836 44.7074 221.962 33.5802 222.225 32.205C222.225 32.205 222.637 31.0172 220.812 30.6047C220.812 30.6047 218.086 29.5795 217.061 31.0422C216.036 32.505 207.322 51.1086 198.845 60.6604C198.845 60.6604 192.975 69.3308 189.937 71.1062C189.937 71.1062 188.218 73.094 187.549 70.481C187.251 68.4599 187.466 66.3962 188.174 64.4799C188.174 64.4799 189.662 57.141 191.925 53.2277C191.947 53.1958 191.972 53.1664 192 53.1402C192.393 52.7403 192.661 52.2351 192.772 51.6858C192.883 51.1365 192.832 50.5668 192.625 50.0459C192.625 50.0459 192.538 46.0889 189.743 46.9203L188.874 46.7578C188.133 46.4172 187.535 45.8262 187.187 45.0887C186.914 44.6359 186.565 44.234 186.155 43.901C185.167 43.0445 183.198 41.8193 177.91 42.957C177.91 42.957 169.408 45.1887 163.282 55.9533C163.282 55.9533 156.174 64.4486 159.944 73.2941C160.025 73.4816 164.426 83.4023 176.716 71.3312L177.516 70.5061L178.266 69.7309L180.517 67.4305C180.517 67.4305 181.898 65.5926 181.317 68.0118C181.317 68.0118 179.635 77.4449 188.118 77.1136H188.162C188.462 77.1136 194.813 76.3134 201.289 65.5489C201.289 65.5489 203.358 62.217 201.989 66.1177C201.989 66.1177 192.056 88.0969 188.362 102.919C188.346 102.957 188.346 102.999 188.362 103.037C188.568 103.525 190.068 106.744 192.838 103.562L207.028 68.8995C207.115 68.6057 209.803 59.7165 217.48 53.4028C217.48 53.4028 226.7 46.589 231.983 48.158L232.051 48.208C232.139 48.2893 232.233 48.3643 232.308 48.4393C232.383 48.5143 232.308 48.4393 232.308 48.4393C232.355 48.4799 232.398 48.5238 232.439 48.5706C232.56 48.6951 232.671 48.8288 232.77 48.9707C232.994 49.259 233.17 49.5821 233.289 49.9271C233.327 50.0334 233.352 50.1209 233.383 50.2147C234.502 53.6716 231.82 58.4287 231.814 58.4287C231.66 58.9861 231.476 59.5349 231.264 60.0728C231.264 60.0728 231.264 60.029 231.264 60.0165C231.264 60.1228 230.97 59.629 230.376 59.0351C229.875 58.4818 229.262 58.0412 228.577 57.7427C227.893 57.4442 227.153 57.2945 226.407 57.3035C226.407 57.3035 215.423 56.5971 212.223 68.0431C212.223 68.0431 210.347 79.2577 221.837 75.0194C224.452 74.1643 226.929 72.9324 229.188 71.3625V71.3125C229.188 71.3125 229.188 71.35 229.188 71.3625C232.902 80.3955 241.597 74.113 241.622 74.0942L242.597 73.2566C245.516 70.3248 252.343 55.3782 256.975 47.8392C257.212 47.4579 259.257 47.5517 260.963 47.6204C262.901 47.7017 264.333 47.7142 264.214 48.2455C262.901 53.8716 255.7 67.393 254.737 70.1997C254.737 70.1997 252.299 76.7385 257.775 77.5949C257.775 77.5949 260.169 78.1138 264.476 77.0823C266.553 76.521 268.469 75.4803 270.07 74.0439C271.672 72.6076 272.914 70.8156 273.697 68.812C273.697 68.812 274.322 68.2619 274.41 68.9433C274.835 73.6504 277.329 74.9882 279.729 76.2634C279.729 76.2634 285.449 79.2015 293.313 74.2568C293.682 74.0317 294.076 73.4504 294.413 73.5566C294.75 73.7472 295.068 73.9691 295.364 74.2193C297.864 76.0446 300.696 76.7197 304.071 76.4134C305.311 76.3534 306.543 76.1839 307.753 75.9071C310.473 75.282 315.036 73.8942 318.28 71.5312L318.362 71.475C319.749 70.5123 320.993 68.3494 321.425 70.0372C321.425 70.0372 323.019 76.1634 329.426 76.526C335.834 76.8885 341.304 69.3183 341.304 69.3183C341.304 69.3183 342.091 68.0681 342.141 69.6184C342.575 71.2666 343.441 72.7691 344.65 73.9703C345.859 75.1716 347.367 76.028 349.018 76.4509C354.844 78.07 367.052 74.3068 370.703 69.6934C370.703 69.6934 375.591 65.3176 376.86 60.2166C376.873 60.2541 378.073 57.191 373.197 58.7851ZM235.965 60.7854C235.972 60.8205 235.972 60.8566 235.965 60.8917C235.969 60.869 235.969 60.8456 235.965 60.8229V60.7854ZM185.261 50.6585C185.261 50.6585 184.53 52.1025 183.261 54.2217C180.704 58.535 175.959 65.6551 170.883 69.0933C170.029 69.6939 169.106 70.1893 168.133 70.5686C168.133 70.5686 165.632 72.3627 168.133 63.536C168.133 63.536 172.434 51.1711 183.892 48.5331C183.88 48.4956 187.062 47.6267 185.261 50.6585ZM217.942 70.481H217.786C217.822 69.6084 218.05 68.7544 218.455 67.9806C219.493 65.0363 220.956 63.8485 222.487 63.5485C224.681 63.1109 226.863 64.5737 227.701 65.1925C227.743 65.2268 227.779 65.2696 227.804 65.3182C227.829 65.3668 227.844 65.4202 227.848 65.4749C227.851 65.5297 227.843 65.5845 227.825 65.636C227.806 65.6875 227.776 65.7345 227.738 65.7739C225.105 68.4102 221.648 70.0649 217.942 70.4623V70.481ZM343.592 53.8779C342.879 59.6415 338.241 65.1738 332.696 68.5494C326.501 72.3001 326.445 66.049 326.445 66.049C326.875 62.5926 328.196 59.3073 330.278 56.5151C332.36 53.7229 335.132 51.5195 338.322 50.1209H338.397C344.385 48.7331 343.604 53.8591 343.604 53.8591L343.592 53.8779Z" fill="#E73E38"/>
<path d="M235.927 60.8234C235.932 60.8463 235.932 60.8698 235.927 60.8927C235.934 60.8573 235.934 60.8209 235.927 60.7855V60.8234Z" fill="#E73E38"/>
<path d="M204.64 27.0853C204.265 32.7551 193.676 37.5748 193.676 37.5748C190.369 39.844 188.675 37.006 188.675 37.006C186.212 34.3617 188.575 32.8489 188.575 32.8489C191.604 30.4538 194.223 27.58 196.326 24.341C198.689 20.5903 202.002 23.9597 202.002 23.9597C205.303 25.76 204.64 27.0853 204.64 27.0853Z" fill="#E73E38"/>
<path d="M15.1788 56.3284C12.6783 46.1827 10.5217 42.6133 6.77095 42.1445C3.43906 41.7194 0.000903431 39.4064 0.000903431 35.6557C-0.0132055 34.8259 0.138067 34.0016 0.445896 33.2308C0.753725 32.4601 1.21195 31.7584 1.79384 31.1666C2.37572 30.5748 3.06963 30.1048 3.83507 29.784C4.60051 29.4633 5.42216 29.2981 6.2521 29.2982C9.47772 29.2295 10.778 28.5293 11.1843 25.2412C11.7156 20.9591 16.2728 20.0152 19.1171 21.0404C21.43 21.8781 23.4554 24.016 25.3683 21.7155C27.2811 19.4151 28.5939 16.3145 33.3198 18.1524C38.0457 19.9902 37.2018 25.7538 36.3579 30.1422C35.514 34.5305 40.4149 42.7946 40.4149 42.7946C40.4149 42.7946 23.1991 43.2134 15.1788 56.3284Z" fill="#E73E38"/>
<path d="M75.7966 79.2454C69.1516 70.4937 68.9203 45.2014 70.7019 21.8719C72.4835 -1.45759 61.6064 0.023943 61.6064 0.023943C61.6064 0.023943 50.6168 0.592803 56.7492 23.1534C60.3062 36.2809 63.4318 50.1335 64.3882 61.3982C57.4494 60.7731 50.6356 63.4173 44.1656 64.1925C42.6756 64.2875 41.1817 64.3062 39.6897 64.2487C40.9198 63.0423 41.897 61.6027 42.564 60.0142C43.2311 58.4256 43.5747 56.7199 43.5747 54.997C43.5747 53.274 43.2311 51.5684 42.564 49.9798C41.897 48.3912 40.9198 46.9516 39.6897 45.7452C36.4954 46.014 24.1555 47.6956 17.8856 57.4037C18.4394 60.3325 19.9846 62.9814 22.2614 64.9051L22.2176 64.9426C22.2176 64.9426 12.272 81.3208 11.0905 97.0175C9.90902 112.714 16.254 112.921 22.1176 107.826C28.8189 102.012 30.0566 102.1 35.1076 106.807C40.9337 112.239 45.4033 113.902 46.0785 108.332C46.7536 102.762 47.4287 76.6011 49.4541 73.2255C49.4541 73.2255 57.5807 71.7002 63.6381 69.8436C63.9988 69.7305 64.3535 69.5991 64.7008 69.4497C64.5882 74.0069 63.9069 77.8139 62.4691 80.5019C56.793 91.1289 60.0374 110.908 63.2005 110.714C66.7387 110.495 62.7379 91.0852 65.701 90.7101C68.8266 90.3225 68.464 110.32 71.9522 109.989C75.4403 109.657 71.327 90.085 74.5089 89.8787C77.4907 89.6786 77.1907 109.495 80.7038 109.051C83.867 108.664 83.0793 88.8285 75.7966 79.2454Z" fill="#E73E38"/>
</svg>
