<svg xmlns="http://www.w3.org/2000/svg" viewBox="0 0 603.09 178.77"><defs><style>.cls-1{fill:#fff;}</style></defs><g id="Layer_2" data-name="Layer 2"><g id="img_01" data-name="img 01"><g id="pap_logo" data-name="pap logo"><path class="cls-1" d="M377.41,97.26a.28.28,0,0,1,0,.11.43.43,0,0,0,0-.17Z"/><path class="cls-1" d="M377.41,97.26a.28.28,0,0,1,0,.11.43.43,0,0,0,0-.17Z"/><path class="cls-1" d="M243.39,103.27c-15.33,18.66-31.59,19.39-31.59,19.39-15-2.78-2-7.39-2-7.39A72.63,72.63,0,0,0,237.73,97.4c15.69-18.1,7.49-21.46,7.49-21.46-34.36,3.88-43.47,44.28-43.47,44.28-4.25,18.65-17.83,42.89-17.83,42.89-5.91,10.71-6.84-1.85-6.84-1.85-.54-6.65,5-20.5,16.4-49.89,11.61-29.89,13.45-37.55,13.8-39.47s-.77-1.26-.77-1.26L190.89,99.27c-9.37,19.53-26.82,34.37-26.82,34.37-7.28,5.48-8.58-1.3-8.58-1.3,15.14-18.77,29-41.63,29-41.63L220.08,34.9c2.52-4.92,6.46-1.48,6.46-1.48,4.25,2.23-12.34,43.63-12.34,43.63-.73,5,2.59.18,2.59.18C222.7,68.92,234.7,65,234.7,65c16.08-7.2,20.14,5.18,20.14,5.18C261.3,85.35,243.39,103.27,243.39,103.27Z"/><path class="cls-1" d="M467.55,47.44s-3.54,4.26-9.38-.16c0,0-5.67-4.08,0-9.57,0,0,5.14-4.07,8.85.51C467,38.22,472.51,42.3,467.55,47.44Z"/><path class="cls-1" d="M597,94a13.34,13.34,0,0,0-4.46,3.42s-5,6.51-17.61,10.72c0,0-10.82,5.34-13.3-4.56-.55-2.27-2-.86,5.37-19.32,0,0,.75-3-2.19-3.76,0,0-5.12-3.32-5.65-6.26a.43.43,0,0,0-.05-.12c-.5-.61-5.56-6.39-17.76-4.06-12.5,2.41-26.75,28-27.77,29.4-4.37,5.85-2.09,6.6-17.93,12.18a27.65,27.65,0,0,1-8,.79,9.74,9.74,0,0,1-9.65-10.17,25.48,25.48,0,0,1,3.4-11S487,81.11,496.26,80.45a18.6,18.6,0,0,1,4.1.14,6.35,6.35,0,0,0,1.56.28,8.67,8.67,0,0,0,7.93-4.11l0,0s1-1-1-1.88c0,0-1.26-.49-3.2-1.09a28.7,28.7,0,0,0-21.42,1.8h0c-6.11,3.09-9.9,6.73-12.93,12.87a56.47,56.47,0,0,0-3.11,8.15c-.95,3.17-1.14,6.55-2.61,9.52a16.07,16.07,0,0,1-4.36,5.82,10.48,10.48,0,0,1-4.28,2.18,12.82,12.82,0,0,1-6.54-.17,4.4,4.4,0,0,1-2.92-4.67s.66-5.6,4.29-15.48l9.88-23.67s3.37-7.42-5.2-6.63c0,0-5-.5-6.64,1.18s-9.68,24.2-16.12,34a100.83,100.83,0,0,1-7.06,11s-1.86,2.71-3.32,3.17c-2,.63-1.61-2.08-1.41-3.77a71.25,71.25,0,0,1,2.68-8.54c2.28-5.94,11.68-29,10.42-29.59,0,0-1.36-3-12.64-3.48,0,0-12.43-.3-14.83.7-6.38,2.69-20.19,32.87-23.49,36.94,0,0-.92,1.06-.94,1.08s-.8.63-.87.69c-2.53.86-5.37.6-5.12-4.76a65.29,65.29,0,0,0,3.76-12.61l.06-.06a30.15,30.15,0,0,0,.43-11.74c.23-1.65-3.36-7.09-8.16-9.38,0,0-4.4-3.21-13.48-1.14a29.7,29.7,0,0,0-14.55,8.06s1.64-3.41,1.7-3.78c0,0,8.2-17.8,8.62-20,0,0,.66-1.9-2.26-2.56,0,0-4.36-1.64-6,.7S331.65,81.72,318.09,97h0s-9.39,13.87-14.25,16.71c0,0-2.75,3.18-3.82-1a19.49,19.49,0,0,1,1-9.6s2.38-11.74,6-18a.81.81,0,0,1,.12-.14,4.63,4.63,0,0,0,1-4.95s-.14-6.33-4.61-5l-1.39-.26a5.55,5.55,0,0,1-2.7-2.67,7.28,7.28,0,0,0-1.65-1.9c-1.58-1.37-4.73-3.33-13.19-1.51h0s-13.6,3.57-23.4,20.79h0s-11.37,13.59-5.34,27.74v0c.13.3,7.17,16.17,26.83-3.14l1.28-1.32,1.2-1.24,3.6-3.68s2.21-2.94,1.28.93c0,0-2.69,15.09,10.88,14.56H301c.48,0,10.64-1.28,21-18.5,0,0,3.31-5.33,1.12.91,0,0-15.89,35.16-21.8,58.87a.25.25,0,0,0,0,.19c.33.78,2.73,5.93,7.16.84l22.7-55.45v0c.14-.47,4.44-14.69,16.72-24.79h0S362.65,74.49,371.1,77l.11.08c.14.13.29.25.41.37s0,0,0,0a2.08,2.08,0,0,1,.21.21,5.29,5.29,0,0,1,.53.64,5.35,5.35,0,0,1,.83,1.53c.06.17.1.31.15.46,1.79,5.53-2.5,13.14-2.51,13.14h0a26.14,26.14,0,0,1-.88,2.63s0-.07,0-.09c0,.17-.47-.62-1.42-1.57a8.43,8.43,0,0,0-6.35-2.77s-17.57-1.13-22.69,17.18h0s-3,17.94,15.38,11.16a45.27,45.27,0,0,0,11.76-5.85v-.08s0,.06,0,.08c5.94,14.45,19.85,4.4,19.89,4.37h0l1.56-1.34c4.67-4.69,15.59-28.6,23-40.66.38-.61,3.65-.46,6.38-.35,3.1.13,5.39.15,5.2,1-2.1,9-13.62,30.63-15.16,35.12,0,0-3.9,10.46,4.86,11.83,0,0,3.83.83,10.72-.82a22,22,0,0,0,14.75-13.23s1-.88,1.14.21c.68,7.53,4.67,9.67,8.51,11.71,0,0,9.15,4.7,21.73-3.21.59-.36,1.22-1.29,1.76-1.12a9.86,9.86,0,0,1,1.52,1.06c4,2.92,8.53,4,13.93,3.51a33.73,33.73,0,0,0,5.89-.81c4.35-1,11.65-3.22,16.84-7l.13-.09c2.22-1.54,4.21-5,4.9-2.3,0,0,2.55,9.8,12.8,10.38s19-11.53,19-11.53,1.26-2,1.34.48a15.3,15.3,0,0,0,11,10.93c9.32,2.59,28.85-3.43,34.69-10.81,0,0,7.82-7,9.85-15.16C602.88,96.35,604.8,91.45,597,94ZM377.47,97.2a.43.43,0,0,1,0,.17.28.28,0,0,0,0-.11ZM296.36,81s-1.17,2.31-3.2,5.7c-4.09,6.9-11.68,18.29-19.8,23.79a20.76,20.76,0,0,1-4.4,2.36s-4,2.87,0-11.25h0s6.88-19.78,25.21-24C294.15,77.54,299.24,76.15,296.36,81Zm52.28,31.71-.25,0a9.46,9.46,0,0,1,1.07-4s0,0,0,0c1.66-4.71,4-6.61,6.45-7.09,3.51-.7,7,1.64,8.34,2.63a.63.63,0,0,1,.06.93A26.08,26.08,0,0,1,348.64,112.68Zm201-26.56c-1.14,9.22-8.56,18.07-17.43,23.47-9.91,6-10-4-10-4a32.16,32.16,0,0,1,19-25.48l.12,0C550.91,77.92,549.66,86.12,549.66,86.12Z"/><path class="cls-1" d="M377.41,97.26a.28.28,0,0,1,0,.11.43.43,0,0,0,0-.17Z"/><path class="cls-1" d="M327.36,43.29c-.6,9.07-17.54,16.78-17.54,16.78-5.29,3.63-8-.91-8-.91-3.94-4.23-.16-6.65-.16-6.65a56.75,56.75,0,0,0,12.4-13.61c3.78-6,9.08-.61,9.08-.61C328.42,41.17,327.36,43.29,327.36,43.29Z"/><path id="touca" class="cls-1" d="M24.28,90.07c-4-16.23-7.45-21.94-13.45-22.69C5.5,66.7,0,63,0,57A10,10,0,0,1,10,46.83c5.16-.11,7.24-1.23,7.89-6.49.85-6.85,8.14-8.36,12.69-6.72,3.7,1.34,6.94,4.76,10,1.08S45.74,26.06,53.3,29s6.21,12.16,4.86,19.18,6.49,20.24,6.49,20.24S37.11,69.09,24.28,90.07Z"/><path class="cls-1" d="M121.25,126.73c-10.63-14-11-54.46-8.15-91.78S98.55,0,98.55,0s-17.58.91-7.77,37C96.47,58,101.47,80.16,103,98.18c-11.1-1-22,3.23-32.35,4.47a70.11,70.11,0,0,1-7.16.09,20.73,20.73,0,0,0,0-29.6c-5.11.43-24.85,3.12-34.88,18.65a20.76,20.76,0,0,0,7,12l-.07.06s-15.91,26.2-17.8,51.31S26,180.6,35.38,172.45c10.72-9.3,12.7-9.16,20.78-1.63,9.32,8.69,16.47,11.35,17.55,2.44s2.16-50.76,5.4-56.16c0,0,13-2.44,22.69-5.41a17.72,17.72,0,0,0,1.7-.63c-.18,7.29-1.27,13.38-3.57,17.68-9.08,17-3.89,48.64,1.17,48.33,5.66-.35-.74-31.4,4-32,5-.62,4.42,31.37,10,30.84s-1-31.84,4.09-32.17c4.77-.32,4.29,31.38,9.91,30.67C134.16,173.79,132.9,142.06,121.25,126.73Z"/></g></g></g></svg>