<svg xmlns="http://www.w3.org/2000/svg" viewBox="0 0 55.47 28.41"><defs><style>.cls-1{fill:#fff;fill-rule:evenodd;}</style></defs><title>puc_branco</title><g id="Layer_2" data-name="Layer 2"><g id="Layer_1-2" data-name="Layer 1"><path class="cls-1" d="M5.63,11v5.77a4,4,0,0,0,.42,2.33,2.09,2.09,0,0,0,1.67.64h.77v.54H0v-.54H.74a2,2,0,0,0,1.8-.82,4.91,4.91,0,0,0,.29-2.15V4a4.14,4.14,0,0,0-.39-2.31A2.16,2.16,0,0,0,.74,1H0V.45H7.26A12.71,12.71,0,0,1,11.45,1,5.73,5.73,0,0,1,14,2.85a4.73,4.73,0,0,1,1.05,3.08,5.21,5.21,0,0,1-1.6,3.94A6.35,6.35,0,0,1,9,11.39a12.27,12.27,0,0,1-1.54-.1c-.55-.07-1.15-.17-1.79-.31Zm0-.83c.52.1,1,.17,1.38.22a8.3,8.3,0,0,0,1,.07,3.47,3.47,0,0,0,2.63-1.18,4.27,4.27,0,0,0,1.1-3,5.53,5.53,0,0,0-.53-2.39A3.64,3.64,0,0,0,9.74,2.18a4.39,4.39,0,0,0-2.19-.54,9.07,9.07,0,0,0-1.92.27v8.24Z"/><path class="cls-1" d="M30.67,1V.45h7V1h-.75a2,2,0,0,0-1.79,1,4.36,4.36,0,0,0-.31,2.1v8a14.27,14.27,0,0,1-.59,4.62,5.76,5.76,0,0,1-2.32,2.82,8.34,8.34,0,0,1-4.72,1.18,8.86,8.86,0,0,1-4.92-1.13,6.08,6.08,0,0,1-2.38-3,16.82,16.82,0,0,1-.47-4.88V4a3.85,3.85,0,0,0-.5-2.39A2.08,2.08,0,0,0,17.3,1h-.75V.45h8.57V1h-.76a2,2,0,0,0-1.76.78A4.33,4.33,0,0,0,22.24,4v8.64a19.09,19.09,0,0,0,.21,2.64,5.69,5.69,0,0,0,.77,2.33,4.11,4.11,0,0,0,1.6,1.37,5.51,5.51,0,0,0,2.56.54,7,7,0,0,0,3.47-.85A4.44,4.44,0,0,0,33,16.45,12.37,12.37,0,0,0,33.52,12V4a4,4,0,0,0-.41-2.31A2.17,2.17,0,0,0,31.41,1Z"/><path class="cls-1" d="M54.57,0,55,6.73h-.45A8.55,8.55,0,0,0,52,2.38a6.27,6.27,0,0,0-4-1.33,6.53,6.53,0,0,0-3.56,1,6.6,6.6,0,0,0-2.51,3.19A14.4,14.4,0,0,0,41,10.69a11.47,11.47,0,0,0,.86,4.66,6.48,6.48,0,0,0,2.6,3,7.33,7.33,0,0,0,3.94,1.06,6.89,6.89,0,0,0,3.41-.83A11.23,11.23,0,0,0,55,15.32l.45.29A10.39,10.39,0,0,1,52,19.49a8.89,8.89,0,0,1-4.72,1.22,8.93,8.93,0,0,1-7.63-3.65,10.47,10.47,0,0,1-2-6.4A11.36,11.36,0,0,1,39,5.21a9.63,9.63,0,0,1,3.66-3.85A9.88,9.88,0,0,1,47.72,0,9.31,9.31,0,0,1,52,1.05a2.41,2.41,0,0,0,.88.32,1,1,0,0,0,.69-.28A2.33,2.33,0,0,0,54.06,0Z"/><path class="cls-1" d="M35.05,22.57a3.1,3.1,0,0,1,1.78.44,1.52,1.52,0,0,1,.28,2.2,1.77,1.77,0,0,1-1,.54l1.21,1.92a1.86,1.86,0,0,0,.31.39.38.38,0,0,0,.25.11v.13H36.22v-.13h0a.16.16,0,0,0,.11,0,.09.09,0,0,0,.05-.09.17.17,0,0,0,0-.07s0,0,0,0L35,25.83H33.11v1.92a.47.47,0,0,0,.06.27.63.63,0,0,0,.25.12v.16H31.76v-.16A.63.63,0,0,0,32,28a.59.59,0,0,0,.05-.27V23.12a.49.49,0,0,0-.05-.26.51.51,0,0,0-.25-.13v-.16Zm.32.9H33.11V25h2.26a1.56,1.56,0,0,0,.85-.18.73.73,0,0,0,0-1.13,1.57,1.57,0,0,0-.84-.18Z"/><path class="cls-1" d="M43.1,27.75a.59.59,0,0,0,0,.27.72.72,0,0,0,.25.12v.16H41.74v-.16A.63.63,0,0,0,42,28a.47.47,0,0,0,.06-.27V23.12a.39.39,0,0,0-.06-.26.51.51,0,0,0-.25-.13v-.16H43.4v.16a.57.57,0,0,0-.25.13.49.49,0,0,0,0,.26v4.63Z"/><path class="cls-1" d="M50.68,28.41a3.39,3.39,0,0,1-2.38-.85,2.72,2.72,0,0,1-.94-2.13,2.77,2.77,0,0,1,.93-2.14,3.77,3.77,0,0,1,4.77,0A2.78,2.78,0,0,1,54,25.43a2.75,2.75,0,0,1-.93,2.13,3.4,3.4,0,0,1-2.38.85Zm-2.25-3A2.14,2.14,0,0,0,49.05,27a2.48,2.48,0,0,0,3.26,0,2.16,2.16,0,0,0,.62-1.59,2.1,2.1,0,0,0-.62-1.58,2.51,2.51,0,0,0-3.26,0,2.1,2.1,0,0,0-.62,1.58Z"/></g></g></svg>