<svg xmlns="http://www.w3.org/2000/svg" viewBox="0 0 239.58 239.58"><defs><style>.cls-1{fill:#fff;}</style></defs><title>instagram_logo</title><g id="Layer_2" data-name="Layer 2"><g id="Logo"><path class="cls-1" d="M119.79,21.58c32,0,35.78.13,48.41.7,11.68.54,18,2.49,22.24,4.13a37.08,37.08,0,0,1,13.77,9,37.1,37.1,0,0,1,9,13.77c1.64,4.22,3.59,10.57,4.12,22.25.58,12.63.7,16.42.7,48.4s-.12,35.78-.7,48.41c-.53,11.68-2.48,18-4.12,22.24a39.79,39.79,0,0,1-22.74,22.74c-4.22,1.64-10.56,3.59-22.24,4.12-12.63.58-16.42.7-48.41.7s-35.77-.12-48.4-.7c-11.68-.53-18-2.48-22.25-4.12a37.1,37.1,0,0,1-13.77-9,37.08,37.08,0,0,1-9-13.77c-1.64-4.22-3.59-10.56-4.13-22.24-.57-12.63-.7-16.42-.7-48.41s.13-35.77.7-48.4c.54-11.68,2.49-18,4.13-22.25a37.08,37.08,0,0,1,9-13.77,37.08,37.08,0,0,1,13.77-9c4.22-1.64,10.57-3.59,22.25-4.13,12.63-.57,16.42-.7,48.4-.7m0-21.58C87.26,0,83.18.14,70.4.72S48.94,3.33,41.32,6.29A58.74,58.74,0,0,0,20.11,20.11,58.74,58.74,0,0,0,6.29,41.32c-3,7.62-5,16.33-5.57,29.08S0,87.26,0,119.79s.14,36.61.72,49.39,2.61,21.46,5.57,29.08a58.69,58.69,0,0,0,13.82,21.22,58.71,58.71,0,0,0,21.21,13.81c7.62,3,16.33,5,29.08,5.57s16.86.72,49.39.72,36.61-.13,49.39-.72,21.46-2.6,29.08-5.57a61.17,61.17,0,0,0,35-35c3-7.62,5-16.33,5.57-29.08s.72-16.86.72-49.39-.14-36.61-.72-49.39-2.6-21.46-5.57-29.08a58.71,58.71,0,0,0-13.81-21.21A58.69,58.69,0,0,0,198.26,6.29c-7.62-3-16.33-5-29.08-5.57S152.32,0,119.79,0Z"/><path class="cls-1" d="M119.79,58.28a61.52,61.52,0,1,0,61.52,61.51A61.51,61.51,0,0,0,119.79,58.28Zm0,101.44a39.93,39.93,0,1,1,39.93-39.93A39.93,39.93,0,0,1,119.79,159.72Z"/><circle class="cls-1" cx="183.74" cy="55.85" r="14.37"/></g></g></svg>