<svg xmlns="http://www.w3.org/2000/svg" viewBox="0 0 93.69 51.77"><defs><style>.cls-1,.cls-2{fill:#fff;}.cls-2{fill-rule:evenodd;}</style></defs><title>logo_branco</title><g id="Layer_2" data-name="Layer 2"><g id="Layer_7" data-name="Layer 7"><g id="logo_aero" data-name="logo aero"><path class="cls-1" d="M.06,34.61c.26,1.27.58,2.52,1,3.76S1.78,40.83,2.25,42s1,2.39,1.51,3.55l.43.86c.16.28.31.57.45.85s.3.57.43.87a3.22,3.22,0,0,1,.29.94h0a.08.08,0,0,1-.07.1.08.08,0,0,1-.07,0,3.23,3.23,0,0,1-.64-.75c-.17-.28-.33-.57-.48-.86-.29-.58-.54-1.18-.81-1.78-.53-1.18-1-2.39-1.43-3.62s-.79-2.48-1.1-3.74S.21,35.9,0,34.62c0,0,0,0,0,0l0,0Z"/><path class="cls-1" d="M.06,34.61c.26,1.27.58,2.52,1,3.76S1.78,40.83,2.25,42s1,2.39,1.51,3.55l.43.86c.16.28.31.57.45.85s.3.57.43.87a3.22,3.22,0,0,1,.29.94h0a.08.08,0,0,1-.07.1.08.08,0,0,1-.07,0,3.23,3.23,0,0,1-.64-.75c-.17-.28-.33-.57-.48-.86-.29-.58-.54-1.18-.81-1.78-.53-1.18-1-2.39-1.43-3.62s-.79-2.48-1.1-3.74S.21,35.9,0,34.62c0,0,0,0,0,0l0,0Z"/><path class="cls-1" d="M2.19,34.94c.28,1.11.61,2.2,1,3.29s.74,2.15,1.18,3.21.88,2.09,1.39,3.11l.39.76c.14.25.28.5.41.75s.26.51.37.77a2.55,2.55,0,0,1,.24.84h0a.09.09,0,0,1-.08.1l-.06,0a2.62,2.62,0,0,1-.59-.66c-.15-.24-.29-.49-.43-.75-.25-.51-.48-1-.72-1.57-.47-1-.91-2.11-1.3-3.19s-.74-2.18-1-3.28S2.36,36.07,2.14,35c0,0,0,0,0,0s0,0,0,0Z"/><path class="cls-1" d="M4.25,34.76q.44,1.52,1,3c.35,1,.72,2,1.13,2.92s.84,1.92,1.31,2.85c.12.23.24.46.37.69s.26.46.37.69.24.46.35.7a2.43,2.43,0,0,1,.21.78H9a.1.1,0,0,1-.09.1l-.06,0a2.36,2.36,0,0,1-.55-.59c-.14-.23-.28-.46-.4-.69-.24-.47-.44-1-.66-1.44-.44-1-.85-1.93-1.23-2.92s-.69-2-1-3-.55-2-.77-3.06c0,0,0,0,0,0s0,0,0,0Z"/><path class="cls-1" d="M93.64,18c-.27-1.26-.58-2.52-1-3.75s-.78-2.47-1.24-3.67-1-2.39-1.51-3.55c-.14-.29-.29-.57-.44-.86s-.31-.56-.45-.85-.29-.57-.42-.87a3.23,3.23,0,0,1-.3-.94h0a.1.1,0,0,1,.08-.1s0,0,.06,0a3.12,3.12,0,0,1,.65.76c.17.28.33.56.48.85.29.58.54,1.18.8,1.78.53,1.19,1,2.4,1.44,3.62s.78,2.48,1.09,3.74.56,2.53.76,3.81c0,0,0,0,0,0s0,0,0,0Z"/><path class="cls-1" d="M93.64,18c-.27-1.26-.58-2.52-1-3.75s-.78-2.47-1.24-3.67-1-2.39-1.51-3.55c-.14-.29-.29-.57-.44-.86s-.31-.56-.45-.85-.29-.57-.42-.87a3.23,3.23,0,0,1-.3-.94h0a.1.1,0,0,1,.08-.1s0,0,.06,0a3.12,3.12,0,0,1,.65.76c.17.28.33.56.48.85.29.58.54,1.18.8,1.78.53,1.19,1,2.4,1.44,3.62s.78,2.48,1.09,3.74.56,2.53.76,3.81c0,0,0,0,0,0s0,0,0,0Z"/><path class="cls-1" d="M91.5,17.62c-.28-1.1-.6-2.2-1-3.28s-.75-2.16-1.18-3.21S88.47,9,88,8l-.39-.76c-.14-.25-.28-.5-.41-.75s-.26-.5-.38-.76a3,3,0,0,1-.24-.85h0a.1.1,0,0,1,.08-.1l.07,0a2.83,2.83,0,0,1,.59.66q.22.36.42.75c.26.51.49,1,.72,1.57.48,1,.92,2.11,1.31,3.19s.74,2.18,1,3.28.56,2.23.77,3.35c0,0,0,0,0,0s0,0,0,0Z"/><path class="cls-1" d="M89.44,17.8c-.28-1-.6-2-1-3s-.73-2-1.14-2.93S86.51,10,86.05,9c-.12-.23-.24-.46-.37-.69s-.26-.45-.38-.69S85.06,7.19,85,7a2.19,2.19,0,0,1-.21-.78h0a.11.11,0,0,1,.09-.1l0,0a2.23,2.23,0,0,1,.56.59c.14.23.27.46.4.69.23.47.44,1,.66,1.44.44,1,.85,1.93,1.22,2.92s.7,2,1,3,.54,2,.76,3.06c0,0,0,0,0,0l0,0Z"/><path class="cls-2" d="M51.24,26a2.93,2.93,0,1,1-2.93-2.93A2.93,2.93,0,0,1,51.24,26Z"/><path class="cls-1" d="M50.42,40.09V37h.66v3.12a1.46,1.46,0,1,0,2.92,0V37h.66v3.12c0,1.34-.71,2-2.12,2s-2.12-.66-2.12-2Z"/><polygon class="cls-1" points="55.82 42.05 55.13 42.05 57.29 36.97 58.02 36.97 60.19 42.05 59.47 42.05 58.81 40.46 57.12 40.46 57.3 39.92 58.59 39.92 57.63 37.62 55.82 42.05"/><polygon class="cls-1" points="64.72 36.97 62.56 42.05 61.83 42.05 59.66 36.97 60.35 36.97 62.22 41.37 64.03 36.97 64.72 36.97"/><path class="cls-1" d="M67.51,42.06V37h1.85c1.69,0,2.53.8,2.53,2.41,0,1.78-.84,2.68-2.53,2.68Zm1.85-.54c1.25,0,1.87-.71,1.87-2.14a1.65,1.65,0,0,0-1.87-1.87H68.17v4Z"/><polygon class="cls-1" points="76 36.97 76 37.51 73.33 37.51 73.33 39.21 75.87 39.21 75.87 39.74 73.33 39.74 73.33 41.52 76.05 41.52 76.05 42.05 72.67 42.05 72.67 36.97 76 36.97"/><path class="cls-1" d="M76.79,41.88v-.61a5.15,5.15,0,0,0,1.73.29q1.32,0,1.32-1c0-.55-.33-.82-1-.82h-.66q-1.59,0-1.59-1.38c0-1,.68-1.46,2-1.46a6.24,6.24,0,0,1,1.66.21v.61a4.71,4.71,0,0,0-1.66-.29c-.92,0-1.39.31-1.39.93s.32.81.94.81h.66c1.08,0,1.62.47,1.62,1.39s-.65,1.49-2,1.49a6.83,6.83,0,0,1-1.73-.21Z"/><rect class="cls-1" x="81.38" y="36.97" width="0.66" height="5.08"/><path class="cls-1" d="M87,41.86a3.87,3.87,0,0,1-1.33.23c-1.84,0-2.77-.88-2.77-2.65s.89-2.5,2.67-2.5a4.71,4.71,0,0,1,1.43.21v.57a3.71,3.71,0,0,0-1.35-.25c-1.39,0-2.09.66-2.09,2a1.85,1.85,0,0,0,2,2.12,3.37,3.37,0,0,0,.73-.09V39.75H87Z"/><polygon class="cls-1" points="87.92 42.05 87.92 36.97 88.58 36.97 91.69 41.07 91.69 36.97 92.32 36.97 92.32 42.05 91.66 42.05 88.54 37.93 88.54 42.05 87.92 42.05"/><polygon class="cls-1" points="2.35 32.56 0 32.56 7.44 15.03 9.95 15.03 17.43 32.56 14.92 32.56 12.65 27.04 6.85 27.04 7.48 25.2 11.89 25.2 8.62 17.26 2.35 32.56"/><path class="cls-1" d="M58.59,32.56V15h7.47q5,0,5,4.2,0,3.42-4.89,5.07l6,8.26h-3l-5.57-7.88V23.19q5-.8,5-3.86,0-2.43-2.79-2.43h-5V32.56Z"/><path class="cls-1" d="M34.2,32.56V19.69h1.53l.41,1.64a5.61,5.61,0,0,1,4.07-1.64v1.88a4.73,4.73,0,0,0-3.74,1.64v9.35Z"/><path class="cls-1" d="M93,23.33a6.17,6.17,0,0,0-1.37-2.09,6.32,6.32,0,0,0-2.09-1.37,7.44,7.44,0,0,0-5.31,0,6.12,6.12,0,0,0-2.09,1.37,6.3,6.3,0,0,0-1.36,2.09,7.41,7.41,0,0,0,0,5.3,6.3,6.3,0,0,0,1.36,2.09,6,6,0,0,0,2.09,1.37,7.44,7.44,0,0,0,5.31,0A6.13,6.13,0,0,0,93,28.63,6.91,6.91,0,0,0,93.5,26,7,7,0,0,0,93,23.33ZM91.7,26a5.69,5.69,0,0,1-.33,1.94,4.32,4.32,0,0,1-1,1.57,4.72,4.72,0,0,1-1.52,1.06,5,5,0,0,1-2,.39,4.91,4.91,0,0,1-2-.39,4.66,4.66,0,0,1-1.53-1.06,4.47,4.47,0,0,1-.95-1.57A5.69,5.69,0,0,1,82.1,26a5.59,5.59,0,0,1,.33-1.93,4.6,4.6,0,0,1,.95-1.58,4.66,4.66,0,0,1,1.53-1.06,4.91,4.91,0,0,1,2-.39,5,5,0,0,1,2,.39,4.72,4.72,0,0,1,1.52,1.06,4.45,4.45,0,0,1,1,1.58A5.59,5.59,0,0,1,91.7,26Z"/><rect class="cls-1" x="74.97" y="19.69" width="2.27" height="12.87"/><rect class="cls-1" x="74.97" y="16.38" width="2.27" height="2.14"/><path class="cls-1" d="M30.76,25.12q0-5.43-5.49-5.43-5.93,0-5.92,6.29,0,6.57,6.63,6.58a15.35,15.35,0,0,0,4.14-.49V30.23a13.93,13.93,0,0,1-3.89.49q-4.45,0-4.6-3.69a11.74,11.74,0,0,1,0-2.14h0q.21-3.37,3.65-3.38,3.24,0,3.31,3.38H23.52l-.64,1.89h7.77a12.23,12.23,0,0,0,.11-1.65Z"/><path class="cls-1" d="M85.64,0H85.1a28.4,28.4,0,0,0-7.26,1.12,41.58,41.58,0,0,0-9,3.55,42.08,42.08,0,0,0-8.4,5.79c-3.06,2.48-7.51,7.21-9.57,9l-.36.29a7.45,7.45,0,0,0-4.85.16,6,6,0,0,0-2.09,1.37,6.3,6.3,0,0,0-1.36,2.09A7,7,0,0,0,41.71,26a7.09,7.09,0,0,0,.39,2.39l-1.74,1.42a37.12,37.12,0,0,1-3.51,2.33v.82H35.48c-1.2.72-2.38,1.4-3.29,1.94-2.37,1.4-8.77,5.23-12.73,7.59S11.34,47.4,8.76,49s-1.93,2.74.31,2.8a26.88,26.88,0,0,0,7.8-1.11,41.7,41.7,0,0,0,9-3.57,41.73,41.73,0,0,0,8.39-5.79c3.06-2.49,7.5-7.22,9.57-9l.83-.72a5.61,5.61,0,0,0,1,.49,7.44,7.44,0,0,0,5.31,0,6.13,6.13,0,0,0,3.46-3.46A6.91,6.91,0,0,0,54.91,26a7,7,0,0,0-.49-2.65,6.11,6.11,0,0,0-.52-1l.44-.35a35.73,35.73,0,0,1,3.86-2.55V14.64h8.06l9-5.35c4-2.35,8.12-4.92,10.71-6.48S87.88.07,85.64,0ZM52.78,27.92a4.47,4.47,0,0,1-1,1.57,4.72,4.72,0,0,1-1.52,1.06,5.32,5.32,0,0,1-4,0,4.72,4.72,0,0,1-1.52-1.06,4.47,4.47,0,0,1-.95-1.57A5.65,5.65,0,0,1,43.51,26a5.59,5.59,0,0,1,.33-1.93,4.51,4.51,0,0,1,.95-1.58,4.72,4.72,0,0,1,1.52-1.06,5.32,5.32,0,0,1,4,0,4.72,4.72,0,0,1,1.52,1.06,4.51,4.51,0,0,1,1,1.58A5.59,5.59,0,0,1,53.11,26,5.69,5.69,0,0,1,52.78,27.92Z"/></g></g></g></svg>