<svg xmlns="http://www.w3.org/2000/svg" xmlns:xlink="http://www.w3.org/1999/xlink" viewBox="0 0 486.67 268.91"><defs><style>.cls-1{fill:#bbbdbf;}.cls-2{fill:#d0d2d3;}.cls-3{fill:#a6a8ab;}.cls-4{fill:#0071ba;}.cls-5{fill:url(#Gradiente_sem_nome_2);}.cls-6{fill:url(#Gradiente_sem_nome_2-2);}</style><linearGradient id="Gradiente_sem_nome_2" x1="46.05" y1="57.94" x2="455.16" y2="57.94" gradientUnits="userSpaceOnUse"><stop offset="0" stop-color="#a0a2a4"/><stop offset="0.07" stop-color="#aaacae"/><stop offset="0.23" stop-color="#bfc1c3"/><stop offset="0.39" stop-color="#cccecf"/><stop offset="0.55" stop-color="#d0d2d3"/><stop offset="0.67" stop-color="#cbcdce"/><stop offset="0.81" stop-color="#bec0c1"/><stop offset="0.96" stop-color="#a7a9ab"/><stop offset="1" stop-color="#a0a2a4"/></linearGradient><linearGradient id="Gradiente_sem_nome_2-2" x1="36.82" y1="208.15" x2="448.31" y2="208.15" xlink:href="#Gradiente_sem_nome_2"/></defs><title>logo_cor</title><g id="Layer_2" data-name="Layer 2"><g id="versão_principal" data-name="versão principal"><g id="movimento"><path class="cls-1" d="M.3,179.77q2.07,9.87,4.94,19.51t6.42,19q3.54,9.39,7.86,18.45c.75,1.5,1.49,3,2.26,4.48s1.6,2.93,2.35,4.42,1.52,3,2.21,4.49a17.4,17.4,0,0,1,1.52,4.9h0a.46.46,0,0,1-.39.51.45.45,0,0,1-.34-.1,17.53,17.53,0,0,1-3.36-3.93q-1.31-2.17-2.47-4.43c-1.51-3-2.82-6.15-4.2-9.23Q13,228.61,9.66,219T4,199.63Q1.59,189.81,0,179.82a.13.13,0,0,1,.11-.15A.13.13,0,0,1,.3,179.77Z"/><path class="cls-1" d="M.3,179.77q2.07,9.87,4.94,19.51t6.42,19q3.54,9.39,7.86,18.45c.75,1.5,1.49,3,2.26,4.48s1.6,2.93,2.35,4.42,1.52,3,2.21,4.49a17.4,17.4,0,0,1,1.52,4.9h0a.46.46,0,0,1-.39.51.45.45,0,0,1-.34-.1,17.53,17.53,0,0,1-3.36-3.93q-1.31-2.17-2.47-4.43c-1.51-3-2.82-6.15-4.2-9.23Q13,228.61,9.66,219T4,199.63Q1.59,189.81,0,179.82a.13.13,0,0,1,.11-.15A.13.13,0,0,1,.3,179.77Z"/><path class="cls-1" d="M11.39,181.47q2.19,8.64,5,17.09c1.84,5.63,3.88,11.2,6.13,16.67s4.61,10.9,7.21,16.2c.68,1.32,1.35,2.63,2.05,3.93s1.45,2.58,2.11,3.9,1.36,2.62,2,4a14.12,14.12,0,0,1,1.23,4.39h0a.47.47,0,0,1-.42.5.46.46,0,0,1-.32-.1,13.76,13.76,0,0,1-3.08-3.41q-1.17-1.91-2.21-3.9c-1.34-2.67-2.5-5.43-3.74-8.15q-3.7-8.16-6.8-16.58t-5.41-17.05q-2.33-8.64-4-17.41a.13.13,0,0,1,.26-.06Z"/><path class="cls-1" d="M22.09,180.56q2.23,7.88,5,15.56T33,211.32q3.13,7.52,6.77,14.79c.64,1.2,1.26,2.41,1.91,3.6s1.35,2.35,2,3.56,1.25,2.4,1.8,3.64A12.09,12.09,0,0,1,46.47,241h0a.47.47,0,0,1-.44.49.46.46,0,0,1-.3-.09,11.73,11.73,0,0,1-2.9-3.08c-.73-1.17-1.41-2.36-2-3.57-1.23-2.45-2.3-5-3.44-7.48Q33.89,219.79,31,212.1T25.8,196.52q-2.25-7.87-4-15.9a.13.13,0,0,1,.1-.16A.13.13,0,0,1,22.09,180.56Z"/><path class="cls-1" d="M486.41,93.25q-2.07-9.87-4.94-19.51t-6.42-19q-3.54-9.39-7.86-18.45c-.75-1.5-1.49-3-2.26-4.48s-1.6-2.93-2.35-4.42-1.52-3-2.21-4.49a17.73,17.73,0,0,1-1.52-4.9h0a.46.46,0,0,1,.39-.51.53.53,0,0,1,.35.1,17.48,17.48,0,0,1,3.35,3.93c.87,1.45,1.7,2.93,2.47,4.43,1.51,3,2.82,6.15,4.2,9.24q4.11,9.26,7.44,18.83t5.7,19.41c1.59,6.55,2.89,13.17,3.92,19.81a.13.13,0,0,1-.11.15A.13.13,0,0,1,486.41,93.25Z"/><path class="cls-1" d="M486.41,93.25q-2.07-9.87-4.94-19.51t-6.42-19q-3.54-9.39-7.86-18.45c-.75-1.5-1.49-3-2.26-4.48s-1.6-2.93-2.35-4.42-1.52-3-2.21-4.49a17.73,17.73,0,0,1-1.52-4.9h0a.46.46,0,0,1,.39-.51.53.53,0,0,1,.35.1,17.48,17.48,0,0,1,3.35,3.93c.87,1.45,1.7,2.93,2.47,4.43,1.51,3,2.82,6.15,4.2,9.24q4.11,9.26,7.44,18.83t5.7,19.41c1.59,6.55,2.89,13.17,3.92,19.81a.13.13,0,0,1-.11.15A.13.13,0,0,1,486.41,93.25Z"/><path class="cls-1" d="M475.32,91.55q-2.19-8.64-5-17.09t-6.13-16.67q-3.3-8.24-7.21-16.2c-.68-1.32-1.35-2.63-2.05-3.93s-1.45-2.58-2.11-3.9-1.35-2.62-2-4a13.86,13.86,0,0,1-1.24-4.39h0a.45.45,0,0,1,.73-.4,13.76,13.76,0,0,1,3.08,3.41q1.17,1.91,2.21,3.9c1.34,2.67,2.51,5.43,3.74,8.15q3.7,8.16,6.8,16.58t5.41,17q2.32,8.64,4,17.41a.13.13,0,0,1-.11.15A.13.13,0,0,1,475.32,91.55Z"/><path class="cls-1" d="M464.62,92.46q-2.24-7.86-5-15.56t-5.88-15.2q-3.15-7.52-6.78-14.79c-.63-1.2-1.25-2.41-1.91-3.59s-1.35-2.36-2-3.57-1.24-2.4-1.8-3.64A11.86,11.86,0,0,1,440.25,32h0a.46.46,0,0,1,.43-.49.45.45,0,0,1,.3.09,11.88,11.88,0,0,1,2.9,3.08c.73,1.17,1.41,2.36,2.05,3.57,1.24,2.45,2.3,5,3.45,7.48q3.44,7.47,6.35,15.16t5.18,15.58q2.25,7.89,4,15.9a.13.13,0,0,1-.1.16A.13.13,0,0,1,464.62,92.46Z"/></g><g id="miolo_hélice" data-name="miolo hélice"><circle class="cls-2" cx="250.95" cy="135" r="15.21"/></g><g id="UAV_DESIGN" data-name="UAV DESIGN"><path class="cls-3" d="M261.91,208.26v-16.2h3.42v16.2q0,7.61,7.58,7.61t7.58-7.61v-16.2h3.42v16.2q0,10.38-11,10.38T261.91,208.26Z"/><path class="cls-3" d="M289.94,218.45h-3.55l11.22-26.39h3.79l11.28,26.39h-3.79l-3.42-8.3h-8.75l.95-2.77h6.65l-4.93-12Z"/><path class="cls-3" d="M336.18,192.06,325,218.45h-3.79l-11.28-26.39h3.61l9.69,22.85,9.45-22.85Z"/><path class="cls-3" d="M350.69,218.45V192.06h9.62q13.13,0,13.12,12.47,0,13.92-13.12,13.92Zm9.62-2.77q9.7,0,9.7-11.15,0-9.71-9.7-9.7h-6.2v20.85Z"/><path class="cls-3" d="M394.77,192.06v2.77H380.9v8.86h13.22v2.76H380.9v9.23h14.15v2.77H377.48V192.06Z"/><path class="cls-3" d="M398.91,217.53v-3.14a26.73,26.73,0,0,0,9,1.48q6.83,0,6.82-5c0-2.83-1.67-4.24-5-4.24h-3.4q-8.29,0-8.3-7.2,0-7.56,10.63-7.57a31.89,31.89,0,0,1,8.6,1.11v3.14a24.39,24.39,0,0,0-8.6-1.48q-7.2,0-7.21,4.8,0,4.25,4.88,4.25h3.4q8.46,0,8.46,7.19,0,7.76-10.25,7.76A34.68,34.68,0,0,1,398.91,217.53Z"/><path class="cls-3" d="M426.16,192.06v26.39h-3.42V192.06Z"/><path class="cls-3" d="M452,217.42a19.25,19.25,0,0,1-6.9,1.22q-14.36,0-14.36-13.76,0-13,13.86-13A23.86,23.86,0,0,1,452,193v3a19.75,19.75,0,0,0-7-1.29q-10.82,0-10.81,10.24,0,11,10.65,11a17.91,17.91,0,0,0,3.77-.45v-9H452Z"/><path class="cls-3" d="M456.71,218.45V192.06h3.42l16.18,21.26V192.06h3.24v26.39h-3.42L460,197v21.45Z"/></g><g id="AeroRio"><path class="cls-4" d="M12.23,169.12H0L38.65,78.06H51.7l38.85,91.06H77.49L65.71,140.46H35.59l3.25-9.55H61.77l-17-41.26Z"/><path class="cls-4" d="M304.33,169.12V78.06h38.85q26,0,26,21.84,0,17.77-25.41,26.3L375,169.12H359.48l-29-40.94v-7.71q26.12-4.14,26.11-20.06,0-12.6-14.52-12.61h-26v81.32Z"/><path class="cls-4" d="M177.65,169.12V102.26h8l2.1,8.53a29.27,29.27,0,0,1,21.15-8.53v9.81q-12,0-19.43,8.46v48.59Z"/><path class="cls-4" d="M483.16,121.21a31.93,31.93,0,0,0-18-18,36.61,36.61,0,0,0-13.75-2.54,37.07,37.07,0,0,0-13.81,2.54,31.58,31.58,0,0,0-10.88,7.14,33,33,0,0,0-7.06,10.87,38.46,38.46,0,0,0,0,27.49,33,33,0,0,0,7.06,10.87,31.58,31.58,0,0,0,10.88,7.14,37.11,37.11,0,0,0,13.81,2.53,36.45,36.45,0,0,0,13.75-2.54,32,32,0,0,0,18-18,38.46,38.46,0,0,0,0-27.49ZM476.36,135A29.5,29.5,0,0,1,474.65,145a23.56,23.56,0,0,1-5,8.18,24.28,24.28,0,0,1-7.9,5.51,27.38,27.38,0,0,1-20.74,0,24.28,24.28,0,0,1-7.9-5.51,23.56,23.56,0,0,1-5-8.18,30.39,30.39,0,0,1,0-20.1,23.61,23.61,0,0,1,5-8.17,24.13,24.13,0,0,1,7.9-5.51,27.25,27.25,0,0,1,20.74,0,24.13,24.13,0,0,1,7.9,5.51,23.61,23.61,0,0,1,5,8.17A29.5,29.5,0,0,1,476.36,135Z"/><path class="cls-4" d="M401.22,102.26v66.86H389.44V102.26Z"/><rect class="cls-4" x="389.44" y="85.07" width="11.78" height="11.14"/><path class="cls-4" d="M282.7,121.21a31.93,31.93,0,0,0-18-18A36.65,36.65,0,0,0,251,100.66a37.07,37.07,0,0,0-13.81,2.54,31.58,31.58,0,0,0-10.88,7.14,33,33,0,0,0-7.06,10.87,38.46,38.46,0,0,0,0,27.49,33,33,0,0,0,7.06,10.87,31.58,31.58,0,0,0,10.88,7.14A37.11,37.11,0,0,0,251,169.24a36.4,36.4,0,0,0,13.74-2.54,31.93,31.93,0,0,0,18-18,38.46,38.46,0,0,0,0-27.49ZM274.19,145a23.56,23.56,0,0,1-5,8.18,24.28,24.28,0,0,1-7.9,5.51,27.38,27.38,0,0,1-20.74,0,24.28,24.28,0,0,1-7.9-5.51,23.56,23.56,0,0,1-5-8.18,30.39,30.39,0,0,1,0-20.1,23.61,23.61,0,0,1,5-8.17,24.13,24.13,0,0,1,7.9-5.51,27.25,27.25,0,0,1,20.74,0,24.13,24.13,0,0,1,7.9,5.51,23.61,23.61,0,0,1,5,8.17,30.39,30.39,0,0,1,0,20.1Z"/><path class="cls-4" d="M159.79,130.47q0-28.22-28.52-28.21-30.77,0-30.76,32.66,0,34.2,34.45,34.2a78.6,78.6,0,0,0,21.52-2.55V157a73.26,73.26,0,0,1-20.25,2.55q-23.13,0-23.89-19.17a60.35,60.35,0,0,1,0-11.14h0q1.15-17.58,19-17.58,16.8,0,17.19,17.58H122.18l-3.32,9.8h40.36A69.76,69.76,0,0,0,159.79,130.47Z"/></g><g id="pá_hélice" data-name="pá hélice"><path class="cls-5" d="M444.85,0C433.22-.3,421,1.45,404.34,5.79s-29,9.46-46.81,18.48-27.74,17.13-43.62,30-39,37.45-49.72,46.54c-.63.53-1.24,1-1.86,1.51.8.26,1.59.53,2.37.84a32.74,32.74,0,0,1,10.87,7.13,31.57,31.57,0,0,1,4.4,5.56c.6-.48,1.31-1,2.28-1.84,4.08-3.37,11.83-8.28,20.08-13.25V76.06h41.86c14.8-8.83,33.36-19.92,46.65-27.81C411.44,36,433,22.71,446.47,14.6S456.49.38,444.85,0Z"/><path class="cls-6" d="M219.2,148.7c-.18-.44-.34-.88-.5-1.32-3.47,2.84-7.46,6-9.08,7.33-3.77,3.12-10.66,7.55-18.18,12.13v4.28h-7.13c-6.24,3.7-12.38,7.26-17.09,10-12.34,7.27-45.55,27.22-66.13,39.45S58.92,246.19,45.5,254.32s-10,14.23,1.62,14.56,23.87-1.44,40.51-5.79,29-9.49,46.8-18.53,27.72-17.15,43.59-30.08S217,177,227.7,167.9c.83-.71,2.64-2.31,4.33-3.77a29.88,29.88,0,0,1-5.77-4.56A33,33,0,0,1,219.2,148.7Z"/></g></g></g></svg>