<svg width="446" height="108" viewBox="0 0 446 108" fill="none" xmlns="http://www.w3.org/2000/svg">
<path d="M306.512 33.049C300.464 33.049 294.789 37.6547 293.854 43.3169L290.981 60.696C290.046 66.3582 294.197 70.9639 300.246 70.9639H316.931C322.98 70.9639 328.654 66.3582 329.59 60.696L332.462 43.3169C333.398 37.6547 329.246 33.049 323.198 33.049H306.512ZM307.117 39.8827H320.334C322.031 39.8827 323.191 41.2726 322.911 42.97L319.924 61.0429C319.643 62.7403 318.024 64.1302 316.326 64.1302H303.11C301.412 64.1302 300.252 62.7403 300.533 61.0429L303.52 42.97C303.8 41.2726 305.42 39.8827 307.117 39.8827Z" fill="black"/>
<path d="M250.907 33.0489L244.641 70.9639H254.007L259.155 39.8133H277.471C279.269 39.8133 280.49 41.2759 280.193 43.074L279.791 45.5023C279.494 47.3004 277.79 48.763 275.992 48.763H266.556C266.025 48.8072 265.501 48.9979 265.002 49.3527C263.671 50.2991 263.197 52.0289 263.949 53.2032L275.306 70.9639H284.533L274.301 55.007H277.145C279.401 55.0333 281.811 54.3182 283.964 52.7869C286.684 50.8527 288.447 48.0451 289.001 45.1901L289.356 43.0393C289.695 40.8448 289.312 38.6359 288.133 36.7953C286.568 34.3522 283.922 33.0829 281.017 33.0489H250.907Z" fill="black"/>
<path opacity="0.397683" d="M289.35 43.074L288.994 45.2247L289.35 43.074Z" fill="#0000FF"/>
<path d="M127.206 33.049L120.939 70.9639H130.514L134.94 44.1841L144.734 61.5286L160.309 44.1147L155.871 70.9639H165.411L171.677 33.049H161.652L146.678 49.769L137.231 33.049H127.206Z" fill="black"/>
<path d="M186.662 33.049C181.384 33.049 176.378 37.3456 175.505 42.6231L172.398 61.4245C171.526 66.702 175.118 70.9639 180.396 70.9639H205.649L206.773 64.1649H183.809C182.375 64.1649 181.394 63.0322 181.631 61.5979L182.658 55.3886H208.223L209.341 48.6243H183.776L184.802 42.415C185.039 40.9807 186.399 39.8133 187.833 39.8133H210.798L211.915 33.049H186.662Z" fill="black"/>
<path d="M215.732 33.0489L214.637 39.6745H225.39L220.219 70.9639H229.724L234.895 39.6745H245.649L246.744 33.0489H215.732Z" fill="black"/>
<path d="M317.108 19.4162L305.281 24.238L304.403 29.5454L316.237 24.6889L326.465 29.5454L327.343 24.238L317.108 19.4162Z" fill="black"/>
<path d="M348.243 33.049L341.977 70.9639H351.343L356.491 39.8133H374.807C376.605 39.8133 377.826 41.2759 377.529 43.074L377.127 45.5023C376.83 47.3004 375.126 48.763 373.328 48.763H363.892C363.361 48.8072 362.837 48.9979 362.338 49.3527C361.007 50.2991 360.533 52.0289 361.285 53.2032L372.642 70.9639H381.869L371.636 55.007H374.481C376.737 55.0333 379.147 54.3182 381.3 52.7869C384.02 50.8527 385.783 48.0451 386.337 45.1901L386.692 43.0394C387.031 40.8448 386.648 38.6359 385.469 36.7954C383.904 34.3522 381.257 33.0829 378.353 33.049H348.243Z" fill="#2674AE"/>
<path d="M419.919 33.0489C413.87 33.0489 408.196 37.6547 407.26 43.3169L404.388 60.696C403.452 66.3582 407.604 70.9639 413.652 70.9639H430.338C436.386 70.9639 442.061 66.3582 442.996 60.696L445.869 43.3169C446.804 37.6547 442.653 33.0489 436.604 33.0489H419.919ZM420.524 39.8827H433.74C435.437 39.8827 436.598 41.2726 436.317 42.97L433.33 61.0429C433.05 62.7403 431.43 64.1302 429.733 64.1302H416.516C414.819 64.1302 413.659 62.7403 413.939 61.0429L416.926 42.97C417.207 41.2726 418.826 39.8827 420.524 39.8827Z" fill="#2674AE"/>
<path d="M393.096 33.0489L386.83 70.9639H396.335L402.601 33.0489H393.096Z" fill="#2674AE"/>
<path d="M53.5474 107.432C83.1207 107.432 107.095 83.4578 107.095 53.8845C107.095 24.3111 83.1207 0.337097 53.5474 0.337097C23.974 0.337097 0 24.3111 0 53.8845C0 83.4578 23.974 107.432 53.5474 107.432Z" fill="#0F80BF"/>
<path d="M23.7568 27.5647L15.3135 79.281H31.4289L36.0143 50.1899L47.3926 70.6513L65.2004 50.1899L60.3957 79.281H76.1712C76.3498 78.9983 76.4854 78.7704 76.6698 78.5103C83.1361 69.6388 92.1315 62.9171 102.486 59.2327C93.7449 60.1015 85.3421 63.0669 77.9915 67.877L84.4282 27.5647H66.5363L50.2985 46.8089L39.3733 27.5647H23.7568Z" fill="white"/>
</svg>
