<?xml version="1.0" encoding="utf-8"?>
<!-- Generator: Adobe Illustrator 25.0.1, SVG Export Plug-In . SVG Version: 6.00 Build 0)  -->
<svg version="1.1" id="Layer_1" xmlns="http://www.w3.org/2000/svg" xmlns:xlink="http://www.w3.org/1999/xlink" x="0px" y="0px"
	 viewBox="0 0 358.1 166.7" style="enable-background:new 0 0 358.1 166.7;" xml:space="preserve">
<style type="text/css">
	.st0{fill:#F6D5A3;}
	.st1{stroke:#000000;stroke-miterlimit:10;}
	.st2{fill:#C44547;}
	.st3{fill:#E9B16E;}
	.st4{opacity:0.3;}
	.st5{fill:none;stroke:#4C8DB0;stroke-miterlimit:10;}
	.st6{fill:#4C8DB0;}
	.st7{fill:#E08164;}
	.st8{fill:#89568D;}
	.st9{fill:#5AAC93;}
</style>
<g>
	<path d="M86.9,40.6l-2.9-2L64.8,25.8l-0.1-3.6h-0.3l-7.1,19l-0.1-22.7l-2.9,0.8l-0.8-2.7c1.8-1,3-2.5,2.6-3.8
		c-0.3-1.3-2.1-2.1-4.1-2l-0.6-2.3c0.3-0.6,0.4-1.2,0.2-1.8c-0.3-1.3-1.5-2-2.8-1.9v0c-0.1,0-0.2,0-0.3,0.1h-0.1
		c-0.1,0-0.2,0.1-0.3,0.1v0c-1.2,0.5-1.8,1.8-1.5,3c0.2,0.6,0.6,1.2,1.1,1.5l0.6,2.2c-1.8,1-2.9,2.5-2.6,3.8c0.4,1.3,2.1,2.1,4.1,2
		l0.8,2.7l-7.2,2l-0.1,3.7L18.5,44.5L5.8,53.1c0,0,0,0.1,0,0.1c0.7,2.1,3.8,4.1,8.6,5.8l17,34.2l-3,5.6l-0.7,33.9h10.7v3.8h4.9v3.8
		h5v20.4h12v-20.3h4.1v-3.8h4.9v-3.8h7.9l11.4-43.5L91,55.1c4.9-1.6,7.9-3.6,8.6-5.8c0,0,0-0.1,0-0.1L86.9,40.6z M31.1,129l1.7-36.3
		L20.8,60.1c4-0.7,8.2-1.2,12.6-1.6l6.1,32.2l0.9,38.4H31.1z M63.8,129L63.8,129l-14.7,0v0h-4.8l-1.1-38.2l-6.2-32
		c1.9,0.2,6.8,0.4,10.8,0.5c2.1,0,3.9,0.2,5,0.2h5.5c4.5-0.1,8.8-0.3,12.8-0.7l0.6,30.4L63.8,129z M84.4,89.2l-10.5,39.8h-6.2
		l7.6-39.8l-0.7-30.7c4.3-0.5,8.2-1.2,11.6-2L84.4,89.2z"/>
	<g>
		<path d="M127.2,18.9v-1.7h11.6c6.6,0,7.6,5.9,7.6,11.6c0,3.2-0.3,5.7-1.3,7.5c-1.5,2.4-3.7,3-4.6,3.2v0.4c3.4,0.2,4,3.3,4.2,4.6
			l1.2,9.9c0.3,2.1,1,6,3.4,6h0.7v1.7c-0.9,0.4-2.1,0.7-3.3,0.7c-4.2,0-4.9-3.8-5.3-6.9l-1.4-10.9c-0.2-1.6-0.6-4.4-2.5-4.4h-2.3
			v19.8h2.7v1.7h-10.6v-1.7h2.8V18.9H127.2z M135.1,39h2.6c2.9,0,3.6-3.6,3.6-7.7v-4.6c0-3.1-0.3-7.9-3.8-7.9h-2.3V39z"/>
		<path d="M169.3,17.2v9.3h-3.6v-7.5H159v18.1h5.1v-3.4h3.2v8.7h-3.2v-3.4H159v21.2h7.3v-9.5h3.6v11.4h-18.8v-1.7h2.8V18.9h-2.8
			v-1.7H169.3z"/>
		<path d="M181.6,17.2v1.7h-3.3l5.7,32.6h0.4l5.9-32.6h-3.2v-1.7h8.7v1.7h-3.2l-7.8,43.3h-3.6l-8.1-43.3H170v-1.7H181.6z"/>
		<path d="M215.3,22.4c2.1,4.1,2.5,9.1,2.5,13.6v7.3c0,8.3-1.7,12.1-2.5,13.6c-1.7,3.3-4.6,5.9-8.4,5.9c-2.7,0-6-1.3-8.4-5.9
			c-2.1-4.1-2.5-9.1-2.5-13.6V36c0-8.3,1.7-12.1,2.5-13.6c2.4-4.6,5.7-5.9,8.4-5.9S212.9,17.8,215.3,22.4z M202.5,23.2
			c-0.7,2.8-0.8,5.9-0.8,13.3v6.4c0,6.3,0.1,10.1,0.8,13.3c0.4,1.6,1.6,5.2,4.4,5.2c2.8,0,3.9-2.8,4.4-5.2c0.7-3.2,0.8-7,0.8-13.3
			v-6.4c0-4.4,0-10.1-0.8-13.3c-1.1-4.5-3.2-5.2-4.4-5.2C204.5,18,203.3,19.8,202.5,23.2z"/>
		<path d="M221.7,17.2h10.9v1.7h-3v41.4h6.9v-9.5h3.6v11.4h-18.4v-1.7h2.8V18.9h-2.8V17.2z"/>
		<path d="M243,62.2v-1.7h2.8V19.1h-4.5v7.5h-3.6v-9.3h21.2v9.3h-3.6v-7.5h-4.5v41.4h2.8v1.7H243z"/>
		<path d="M264.4,48.7l-2.3,11.8h3v1.7h-8v-1.7h2.4l9.1-44h1.7l9.9,44h2.3v1.7h-10.4v-1.7h3l-2.6-11.8H264.4z M268.6,30v-0.9h-0.5
			L268,30l-3.2,16.7h7.4L268.6,30z"/>
	</g>
	<path d="M140.9,83.7v2.9h-5.6l9.8,56h0.7l10.1-56h-5.5v-2.9h14.9v2.9h-5.5l-13.4,74.2h-6.1l-13.8-74.2h-5.3v-2.9H140.9z"/>
	<path d="M170.7,137.7l-3.9,20.2h5.2v2.9h-13.7v-2.9h4.1l15.5-75.4h3l16.9,75.4h4v2.9H184v-2.9h5.2l-4.4-20.2H170.7z M177.9,105.5
		V104H177l-0.1,1.5l-5.5,28.6H184L177.9,105.5z"/>
	<path d="M254.5,157.8h4.8v2.9h-18.4v-2.9h4.8V86.5h-4.8v-2.9h18.4v2.9h-4.8V157.8z"/>
	<path d="M277.2,83.7l21.5,57h0.5V86.5h-4.8v-2.9h13.5v2.9H303v74.2h-5.8l-24-63.6h-0.5v60.7h4.8v2.9h-13.5v-2.9h4.8V86.5h-4.8v-2.9
		H277.2z"/>
	<path d="M321.2,137.7l-3.9,20.2h5.2v2.9h-13.7v-2.9h4.1l15.5-75.4h3l16.9,75.4h4v2.9h-17.8v-2.9h5.2l-4.4-20.2H321.2z M328.4,105.5
		V104h-0.9l-0.1,1.5l-5.5,28.6h12.7L328.4,105.5z"/>
	<path d="M236.1,109.9V102c0-8.4-4.6-19.6-15.2-19.6c-7.6,0-11.6,5.6-13.1,8.3c-3.8,6.8-4.2,16.1-4.2,24.2v7.3v7.3
		c0,8.1,0.3,17.4,4.2,24.2c1.5,2.7,5.5,8.3,13.1,8.3c10.6,0,15.2-11.2,15.2-19.6v-7.9h-7.7v8.8c0,3.4-0.1,7-1,10.2
		c-1.4,4.8-4.2,5.9-6.1,5.9c-5.9,0-6.8-6.3-7.2-11.2c-0.7-7.8-0.7-17.3-0.7-19.5v-6.5v-6.5c0-2.2,0-11.6,0.7-19.5
		c0.5-4.8,1.4-11.2,7.2-11.2c1.9,0,4.7,1,6.1,5.9c0.9,3.2,1,6.8,1,10.2v8.8H236.1z"/>
	<g>
		<g>
			<path d="M309.7,27.4c2.5,0,4.2,0.9,5.3,2.8c0.7,1.2,1.3,3.1,1.2,7.3l0,3.9c-0.1,4.3-0.7,6.1-1.4,7.2c-1.7,2.6-4.3,2.7-5.4,2.7
				l-5.1-0.1l0-0.9l1.5,0l0.3-22.1l-1.5,0l0-0.9L309.7,27.4z M308.5,50.3l1,0c1.6,0,2.5-0.8,3.1-2c0.5-1,0.6-2.7,0.6-7.1l0-3.8
				c0-2,0.1-5.6-0.4-6.8c-0.7-1.9-2-2.3-3.2-2.3l-1,0L308.5,50.3z"/>
			<path d="M320.9,44.3l-1.3,6.2l1.6,0l0,0.9l-4.3-0.1l0-0.9l1.3,0l5.1-23.3l0.9,0l5,23.5l1.3,0l0,0.9l-5.5-0.1l0-0.9l1.6,0
				l-1.3-6.3L320.9,44.3z M323.3,34.4l0-0.5l-0.3,0l0,0.5l-1.8,8.8l3.9,0L323.3,34.4z"/>
		</g>
		<rect x="304.3" y="59.9" width="26.2" height="2.3"/>
		<rect x="304.3" y="17.2" width="26.2" height="2.3"/>
	</g>
</g>
</svg>
