<svg width="1042" height="143" viewBox="0 0 1042 143" fill="none" xmlns="http://www.w3.org/2000/svg">
<path d="M0 76.5957C0 54.5043 17.9086 36.5957 40 36.5957L520.909 36.5957V142.904H40C17.9086 142.904 0 124.995 0 102.904L0 76.5957Z" fill="#336699"/>
<path d="M520.909 36.5959L1001.29 36.5959C1023.38 36.5959 1041.29 54.5046 1041.29 76.596V102.904C1041.29 124.995 1023.38 142.904 1001.29 142.904H520.909V36.5959Z" fill="#CC6633"/>
<line x1="521.5" y1="36.5959" x2="521.5" y2="91.3446" stroke="white" stroke-width="9"/>
<line x1="34.7976" y1="36.5959" x2="34.7976" y2="91.3446" stroke="white" stroke-width="9"/>
<line x1="549.86" y1="36.5959" x2="549.86" y2="91.3446" stroke="white" stroke-width="9"/>
<line x1="61.9062" y1="36.5959" x2="61.9062" y2="91.3446" stroke="white" stroke-width="9"/>
<line x1="576.969" y1="36.5959" x2="576.969" y2="91.3446" stroke="white" stroke-width="9"/>
<line x1="89.0149" y1="36.5959" x2="89.0149" y2="91.3446" stroke="white" stroke-width="9"/>
<line x1="604.077" y1="36.5959" x2="604.077" y2="91.3446" stroke="white" stroke-width="9"/>
<line x1="116.123" y1="36.5959" x2="116.123" y2="91.3446" stroke="white" stroke-width="9"/>
<line x1="631.186" y1="36.5959" x2="631.186" y2="91.3446" stroke="white" stroke-width="9"/>
<line x1="143.232" y1="36.5959" x2="143.232" y2="91.3446" stroke="white" stroke-width="9"/>
<line x1="658.294" y1="36.5959" x2="658.294" y2="91.3446" stroke="white" stroke-width="9"/>
<line x1="170.341" y1="36.5959" x2="170.341" y2="91.3446" stroke="white" stroke-width="9"/>
<line x1="685.403" y1="36.5959" x2="685.403" y2="91.3446" stroke="white" stroke-width="9"/>
<line x1="197.449" y1="36.5959" x2="197.449" y2="91.3446" stroke="white" stroke-width="9"/>
<line x1="712.511" y1="36.5959" x2="712.511" y2="91.3446" stroke="white" stroke-width="9"/>
<line x1="224.557" y1="36.5959" x2="224.557" y2="91.3446" stroke="white" stroke-width="9"/>
<line x1="739.62" y1="36.5959" x2="739.62" y2="91.3446" stroke="white" stroke-width="9"/>
<line x1="251.666" y1="36.5959" x2="251.666" y2="91.3446" stroke="white" stroke-width="9"/>
<line x1="766.729" y1="36.5959" x2="766.729" y2="91.3446" stroke="white" stroke-width="9"/>
<line x1="278.775" y1="36.5959" x2="278.775" y2="91.3446" stroke="white" stroke-width="9"/>
<line x1="793.837" y1="36.5959" x2="793.837" y2="91.3446" stroke="white" stroke-width="9"/>
<line x1="305.883" y1="36.5959" x2="305.883" y2="91.3446" stroke="white" stroke-width="9"/>
<line x1="820.946" y1="36.5959" x2="820.946" y2="91.3446" stroke="white" stroke-width="9"/>
<line x1="332.992" y1="36.5959" x2="332.992" y2="91.3446" stroke="white" stroke-width="9"/>
<line x1="848.054" y1="36.5959" x2="848.054" y2="91.3446" stroke="white" stroke-width="9"/>
<line x1="360.1" y1="36.5959" x2="360.1" y2="91.3446" stroke="white" stroke-width="9"/>
<line x1="875.163" y1="36.5959" x2="875.163" y2="91.3446" stroke="white" stroke-width="9"/>
<line x1="387.209" y1="36.5959" x2="387.209" y2="91.3446" stroke="white" stroke-width="9"/>
<line x1="902.271" y1="36.5959" x2="902.271" y2="91.3446" stroke="white" stroke-width="9"/>
<line x1="414.318" y1="36.5959" x2="414.318" y2="91.3446" stroke="white" stroke-width="9"/>
<line x1="929.38" y1="36.5959" x2="929.38" y2="91.3446" stroke="white" stroke-width="9"/>
<line x1="441.426" y1="36.5959" x2="441.426" y2="91.3446" stroke="white" stroke-width="9"/>
<line x1="956.489" y1="36.5959" x2="956.489" y2="91.3446" stroke="white" stroke-width="9"/>
<line x1="468.535" y1="36.5959" x2="468.535" y2="91.3446" stroke="white" stroke-width="9"/>
<line x1="1010.71" y1="36.5959" x2="1010.71" y2="91.3446" stroke="white" stroke-width="9"/>
<line x1="983.597" y1="36.5959" x2="983.597" y2="91.3446" stroke="white" stroke-width="9"/>
<line x1="495.643" y1="36.5959" x2="495.643" y2="91.3446" stroke="white" stroke-width="9"/>
<path d="M527.773 118.296C527.773 119.837 527.645 121.24 527.39 122.507C527.135 123.774 526.729 124.859 526.173 125.761C525.617 126.663 524.906 127.361 524.04 127.853C523.174 128.345 522.131 128.591 520.909 128.591C519.633 128.591 518.558 128.345 517.683 127.853C516.808 127.361 516.097 126.663 515.55 125.761C515.012 124.859 514.625 123.774 514.388 122.507C514.151 121.231 514.032 119.818 514.032 118.269C514.032 116.719 514.151 115.316 514.388 114.058C514.625 112.8 515.012 111.725 515.55 110.831C516.097 109.938 516.808 109.25 517.683 108.767C518.567 108.284 519.652 108.042 520.937 108.042C522.149 108.042 523.188 108.284 524.054 108.767C524.92 109.25 525.626 109.938 526.173 110.831C526.729 111.725 527.135 112.805 527.39 114.072C527.645 115.329 527.773 116.738 527.773 118.296ZM518.366 118.296C518.366 119.636 518.403 120.83 518.476 121.878C518.549 122.926 518.676 123.815 518.859 124.544C519.05 125.264 519.31 125.816 519.638 126.198C519.966 126.581 520.39 126.773 520.909 126.773C521.429 126.773 521.853 126.581 522.181 126.198C522.509 125.816 522.764 125.264 522.946 124.544C523.138 123.815 523.265 122.926 523.329 121.878C523.402 120.83 523.439 119.636 523.439 118.296C523.439 116.956 523.402 115.767 523.329 114.728C523.265 113.68 523.142 112.795 522.96 112.075C522.778 111.355 522.523 110.809 522.195 110.435C521.866 110.052 521.447 109.861 520.937 109.861C520.417 109.861 519.989 110.052 519.652 110.435C519.323 110.809 519.064 111.355 518.872 112.075C518.681 112.795 518.549 113.68 518.476 114.728C518.403 115.767 518.366 116.956 518.366 118.296Z" fill="white"/>
<path d="M601.21 128.591C600.153 128.591 599.241 128.5 598.476 128.318C597.719 128.135 597.095 127.889 596.602 127.579C596.119 127.269 595.759 126.914 595.522 126.513C595.295 126.103 595.181 125.679 595.181 125.241C595.181 124.886 595.244 124.572 595.372 124.298C595.5 124.025 595.673 123.797 595.892 123.615C596.11 123.423 596.361 123.282 596.644 123.191C596.935 123.1 597.241 123.054 597.56 123.054C597.56 123.646 597.642 124.166 597.806 124.613C597.979 125.059 598.216 125.433 598.517 125.734C598.817 126.034 599.177 126.262 599.597 126.417C600.025 126.563 600.494 126.636 601.005 126.636C601.461 126.636 601.894 126.572 602.304 126.445C602.723 126.317 603.092 126.098 603.411 125.788C603.73 125.478 603.981 125.059 604.163 124.531C604.354 123.993 604.45 123.323 604.45 122.521C604.45 121.983 604.354 121.491 604.163 121.044C603.981 120.598 603.703 120.215 603.329 119.896C602.964 119.568 602.513 119.312 601.976 119.13C601.438 118.948 600.818 118.857 600.116 118.857H598.38V117.12H600.226C600.827 117.12 601.351 117.025 601.798 116.833C602.244 116.633 602.614 116.35 602.905 115.986C603.197 115.621 603.416 115.188 603.561 114.687C603.707 114.176 603.78 113.616 603.78 113.005C603.78 111.984 603.584 111.187 603.192 110.613C602.8 110.038 602.222 109.751 601.456 109.751C600.955 109.751 600.545 109.874 600.226 110.12C599.916 110.366 599.674 110.695 599.501 111.105C599.328 111.515 599.209 111.98 599.145 112.499C599.082 113.019 599.05 113.552 599.05 114.099C597.883 114.099 596.985 113.898 596.356 113.497C595.727 113.087 595.413 112.454 595.413 111.597C595.413 111.105 595.541 110.644 595.796 110.216C596.06 109.779 596.452 109.4 596.972 109.081C597.491 108.753 598.134 108.498 598.899 108.316C599.674 108.133 600.572 108.042 601.593 108.042C602.586 108.042 603.479 108.142 604.272 108.343C605.074 108.544 605.754 108.84 606.31 109.232C606.875 109.624 607.308 110.102 607.608 110.667C607.909 111.232 608.06 111.879 608.06 112.609C608.06 113.238 607.95 113.816 607.731 114.345C607.513 114.874 607.212 115.348 606.829 115.767C606.446 116.186 605.995 116.555 605.476 116.874C604.956 117.184 604.391 117.444 603.78 117.654C604.345 117.754 604.92 117.918 605.503 118.146C606.095 118.365 606.633 118.665 607.116 119.048C607.599 119.431 607.996 119.909 608.306 120.484C608.616 121.058 608.77 121.746 608.77 122.548C608.77 123.687 608.556 124.644 608.128 125.419C607.709 126.194 607.144 126.818 606.433 127.292C605.731 127.757 604.924 128.09 604.013 128.29C603.11 128.491 602.176 128.591 601.21 128.591Z" fill="white"/>
<path d="M439.09 128.591C438.033 128.591 437.121 128.5 436.356 128.318C435.599 128.135 434.975 127.889 434.483 127.579C434 127.269 433.64 126.914 433.403 126.513C433.175 126.103 433.061 125.679 433.061 125.241C433.061 124.886 433.125 124.572 433.252 124.298C433.38 124.025 433.553 123.797 433.772 123.615C433.99 123.423 434.241 123.282 434.524 123.191C434.815 123.1 435.121 123.054 435.44 123.054C435.44 123.646 435.522 124.166 435.686 124.613C435.859 125.059 436.096 125.433 436.397 125.734C436.697 126.034 437.057 126.262 437.477 126.417C437.905 126.563 438.375 126.636 438.885 126.636C439.341 126.636 439.774 126.572 440.184 126.445C440.603 126.317 440.972 126.098 441.291 125.788C441.61 125.478 441.861 125.059 442.043 124.531C442.235 123.993 442.33 123.323 442.33 122.521C442.33 121.983 442.235 121.491 442.043 121.044C441.861 120.598 441.583 120.215 441.209 119.896C440.845 119.568 440.393 119.312 439.856 119.13C439.318 118.948 438.698 118.857 437.996 118.857H436.26V117.12H438.106C438.707 117.12 439.231 117.025 439.678 116.833C440.125 116.633 440.494 116.35 440.785 115.986C441.077 115.621 441.296 115.188 441.442 114.687C441.587 114.176 441.66 113.616 441.66 113.005C441.66 111.984 441.464 111.187 441.072 110.613C440.681 110.038 440.102 109.751 439.336 109.751C438.835 109.751 438.425 109.874 438.106 110.12C437.796 110.366 437.554 110.695 437.381 111.105C437.208 111.515 437.089 111.98 437.026 112.499C436.962 113.019 436.93 113.552 436.93 114.099C435.763 114.099 434.865 113.898 434.237 113.497C433.608 113.087 433.293 112.454 433.293 111.597C433.293 111.105 433.421 110.644 433.676 110.216C433.94 109.779 434.332 109.4 434.852 109.081C435.371 108.753 436.014 108.498 436.779 108.316C437.554 108.133 438.452 108.042 439.473 108.042C440.466 108.042 441.36 108.142 442.153 108.343C442.955 108.544 443.634 108.84 444.19 109.232C444.755 109.624 445.188 110.102 445.488 110.667C445.789 111.232 445.94 111.879 445.94 112.609C445.94 113.238 445.83 113.816 445.612 114.345C445.393 114.874 445.092 115.348 444.709 115.767C444.326 116.186 443.875 116.555 443.356 116.874C442.836 117.184 442.271 117.444 441.66 117.654C442.225 117.754 442.8 117.918 443.383 118.146C443.975 118.365 444.513 118.665 444.996 119.048C445.479 119.431 445.876 119.909 446.186 120.484C446.496 121.058 446.651 121.746 446.651 122.548C446.651 123.687 446.436 124.644 446.008 125.419C445.589 126.194 445.024 126.818 444.313 127.292C443.611 127.757 442.804 128.09 441.893 128.29C440.99 128.491 440.056 128.591 439.09 128.591Z" fill="white"/>
<path d="M684.709 109.697C684.163 109.697 683.666 109.861 683.219 110.189C682.782 110.517 682.399 110.995 682.071 111.624C681.752 112.253 681.497 113.028 681.305 113.948C681.114 114.86 680.991 115.908 680.936 117.093C681.127 116.965 681.346 116.842 681.592 116.724C681.838 116.596 682.116 116.482 682.426 116.382C682.745 116.282 683.101 116.204 683.493 116.15C683.894 116.086 684.331 116.054 684.805 116.054C685.653 116.054 686.418 116.186 687.102 116.45C687.795 116.715 688.383 117.098 688.866 117.599C689.358 118.091 689.736 118.697 690 119.417C690.265 120.128 690.397 120.939 690.397 121.851C690.397 122.853 690.26 123.769 689.987 124.599C689.713 125.419 689.303 126.126 688.756 126.718C688.219 127.31 687.544 127.771 686.733 128.099C685.931 128.427 684.997 128.591 683.93 128.591C682.891 128.591 681.943 128.404 681.086 128.031C680.239 127.648 679.51 127.064 678.899 126.281C678.297 125.497 677.828 124.508 677.491 123.314C677.153 122.12 676.985 120.707 676.985 119.075C676.985 117.535 677.144 116.095 677.463 114.755C677.791 113.415 678.284 112.249 678.94 111.255C679.605 110.262 680.439 109.478 681.442 108.904C682.444 108.329 683.62 108.042 684.969 108.042C685.872 108.042 686.637 108.129 687.266 108.302C687.895 108.475 688.405 108.708 688.797 108.999C689.189 109.282 689.472 109.61 689.645 109.984C689.827 110.348 689.918 110.731 689.918 111.132C689.918 111.415 689.859 111.688 689.741 111.952C689.622 112.217 689.431 112.449 689.166 112.65C688.902 112.85 688.556 113.01 688.127 113.128C687.708 113.247 687.189 113.306 686.569 113.306C686.569 112.887 686.541 112.463 686.487 112.034C686.432 111.606 686.336 111.219 686.2 110.872C686.063 110.526 685.872 110.243 685.625 110.025C685.388 109.806 685.083 109.697 684.709 109.697ZM683.766 117.763C683.511 117.763 683.242 117.804 682.959 117.886C682.677 117.959 682.403 118.059 682.139 118.187C681.884 118.314 681.647 118.46 681.428 118.624C681.219 118.779 681.054 118.939 680.936 119.103C680.945 120.443 681.027 121.596 681.182 122.562C681.346 123.528 681.565 124.321 681.838 124.941C682.121 125.56 682.444 126.016 682.809 126.308C683.183 126.6 683.584 126.745 684.012 126.745C684.732 126.745 685.297 126.381 685.707 125.652C686.127 124.913 686.336 123.738 686.336 122.124C686.336 120.611 686.109 119.508 685.653 118.816C685.197 118.114 684.568 117.763 683.766 117.763Z" fill="white"/>
<path d="M359.407 109.697C358.86 109.697 358.363 109.861 357.916 110.189C357.479 110.517 357.096 110.995 356.768 111.624C356.449 112.253 356.194 113.028 356.002 113.948C355.811 114.86 355.688 115.908 355.633 117.093C355.825 116.965 356.043 116.842 356.289 116.724C356.536 116.596 356.814 116.482 357.123 116.382C357.442 116.282 357.798 116.204 358.19 116.15C358.591 116.086 359.028 116.054 359.502 116.054C360.35 116.054 361.116 116.186 361.799 116.45C362.492 116.715 363.08 117.098 363.563 117.599C364.055 118.091 364.433 118.697 364.698 119.417C364.962 120.128 365.094 120.939 365.094 121.851C365.094 122.853 364.957 123.769 364.684 124.599C364.411 125.419 364 126.126 363.454 126.718C362.916 127.31 362.241 127.771 361.43 128.099C360.628 128.427 359.694 128.591 358.627 128.591C357.588 128.591 356.64 128.404 355.784 128.031C354.936 127.648 354.207 127.064 353.596 126.281C352.995 125.497 352.525 124.508 352.188 123.314C351.851 122.12 351.682 120.707 351.682 119.075C351.682 117.535 351.842 116.095 352.161 114.755C352.489 113.415 352.981 112.249 353.637 111.255C354.303 110.262 355.137 109.478 356.139 108.904C357.142 108.329 358.317 108.042 359.666 108.042C360.569 108.042 361.334 108.129 361.963 108.302C362.592 108.475 363.103 108.708 363.495 108.999C363.887 109.282 364.169 109.61 364.342 109.984C364.525 110.348 364.616 110.731 364.616 111.132C364.616 111.415 364.556 111.688 364.438 111.952C364.319 112.217 364.128 112.449 363.864 112.65C363.599 112.85 363.253 113.01 362.825 113.128C362.405 113.247 361.886 113.306 361.266 113.306C361.266 112.887 361.239 112.463 361.184 112.034C361.129 111.606 361.034 111.219 360.897 110.872C360.76 110.526 360.569 110.243 360.323 110.025C360.086 109.806 359.78 109.697 359.407 109.697ZM358.463 117.763C358.208 117.763 357.939 117.804 357.657 117.886C357.374 117.959 357.101 118.059 356.836 118.187C356.581 118.314 356.344 118.46 356.125 118.624C355.916 118.779 355.752 118.939 355.633 119.103C355.642 120.443 355.724 121.596 355.879 122.562C356.043 123.528 356.262 124.321 356.536 124.941C356.818 125.56 357.142 126.016 357.506 126.308C357.88 126.6 358.281 126.745 358.709 126.745C359.429 126.745 359.995 126.381 360.405 125.652C360.824 124.913 361.034 123.738 361.034 122.124C361.034 120.611 360.806 119.508 360.35 118.816C359.894 118.114 359.265 117.763 358.463 117.763Z" fill="white"/>
<path d="M760.752 128.591C759.904 128.591 759.189 128.5 758.606 128.318C758.022 128.144 757.548 127.912 757.184 127.62C756.819 127.32 756.555 126.982 756.391 126.609C756.236 126.226 756.158 125.834 756.158 125.433C756.158 125.023 756.268 124.681 756.487 124.407C756.705 124.125 757.052 123.934 757.526 123.833C757.662 124.253 757.826 124.644 758.018 125.009C758.209 125.374 758.437 125.693 758.701 125.966C758.975 126.23 759.289 126.44 759.645 126.595C760.009 126.75 760.424 126.827 760.889 126.827C762.147 126.827 763.113 126.148 763.787 124.79C764.471 123.432 764.858 121.409 764.949 118.72C764.731 118.993 764.485 119.244 764.211 119.472C763.947 119.7 763.646 119.9 763.309 120.073C762.972 120.247 762.598 120.383 762.188 120.484C761.787 120.575 761.345 120.62 760.862 120.62C760.059 120.62 759.321 120.497 758.647 120.251C757.981 119.996 757.403 119.627 756.91 119.144C756.427 118.652 756.049 118.045 755.776 117.325C755.511 116.596 755.379 115.762 755.379 114.823C755.379 113.812 755.525 112.891 755.817 112.062C756.108 111.232 756.528 110.521 757.074 109.929C757.63 109.327 758.305 108.863 759.098 108.534C759.891 108.206 760.789 108.042 761.791 108.042C762.803 108.042 763.737 108.225 764.594 108.589C765.451 108.954 766.189 109.519 766.809 110.284C767.438 111.05 767.925 112.025 768.272 113.21C768.618 114.395 768.791 115.808 768.791 117.448C768.791 118.989 768.641 120.438 768.34 121.796C768.039 123.145 767.565 124.325 766.918 125.337C766.28 126.34 765.451 127.133 764.43 127.716C763.418 128.299 762.192 128.591 760.752 128.591ZM762.065 118.597C762.739 118.597 763.318 118.428 763.801 118.091C764.284 117.745 764.667 117.289 764.949 116.724C764.94 115.53 764.858 114.504 764.703 113.648C764.557 112.791 764.352 112.089 764.088 111.542C763.833 110.986 763.523 110.576 763.158 110.312C762.794 110.047 762.393 109.915 761.955 109.915C761.153 109.915 760.533 110.312 760.096 111.105C759.658 111.889 759.44 113.073 759.44 114.659C759.44 115.954 759.658 116.934 760.096 117.599C760.533 118.264 761.19 118.597 762.065 118.597Z" fill="white"/>
<path d="M277.051 128.591C276.203 128.591 275.488 128.5 274.904 128.318C274.321 128.144 273.847 127.912 273.482 127.62C273.118 127.32 272.853 126.982 272.689 126.609C272.534 126.226 272.457 125.834 272.457 125.433C272.457 125.023 272.566 124.681 272.785 124.407C273.004 124.125 273.35 123.934 273.824 123.833C273.961 124.253 274.125 124.644 274.316 125.009C274.508 125.374 274.736 125.693 275 125.966C275.273 126.23 275.588 126.44 275.943 126.595C276.308 126.75 276.723 126.827 277.187 126.827C278.445 126.827 279.411 126.148 280.086 124.79C280.769 123.432 281.157 121.409 281.248 118.72C281.029 118.993 280.783 119.244 280.51 119.472C280.245 119.7 279.945 119.9 279.607 120.073C279.27 120.247 278.896 120.383 278.486 120.484C278.085 120.575 277.643 120.62 277.16 120.62C276.358 120.62 275.62 120.497 274.945 120.251C274.28 119.996 273.701 119.627 273.209 119.144C272.726 118.652 272.348 118.045 272.074 117.325C271.81 116.596 271.678 115.762 271.678 114.823C271.678 113.812 271.824 112.891 272.115 112.062C272.407 111.232 272.826 110.521 273.373 109.929C273.929 109.327 274.603 108.863 275.396 108.534C276.189 108.206 277.087 108.042 278.09 108.042C279.102 108.042 280.036 108.225 280.893 108.589C281.749 108.954 282.488 109.519 283.107 110.284C283.736 111.05 284.224 112.025 284.57 113.21C284.917 114.395 285.09 115.808 285.09 117.448C285.09 118.989 284.939 120.438 284.639 121.796C284.338 123.145 283.864 124.325 283.217 125.337C282.579 126.34 281.749 127.133 280.728 127.716C279.717 128.299 278.491 128.591 277.051 128.591ZM278.363 118.597C279.038 118.597 279.616 118.428 280.1 118.091C280.583 117.745 280.965 117.289 281.248 116.724C281.239 115.53 281.157 114.504 281.002 113.648C280.856 112.791 280.651 112.089 280.387 111.542C280.131 110.986 279.822 110.576 279.457 110.312C279.092 110.047 278.691 109.915 278.254 109.915C277.452 109.915 276.832 110.312 276.394 111.105C275.957 111.889 275.738 113.073 275.738 114.659C275.738 115.954 275.957 116.934 276.394 117.599C276.832 118.264 277.488 118.597 278.363 118.597Z" fill="white"/>
<path d="M833.265 128.318V126.827H835.562C835.799 126.827 836.004 126.8 836.177 126.745C836.35 126.682 836.496 126.581 836.615 126.445C836.733 126.308 836.82 126.126 836.874 125.898C836.929 125.661 836.956 125.365 836.956 125.009V110.982C836.601 111.419 836.264 111.816 835.945 112.171C835.635 112.527 835.334 112.832 835.042 113.087C834.751 113.342 834.464 113.543 834.181 113.689C833.908 113.825 833.63 113.894 833.347 113.894C833.119 113.894 832.905 113.848 832.705 113.757C832.513 113.657 832.344 113.516 832.199 113.333C832.053 113.151 831.934 112.932 831.843 112.677C831.761 112.422 831.72 112.139 831.72 111.829C832.003 111.756 832.299 111.67 832.609 111.57C832.919 111.46 833.247 111.323 833.593 111.159C833.949 110.986 834.327 110.781 834.728 110.544C835.129 110.298 835.562 110.006 836.027 109.669L837.996 108.22H841.126V125.009C841.126 125.301 841.145 125.56 841.181 125.788C841.227 126.016 841.3 126.208 841.4 126.363C841.509 126.517 841.655 126.636 841.837 126.718C842.029 126.791 842.27 126.827 842.562 126.827H844.818V128.318H833.265ZM859.871 112.691C859.871 113.128 859.82 113.552 859.72 113.962C859.629 114.372 859.469 114.796 859.242 115.234C859.023 115.671 858.731 116.136 858.367 116.628C858.002 117.111 857.551 117.649 857.013 118.241C856.475 118.825 855.846 119.472 855.126 120.183C854.415 120.894 853.591 121.691 852.652 122.575L849.849 125.241H856.371C856.945 125.241 857.432 125.077 857.833 124.749C858.244 124.412 858.531 123.929 858.695 123.3L858.927 122.439H860.581L860.431 128.318H847.197V125.433L851.339 121.208C852.205 120.324 852.916 119.527 853.472 118.816C854.028 118.105 854.466 117.426 854.785 116.779C855.104 116.131 855.327 115.493 855.455 114.865C855.582 114.226 855.646 113.547 855.646 112.827C855.646 111.761 855.45 110.982 855.058 110.49C854.675 109.997 854.142 109.751 853.458 109.751C852.51 109.751 851.845 110.161 851.462 110.982C851.08 111.793 850.888 112.996 850.888 114.591C850.359 114.591 849.872 114.541 849.425 114.441C848.988 114.34 848.609 114.181 848.29 113.962C847.981 113.743 847.739 113.461 847.566 113.115C847.393 112.759 847.306 112.331 847.306 111.829C847.306 111.319 847.434 110.836 847.689 110.38C847.953 109.924 848.341 109.523 848.851 109.177C849.361 108.831 849.999 108.557 850.765 108.357C851.54 108.147 852.438 108.042 853.458 108.042C854.507 108.042 855.427 108.152 856.22 108.37C857.022 108.58 857.692 108.885 858.23 109.286C858.777 109.687 859.187 110.175 859.46 110.749C859.734 111.323 859.871 111.971 859.871 112.691Z" fill="white"/>
<path d="M183.191 128.318V126.827H185.488C185.725 126.827 185.93 126.8 186.103 126.745C186.276 126.682 186.422 126.581 186.541 126.445C186.659 126.308 186.746 126.126 186.8 125.898C186.855 125.661 186.882 125.365 186.882 125.009V110.982C186.527 111.419 186.19 111.816 185.871 112.171C185.561 112.527 185.26 112.832 184.968 113.087C184.677 113.342 184.39 113.543 184.107 113.689C183.834 113.825 183.556 113.894 183.273 113.894C183.045 113.894 182.831 113.848 182.63 113.757C182.439 113.657 182.27 113.516 182.125 113.333C181.979 113.151 181.86 112.932 181.769 112.677C181.687 112.422 181.646 112.139 181.646 111.829C181.929 111.756 182.225 111.67 182.535 111.57C182.845 111.46 183.173 111.323 183.519 111.159C183.875 110.986 184.253 110.781 184.654 110.544C185.055 110.298 185.488 110.006 185.953 109.669L187.921 108.22H191.052V125.009C191.052 125.301 191.071 125.56 191.107 125.788C191.153 126.016 191.225 126.208 191.326 126.363C191.435 126.517 191.581 126.636 191.763 126.718C191.955 126.791 192.196 126.827 192.488 126.827H194.744V128.318H183.191ZM209.796 112.691C209.796 113.128 209.746 113.552 209.646 113.962C209.555 114.372 209.395 114.796 209.168 115.234C208.949 115.671 208.657 116.136 208.293 116.628C207.928 117.111 207.477 117.649 206.939 118.241C206.401 118.825 205.772 119.472 205.052 120.183C204.341 120.894 203.516 121.691 202.578 122.575L199.775 125.241H206.296C206.871 125.241 207.358 125.077 207.759 124.749C208.169 124.412 208.457 123.929 208.621 123.3L208.853 122.439H210.507L210.357 128.318H197.123V125.433L201.265 121.208C202.131 120.324 202.842 119.527 203.398 118.816C203.954 118.105 204.391 117.426 204.71 116.779C205.029 116.131 205.253 115.493 205.38 114.865C205.508 114.226 205.572 113.547 205.572 112.827C205.572 111.761 205.376 110.982 204.984 110.49C204.601 109.997 204.068 109.751 203.384 109.751C202.436 109.751 201.771 110.161 201.388 110.982C201.005 111.793 200.814 112.996 200.814 114.591C200.285 114.591 199.798 114.541 199.351 114.441C198.914 114.34 198.535 114.181 198.216 113.962C197.906 113.743 197.665 113.461 197.492 113.115C197.319 112.759 197.232 112.331 197.232 111.829C197.232 111.319 197.36 110.836 197.615 110.38C197.879 109.924 198.266 109.523 198.777 109.177C199.287 108.831 199.925 108.557 200.691 108.357C201.466 108.147 202.363 108.042 203.384 108.042C204.432 108.042 205.353 108.152 206.146 108.37C206.948 108.58 207.618 108.885 208.156 109.286C208.703 109.687 209.113 110.175 209.386 110.749C209.66 111.323 209.796 111.971 209.796 112.691Z" fill="white"/>
<path d="M911.933 128.318V126.827H914.229C914.466 126.827 914.671 126.8 914.845 126.745C915.018 126.682 915.164 126.581 915.282 126.445C915.401 126.308 915.487 126.126 915.542 125.898C915.597 125.661 915.624 125.365 915.624 125.009V110.982C915.268 111.419 914.931 111.816 914.612 112.171C914.302 112.527 914.002 112.832 913.71 113.087C913.418 113.342 913.131 113.543 912.849 113.689C912.575 113.825 912.297 113.894 912.015 113.894C911.787 113.894 911.573 113.848 911.372 113.757C911.181 113.657 911.012 113.516 910.866 113.333C910.72 113.151 910.602 112.932 910.511 112.677C910.429 112.422 910.388 112.139 910.388 111.829C910.67 111.756 910.966 111.67 911.276 111.57C911.586 111.46 911.914 111.323 912.261 111.159C912.616 110.986 912.994 110.781 913.395 110.544C913.796 110.298 914.229 110.006 914.694 109.669L916.663 108.22H919.794V125.009C919.794 125.301 919.812 125.56 919.849 125.788C919.894 126.016 919.967 126.208 920.067 126.363C920.177 126.517 920.323 126.636 920.505 126.718C920.696 126.791 920.938 126.827 921.229 126.827H923.485V128.318H911.933ZM931.319 126.636C931.784 126.636 932.222 126.563 932.632 126.417C933.051 126.271 933.416 126.03 933.726 125.693C934.045 125.346 934.295 124.886 934.477 124.312C934.669 123.728 934.765 123.008 934.765 122.152C934.765 120.757 934.432 119.718 933.767 119.034C933.101 118.351 932.162 118.009 930.95 118.009C930.595 118.009 930.271 118.023 929.979 118.05C929.697 118.077 929.433 118.118 929.186 118.173C928.94 118.219 928.708 118.273 928.489 118.337C928.27 118.392 928.056 118.451 927.847 118.515L926.561 118.009L927.45 108.329H938.046L938.183 113.415H936.583L936.364 112.472C936.319 112.308 936.268 112.162 936.214 112.034C936.159 111.898 936.082 111.784 935.981 111.693C935.89 111.601 935.772 111.533 935.626 111.488C935.48 111.433 935.293 111.406 935.065 111.406H929.241C929.241 111.415 929.232 111.497 929.214 111.652C929.205 111.797 929.191 111.993 929.173 112.24C929.155 112.486 929.132 112.764 929.104 113.073C929.077 113.383 929.05 113.698 929.022 114.017L928.804 116.587C928.949 116.532 929.136 116.482 929.364 116.437C929.601 116.382 929.856 116.337 930.13 116.3C930.403 116.254 930.69 116.223 930.991 116.204C931.301 116.177 931.597 116.163 931.88 116.163C932.964 116.163 933.944 116.291 934.819 116.546C935.703 116.792 936.455 117.166 937.075 117.667C937.704 118.159 938.187 118.779 938.524 119.527C938.871 120.274 939.044 121.149 939.044 122.152C939.044 123.364 938.821 124.385 938.374 125.214C937.936 126.034 937.367 126.695 936.665 127.197C935.963 127.698 935.179 128.058 934.313 128.277C933.448 128.486 932.591 128.591 931.743 128.591C930.695 128.591 929.806 128.5 929.077 128.318C928.348 128.126 927.755 127.876 927.3 127.566C926.844 127.247 926.511 126.887 926.302 126.486C926.101 126.075 926.001 125.652 926.001 125.214C926.001 124.558 926.201 124.07 926.602 123.751C927.013 123.432 927.559 123.273 928.243 123.273C928.243 123.674 928.293 124.075 928.393 124.476C928.503 124.877 928.676 125.237 928.913 125.556C929.159 125.875 929.478 126.135 929.87 126.335C930.262 126.536 930.745 126.636 931.319 126.636Z" fill="white"/>
<path d="M100.802 128.318V126.827H103.099C103.336 126.827 103.541 126.8 103.715 126.745C103.888 126.682 104.034 126.581 104.152 126.445C104.271 126.308 104.357 126.126 104.412 125.898C104.466 125.661 104.494 125.365 104.494 125.009V110.982C104.138 111.419 103.801 111.816 103.482 112.171C103.172 112.527 102.871 112.832 102.58 113.087C102.288 113.342 102.001 113.543 101.718 113.689C101.445 113.825 101.167 113.894 100.884 113.894C100.657 113.894 100.442 113.848 100.242 113.757C100.05 113.657 99.8818 113.516 99.736 113.333C99.5902 113.151 99.4717 112.932 99.3805 112.677C99.2985 112.422 99.2575 112.139 99.2575 111.829C99.54 111.756 99.8363 111.67 100.146 111.57C100.456 111.46 100.784 111.323 101.131 111.159C101.486 110.986 101.864 110.781 102.265 110.544C102.666 110.298 103.099 110.006 103.564 109.669L105.533 108.22H108.664V125.009C108.664 125.301 108.682 125.56 108.718 125.788C108.764 126.016 108.837 126.208 108.937 126.363C109.047 126.517 109.192 126.636 109.375 126.718C109.566 126.791 109.808 126.827 110.099 126.827H112.355V128.318H100.802ZM120.189 126.636C120.654 126.636 121.091 126.563 121.502 126.417C121.921 126.271 122.285 126.03 122.595 125.693C122.914 125.346 123.165 124.886 123.347 124.312C123.539 123.728 123.634 123.008 123.634 122.152C123.634 120.757 123.302 119.718 122.636 119.034C121.971 118.351 121.032 118.009 119.82 118.009C119.465 118.009 119.141 118.023 118.849 118.05C118.567 118.077 118.302 118.118 118.056 118.173C117.81 118.219 117.578 118.273 117.359 118.337C117.14 118.392 116.926 118.451 116.716 118.515L115.431 118.009L116.32 108.329H126.916L127.052 113.415H125.453L125.234 112.472C125.188 112.308 125.138 112.162 125.084 112.034C125.029 111.898 124.951 111.784 124.851 111.693C124.76 111.601 124.642 111.533 124.496 111.488C124.35 111.433 124.163 111.406 123.935 111.406H118.111C118.111 111.415 118.102 111.497 118.084 111.652C118.075 111.797 118.061 111.993 118.043 112.24C118.024 112.486 118.002 112.764 117.974 113.073C117.947 113.383 117.92 113.698 117.892 114.017L117.674 116.587C117.819 116.532 118.006 116.482 118.234 116.437C118.471 116.382 118.726 116.337 119 116.3C119.273 116.254 119.56 116.223 119.861 116.204C120.171 116.177 120.467 116.163 120.75 116.163C121.834 116.163 122.814 116.291 123.689 116.546C124.573 116.792 125.325 117.166 125.945 117.667C126.574 118.159 127.057 118.779 127.394 119.527C127.741 120.274 127.914 121.149 127.914 122.152C127.914 123.364 127.69 124.385 127.244 125.214C126.806 126.034 126.237 126.695 125.535 127.197C124.833 127.698 124.049 128.058 123.183 128.277C122.317 128.486 121.461 128.591 120.613 128.591C119.565 128.591 118.676 128.5 117.947 128.318C117.218 128.126 116.625 127.876 116.17 127.566C115.714 127.247 115.381 126.887 115.172 126.486C114.971 126.075 114.871 125.652 114.871 125.214C114.871 124.558 115.071 124.07 115.472 123.751C115.882 123.432 116.429 123.273 117.113 123.273C117.113 123.674 117.163 124.075 117.263 124.476C117.373 124.877 117.546 125.237 117.783 125.556C118.029 125.875 118.348 126.135 118.74 126.335C119.132 126.536 119.615 126.636 120.189 126.636Z" fill="white"/>
<path d="M993.258 128.318V126.827H995.555C995.792 126.827 995.997 126.8 996.171 126.745C996.344 126.682 996.49 126.581 996.608 126.445C996.727 126.308 996.813 126.126 996.868 125.898C996.923 125.661 996.95 125.365 996.95 125.009V110.982C996.594 111.419 996.257 111.816 995.938 112.171C995.628 112.527 995.327 112.832 995.036 113.087C994.744 113.342 994.457 113.543 994.174 113.689C993.901 113.825 993.623 113.894 993.34 113.894C993.113 113.894 992.898 113.848 992.698 113.757C992.507 113.657 992.338 113.516 992.192 113.333C992.046 113.151 991.928 112.932 991.837 112.677C991.755 112.422 991.714 112.139 991.714 111.829C991.996 111.756 992.292 111.67 992.602 111.57C992.912 111.46 993.24 111.323 993.587 111.159C993.942 110.986 994.32 110.781 994.721 110.544C995.122 110.298 995.555 110.006 996.02 109.669L997.989 108.22H1001.12V125.009C1001.12 125.301 1001.14 125.56 1001.17 125.788C1001.22 126.016 1001.29 126.208 1001.39 126.363C1001.5 126.517 1001.65 126.636 1001.83 126.718C1002.02 126.791 1002.26 126.827 1002.56 126.827H1004.81V128.318H993.258ZM1007.04 123.218C1007.04 122.616 1007.14 122.074 1007.33 121.591C1007.53 121.108 1007.81 120.67 1008.17 120.279C1008.54 119.878 1008.97 119.513 1009.47 119.185C1009.98 118.848 1010.54 118.524 1011.15 118.214C1010.04 117.567 1009.19 116.833 1008.58 116.013C1007.99 115.193 1007.7 114.236 1007.7 113.142C1007.7 112.495 1007.81 111.866 1008.02 111.255C1008.25 110.635 1008.62 110.088 1009.13 109.615C1009.64 109.141 1010.31 108.762 1011.14 108.48C1011.97 108.188 1012.99 108.042 1014.19 108.042C1015.17 108.042 1016.04 108.165 1016.77 108.411C1017.52 108.657 1018.15 108.999 1018.65 109.437C1019.15 109.874 1019.52 110.394 1019.77 110.995C1020.02 111.588 1020.15 112.24 1020.15 112.95C1020.15 113.506 1020.06 113.999 1019.88 114.427C1019.7 114.855 1019.45 115.247 1019.13 115.603C1018.8 115.949 1018.4 116.273 1017.94 116.573C1017.47 116.874 1016.95 117.175 1016.36 117.476C1017.2 117.886 1017.92 118.301 1018.51 118.72C1019.1 119.13 1019.58 119.563 1019.95 120.019C1020.32 120.465 1020.59 120.939 1020.75 121.441C1020.93 121.933 1021.01 122.462 1021.01 123.027C1021.01 123.911 1020.85 124.699 1020.52 125.392C1020.2 126.075 1019.73 126.654 1019.11 127.128C1018.5 127.602 1017.75 127.967 1016.87 128.222C1015.99 128.468 1014.98 128.591 1013.85 128.591C1012.68 128.591 1011.67 128.45 1010.81 128.167C1009.96 127.885 1009.25 127.502 1008.68 127.019C1008.12 126.536 1007.71 125.966 1007.44 125.31C1007.17 124.654 1007.04 123.956 1007.04 123.218ZM1013.99 127.005C1014.47 127.005 1014.9 126.919 1015.28 126.745C1015.68 126.572 1016.01 126.331 1016.28 126.021C1016.56 125.711 1016.76 125.342 1016.91 124.913C1017.06 124.485 1017.13 124.016 1017.13 123.505C1017.13 123.049 1017.05 122.639 1016.9 122.275C1016.74 121.901 1016.5 121.555 1016.16 121.236C1015.83 120.907 1015.41 120.593 1014.89 120.292C1014.38 119.982 1013.76 119.663 1013.04 119.335C1012.73 119.536 1012.44 119.768 1012.17 120.032C1011.89 120.288 1011.66 120.579 1011.46 120.907C1011.26 121.226 1011.11 121.587 1010.99 121.988C1010.88 122.389 1010.83 122.835 1010.83 123.327C1010.83 123.874 1010.9 124.376 1011.05 124.831C1011.2 125.278 1011.41 125.665 1011.69 125.993C1011.97 126.312 1012.3 126.563 1012.69 126.745C1013.08 126.919 1013.51 127.005 1013.99 127.005ZM1016.62 112.896C1016.62 112.495 1016.56 112.103 1016.45 111.72C1016.34 111.328 1016.17 110.982 1015.95 110.681C1015.74 110.38 1015.46 110.139 1015.13 109.956C1014.81 109.765 1014.44 109.669 1014.01 109.669C1013.63 109.669 1013.29 109.751 1012.99 109.915C1012.7 110.07 1012.45 110.289 1012.25 110.572C1012.05 110.845 1011.89 111.173 1011.78 111.556C1011.68 111.939 1011.63 112.353 1011.63 112.8C1011.63 113.283 1011.7 113.707 1011.82 114.072C1011.96 114.436 1012.16 114.764 1012.41 115.056C1012.67 115.348 1012.98 115.612 1013.36 115.849C1013.73 116.077 1014.16 116.305 1014.65 116.532C1015 116.332 1015.3 116.118 1015.54 115.89C1015.79 115.662 1015.99 115.402 1016.15 115.111C1016.31 114.819 1016.43 114.495 1016.5 114.14C1016.58 113.775 1016.62 113.361 1016.62 112.896Z" fill="white"/>
<path d="M22.1344 128.318V126.827H24.4313C24.6683 126.827 24.8734 126.8 25.0465 126.745C25.2197 126.682 25.3656 126.581 25.484 126.445C25.6025 126.308 25.6891 126.126 25.7438 125.898C25.7985 125.661 25.8258 125.365 25.8258 125.009V110.982C25.4704 111.419 25.1331 111.816 24.8141 112.171C24.5042 112.527 24.2034 112.832 23.9118 113.087C23.6201 113.342 23.333 113.543 23.0505 113.689C22.777 113.825 22.499 113.894 22.2165 113.894C21.9886 113.894 21.7744 113.848 21.5739 113.757C21.3825 113.657 21.2139 113.516 21.068 113.333C20.9222 113.151 20.8037 112.932 20.7126 112.677C20.6305 112.422 20.5895 112.139 20.5895 111.829C20.8721 111.756 21.1683 111.67 21.4782 111.57C21.7881 111.46 22.1162 111.323 22.4626 111.159C22.818 110.986 23.1963 110.781 23.5973 110.544C23.9984 110.298 24.4313 110.006 24.8962 109.669L26.8649 108.22H29.9958V125.009C29.9958 125.301 30.014 125.56 30.0505 125.788C30.096 126.016 30.1689 126.208 30.2692 126.363C30.3786 126.517 30.5244 126.636 30.7067 126.718C30.8981 126.791 31.1396 126.827 31.4313 126.827H33.6872V128.318H22.1344ZM35.9157 123.218C35.9157 122.616 36.0114 122.074 36.2028 121.591C36.4033 121.108 36.6859 120.67 37.0505 120.279C37.415 119.878 37.848 119.513 38.3493 119.185C38.8597 118.848 39.4202 118.524 40.0309 118.214C38.9189 117.567 38.0622 116.833 37.4606 116.013C36.8682 115.193 36.5719 114.236 36.5719 113.142C36.5719 112.495 36.6813 111.866 36.9001 111.255C37.1279 110.635 37.4971 110.088 38.0075 109.615C38.5179 109.141 39.1878 108.762 40.0173 108.48C40.8467 108.188 41.863 108.042 43.0661 108.042C44.0505 108.042 44.9118 108.165 45.6501 108.411C46.3975 108.657 47.0218 108.999 47.5231 109.437C48.0244 109.874 48.3981 110.394 48.6442 110.995C48.8994 111.588 49.027 112.24 49.027 112.95C49.027 113.506 48.9359 113.999 48.7536 114.427C48.5804 114.855 48.3298 115.247 48.0016 115.603C47.6735 115.949 47.277 116.273 46.8122 116.573C46.3473 116.874 45.8232 117.175 45.2399 117.476C46.0784 117.886 46.7939 118.301 47.3864 118.72C47.9788 119.13 48.4574 119.563 48.8219 120.019C49.1956 120.465 49.4645 120.939 49.6286 121.441C49.8018 121.933 49.8883 122.462 49.8883 123.027C49.8883 123.911 49.7243 124.699 49.3962 125.392C49.0771 126.075 48.6077 126.654 47.988 127.128C47.3773 127.602 46.6299 127.967 45.7458 128.222C44.8617 128.468 43.8545 128.591 42.7243 128.591C41.5576 128.591 40.5459 128.45 39.6891 128.167C38.8324 127.885 38.1214 127.502 37.5563 127.019C37.0003 126.536 36.5856 125.966 36.3122 125.31C36.0479 124.654 35.9157 123.956 35.9157 123.218ZM42.861 127.005C43.3441 127.005 43.777 126.919 44.1598 126.745C44.5518 126.572 44.8844 126.331 45.1579 126.021C45.4313 125.711 45.6409 125.342 45.7868 124.913C45.9326 124.485 46.0055 124.016 46.0055 123.505C46.0055 123.049 45.9281 122.639 45.7731 122.275C45.6182 121.901 45.3721 121.555 45.0348 121.236C44.7067 120.907 44.2829 120.593 43.7633 120.292C43.2529 119.982 42.6377 119.663 41.9176 119.335C41.6077 119.536 41.3161 119.768 41.0426 120.032C40.7692 120.288 40.5322 120.579 40.3317 120.907C40.1403 121.226 39.9854 121.587 39.8669 121.988C39.7575 122.389 39.7028 122.835 39.7028 123.327C39.7028 123.874 39.7757 124.376 39.9215 124.831C40.0765 125.278 40.2907 125.665 40.5641 125.993C40.8467 126.312 41.1794 126.563 41.5622 126.745C41.9541 126.919 42.387 127.005 42.861 127.005ZM45.4997 112.896C45.4997 112.495 45.4404 112.103 45.3219 111.72C45.2126 111.328 45.0485 110.982 44.8298 110.681C44.611 110.38 44.3376 110.139 44.0094 109.956C43.6904 109.765 43.3167 109.669 42.8883 109.669C42.5055 109.669 42.1637 109.751 41.863 109.915C41.5713 110.07 41.3252 110.289 41.1247 110.572C40.9242 110.845 40.7692 111.173 40.6598 111.556C40.5596 111.939 40.5094 112.353 40.5094 112.8C40.5094 113.283 40.5732 113.707 40.7008 114.072C40.8376 114.436 41.0335 114.764 41.2887 115.056C41.5439 115.348 41.8584 115.612 42.2321 115.849C42.6058 116.077 43.0387 116.305 43.5309 116.532C43.8773 116.332 44.1735 116.118 44.4196 115.89C44.6657 115.662 44.8662 115.402 45.0212 115.111C45.1852 114.819 45.3037 114.495 45.3766 114.14C45.4587 113.775 45.4997 113.361 45.4997 112.896Z" fill="white"/>
<path fill-rule="evenodd" clip-rule="evenodd" d="M530.179 34.0387C536.009 31.0598 540 24.996 540 18C540 8.05887 531.941 0 522 0C512.059 0 504 8.05887 504 18C504 24.5417 507.49 30.2683 512.709 33.4199L521.5 82L530.179 34.0387ZM522 27.8546C516.557 27.8546 512.145 23.4425 512.145 18C512.145 12.5575 516.557 8.1454 522 8.1454C527.443 8.1454 531.855 12.5575 531.855 18C531.855 23.4425 527.443 27.8546 522 27.8546Z" fill="black"/>
</svg>
