<?xml version="1.0" standalone="no"?>
<!DOCTYPE svg PUBLIC "-//W3C//DTD SVG 20010904//EN"
 "http://www.w3.org/TR/2001/REC-SVG-20010904/DTD/svg10.dtd">
<svg version="1.0" xmlns="http://www.w3.org/2000/svg"
 width="832.000000pt" height="832.000000pt" viewBox="0 0 832.000000 832.000000"
 preserveAspectRatio="xMidYMid meet">
<metadata>
Created by potrace 1.14, written by Peter Selinger 2001-2017
</metadata>
<g transform="translate(0.000000,832.000000) scale(0.100000,-0.100000)"
fill="#000000" stroke="none">
<path d="M2915 8313 c-64 -8 -193 -36 -247 -53 -63 -20 -194 -84 -219 -106 -8
-8 -19 -14 -22 -14 -16 0 -160 -139 -199 -191 -30 -41 -100 -169 -91 -169 3 0
-2 -11 -11 -25 -9 -14 -14 -25 -11 -25 3 0 1 -8 -4 -17 -5 -10 -12 -34 -15
-53 -3 -19 -9 -46 -12 -60 -4 -14 -9 -155 -11 -315 -3 -159 -6 -291 -7 -292
-5 -5 -837 -3 -846 2 -5 3 -11 1 -14 -3 -6 -10 -10 -309 -4 -361 0 -3 -1 -10
-2 -16 -2 -11 1 -214 3 -254 l2 -23 433 0 432 1 0 -1052 0 -1052 -37 -25
c-143 -95 -270 -292 -292 -450 -2 -12 -51 -9 -52 3 0 6 -2 128 -2 269 -1 141
-5 259 -8 262 -8 9 -495 10 -508 2 -5 -4 -12 -3 -14 1 -3 5 -41 7 -86 5 l-81
-4 0 -2072 0 -2073 363 1 362 1 -1 565 c-1 311 -5 606 -9 655 -4 50 -8 128
-10 175 -1 47 -4 90 -5 95 -7 28 1 44 21 42 23 -2 25 -5 59 -111 27 -84 87
-187 149 -253 73 -78 198 -158 296 -189 141 -45 222 -57 370 -57 424 0 748
189 928 543 37 73 56 115 73 165 15 42 55 197 60 229 3 23 7 43 10 47 11 18
17 263 17 679 0 532 -4 606 -43 763 -12 45 -22 89 -24 97 -4 15 -60 158 -77
195 -5 11 -18 34 -29 50 -11 17 -24 39 -29 50 -26 59 -176 219 -263 281 -45
32 -185 105 -228 118 -14 5 -27 9 -30 10 -3 1 -39 10 -80 20 l-75 18 1 992 c1
545 2 994 3 998 0 4 269 7 596 7 327 -1 598 2 602 4 5 3 8 149 8 324 l0 318
-605 5 -605 5 0 210 c0 228 6 288 35 341 34 59 106 114 173 131 12 3 238 7
502 8 264 2 485 4 490 4 7 1 10 108 10 316 l0 315 -530 -2 c-291 -1 -543 -3
-560 -5z m-401 -4599 c103 -25 195 -76 266 -147 57 -58 118 -148 125 -188 2
-10 8 -26 13 -36 29 -57 36 -166 35 -613 0 -418 -2 -487 -18 -560 -3 -14 -7
-36 -10 -48 -2 -13 -9 -30 -16 -38 -6 -8 -8 -14 -5 -14 4 0 -10 -32 -30 -70
-21 -38 -42 -70 -46 -70 -4 0 -8 -5 -8 -10 0 -19 -103 -109 -159 -139 -51 -26
-123 -52 -191 -68 -52 -12 -265 -5 -325 11 -72 19 -169 66 -210 101 -60 51
-105 99 -105 112 0 7 -4 13 -9 13 -10 0 -66 122 -81 179 -6 23 -14 64 -18 90
-8 64 -7 945 2 1006 40 275 227 466 491 502 22 3 41 6 43 8 10 9 197 -7 256
-21z"/>
<path d="M6058 7395 c-2 -1 -25 -5 -53 -8 -157 -17 -295 -68 -425 -157 -130
-90 -237 -245 -266 -390 -7 -33 -22 -49 -45 -47 -18 1 -19 12 -19 274 0 175
-4 273 -10 273 -5 1 -93 1 -195 1 -102 0 -250 0 -330 -1 l-145 0 0 -1519 0
-1519 -137 -1 c-75 -1 -140 -4 -144 -7 -4 -2 -10 0 -13 4 -5 9 -56 4 -56 -4 0
-4 28 -81 40 -109 5 -11 16 -40 24 -65 8 -25 38 -110 66 -190 28 -80 53 -152
55 -160 7 -25 145 -413 155 -435 8 -18 19 -52 26 -80 2 -5 21 -59 44 -120 22
-60 42 -117 44 -125 2 -8 6 -22 9 -30 9 -20 92 -255 124 -350 14 -41 31 -88
38 -105 7 -16 20 -55 30 -85 10 -30 20 -59 24 -65 3 -5 6 -15 7 -21 2 -10 143
-410 206 -584 11 -30 22 -62 24 -70 3 -13 49 -144 104 -295 10 -27 36 -99 57
-160 l40 -110 426 -1 c285 0 427 3 427 10 0 5 43 134 96 285 53 152 121 348
150 436 30 88 59 169 64 180 5 11 23 63 41 115 17 52 58 172 91 265 33 94 61
177 63 185 2 8 23 67 45 130 22 63 42 120 44 125 2 6 5 15 6 20 2 6 16 46 33
90 16 44 30 85 32 90 1 6 5 17 8 25 3 8 13 35 21 60 8 25 38 110 66 190 28 80
53 150 54 155 2 6 6 17 9 25 13 35 110 319 124 365 8 28 18 55 22 60 6 8 32
85 36 105 1 7 56 161 65 185 18 44 19 65 2 66 -38 2 -158 1 -167 -1 -5 -1 -12
-2 -15 -1 -8 3 -294 3 -305 1 -5 -1 -13 -2 -17 -1 -8 2 -118 3 -191 2 -34 -1
-42 -13 -62 -91 -3 -12 -116 -371 -160 -510 -20 -63 -38 -122 -41 -130 -2 -8
-11 -37 -20 -65 -9 -27 -33 -104 -54 -170 -21 -66 -55 -172 -75 -235 -20 -63
-38 -119 -39 -125 -1 -5 -15 -50 -31 -100 -16 -49 -29 -92 -30 -95 0 -3 -18
-59 -39 -125 -154 -490 -178 -573 -191 -665 -4 -25 -9 -58 -12 -75 -11 -69
-14 -94 -17 -170 -4 -72 -6 -80 -25 -83 -16 -3 -21 2 -22 20 -7 129 -24 229
-74 458 -3 12 -28 96 -33 110 -3 8 -6 20 -8 25 -1 6 -21 64 -43 130 -23 66
-43 127 -46 135 -2 8 -10 34 -19 58 -8 23 -15 43 -15 45 0 1 -2 9 -5 17 -3 8
-44 134 -91 280 -48 146 -90 274 -94 285 -10 23 -214 645 -217 660 -1 6 -22
71 -47 145 -25 74 -44 137 -42 139 3 2 65 4 140 4 l135 0 1 1026 c0 564 2
1035 3 1046 28 193 76 298 189 403 49 46 103 78 174 103 79 27 122 33 233 33
111 -1 184 -11 223 -30 15 -8 27 -12 27 -9 0 3 24 -7 53 -21 136 -69 233 -181
281 -326 23 -69 28 -105 33 -263 3 -82 7 -152 10 -155 8 -8 727 -7 739 2 18
13 8 411 -12 513 -2 11 -7 34 -9 50 -8 42 -44 176 -54 200 -36 85 -90 188
-120 230 -170 238 -372 359 -686 411 -26 5 -313 13 -317 9z"/>
</g>
</svg>
