<svg width="268" height="78" viewBox="0 0 268 78" fill="none" xmlns="http://www.w3.org/2000/svg">
<path d="M32.5 65V45.5L48.75 55.25L32.5 65ZM78 14.2188L77.974 14.0823L74.698 0L5.89875 13.637C2.47325 14.3163 0 17.3225 0 20.8097V68.25C0 73.6352 4.36475 78 9.75 78H68.25C73.632 78 78 73.6352 78 68.25V22.75H36.6145L78 14.2188ZM65.3575 5.71025L73.1445 10.9233L63.414 12.857L55.6205 7.64075L65.3575 5.71025ZM46.1923 9.5095L53.989 14.729L44.2618 16.6627L36.4553 11.44L46.1923 9.5095ZM27.001 13.3153L34.8108 18.5412L25.0835 20.475L17.264 15.2425L27.001 13.3153ZM35.2495 26L28.6228 32.5H18.6972L25.324 26H35.2495ZM64.428 26H74.3535L67.73 32.5H57.8012L64.428 26ZM44.889 26H54.8112L48.1845 32.5H38.2622L44.889 26ZM71.5 39V67.4375C71.5 69.68 69.68 71.5 67.4375 71.5H10.5625C8.32 71.5 6.5 69.68 6.5 67.4375V39H71.5Z" fill="black"/>
<path d="M245.25 9.75V3.25C245.25 1.456 246.703 0 248.5 0C250.297 0 251.75 1.456 251.75 3.25V9.75C251.75 11.544 250.297 13 248.5 13C246.703 13 245.25 11.544 245.25 9.75ZM206.25 13C208.047 13 209.5 11.544 209.5 9.75V3.25C209.5 1.456 208.047 0 206.25 0C204.453 0 203 1.456 203 3.25V9.75C203 11.544 204.453 13 206.25 13ZM249.5 55.25C248.948 55.25 248.5 54.8023 248.5 54.25V46.5C248.5 45.9477 248.052 45.5 247.5 45.5H246.25C245.698 45.5 245.25 45.9477 245.25 46.5V57.5C245.25 58.0523 245.698 58.5 246.25 58.5H254C254.552 58.5 255 58.0523 255 57.5V56.25C255 55.6977 254.552 55.25 254 55.25H249.5ZM232.25 56.875C232.25 64.9382 238.812 71.5 246.875 71.5C254.938 71.5 261.5 64.9382 261.5 56.875C261.5 48.8118 254.938 42.25 246.875 42.25C238.812 42.25 232.25 48.8118 232.25 56.875ZM268 56.875C268 68.5425 258.542 78 246.875 78C235.208 78 225.75 68.5425 225.75 56.875C225.75 45.2075 235.208 35.75 246.875 35.75C258.542 35.75 268 45.2075 268 56.875ZM222.003 68.8336C221.832 68.4802 221.478 68.25 221.085 68.25H197.5C196.948 68.25 196.5 67.8023 196.5 67.25V27C196.5 26.4477 196.948 26 197.5 26H257.25C257.802 26 258.25 26.4477 258.25 27V31.0855C258.25 31.4778 258.48 31.8324 258.834 32.0028C260.317 32.718 261.727 33.5592 263.049 34.5157C263.74 35.0154 264.75 34.5404 264.75 33.6879V7.5C264.75 6.94772 264.302 6.5 263.75 6.5H256C255.448 6.5 255 6.94772 255 7.5V9.75C255 14.027 250.846 17.3518 246.361 15.9055C243.661 15.0345 242 12.2948 242 9.4575V7.5C242 6.94772 241.552 6.5 241 6.5H213.75C213.198 6.5 212.75 6.94772 212.75 7.5V9.75C212.75 14.027 208.597 17.3518 204.112 15.9055C201.411 15.0345 199.75 12.2948 199.75 9.4575V7.5C199.75 6.94772 199.302 6.5 198.75 6.5H191C190.448 6.5 190 6.94772 190 7.5V73.75C190 74.3023 190.448 74.75 191 74.75H223.688C224.54 74.75 225.015 73.7397 224.516 73.049C223.559 71.7269 222.718 70.3172 222.003 68.8336Z" fill="black"/>
<path d="M166 0L114.377 11.6513V54.0312C104.763 52.117 95 59.462 95 67.5317C95 74.477 100.393 78 106.247 78C113.202 78 120.809 73.034 120.818 62.9265V27.5015L159.545 19.5097V47.5377C149.944 45.63 140.182 52.9457 140.182 60.996C140.182 67.9607 145.717 71.5 151.545 71.5C158.451 71.5 165.99 66.5405 166 56.433V0Z" fill="black"/>
</svg>
