<svg width="399" height="114" viewBox="0 0 399 114" fill="none" xmlns="http://www.w3.org/2000/svg">
<g clip-path="url(#clip0_2386_189)">
<path d="M11.1928 61.8782L0 65.1992L0.622733 61.5321L8.20205 59.9252L1.12256 58.6479L1.75349 54.9479L9.29184 53.5388L2.25331 52.006L2.87604 48.3555L12.9627 51.5281L12.3318 55.2281L5.06381 56.7361L11.8155 58.2441L11.1928 61.8782Z" fill="#231F20"/>
<path d="M14.1425 44.6228L2.94971 47.9355L3.58063 44.2767L11.1518 42.6616L4.07227 41.3843L4.70319 37.6843L12.2497 36.2751L5.20302 34.7506L5.83395 31.0918L15.9124 34.2727L15.2815 37.9727L8.01351 39.4807L14.7653 40.9887L14.1425 44.6228Z" fill="#231F20"/>
<path d="M17.0923 27.3587L5.90771 30.6714L6.53045 27.0126L14.1098 25.4057L7.02208 24.1284L7.65301 20.4202L15.1996 19.0193L8.16103 17.4865L8.78376 13.8359L18.8622 17.0086L18.2313 20.7086L10.9633 22.2166L17.7151 23.7246L17.0923 27.3587Z" fill="#231F20"/>
<path d="M19.4604 13.5474L16.0107 13.5722L16.6499 9.83917L20.0913 9.81445L19.4604 13.5474Z" fill="#231F20"/>
<path fill-rule="evenodd" clip-rule="evenodd" d="M330.434 16.8694H333.769C336.383 16.8694 336.276 20.5612 334.219 20.4293L335.612 22.9345H334.17L332.777 20.4293H331.663L331.622 22.9345H330.508L330.434 16.8694ZM331.63 19.3745H333.851C334.637 19.3745 334.949 17.7923 333.375 17.7923H331.671L331.622 19.3745H331.63ZM327.337 19.1768C327.623 16.8694 329.401 14.2324 332.736 14.2324C336.759 14.3643 338.292 18.122 338.357 20.2316C338.152 23.1982 335.989 25.5714 332.638 25.5055C329.5 25.5055 326.837 22.0115 327.337 19.1768ZM328.418 19.0449C328.066 21.0226 329.197 24.1211 332.671 24.4507C334.269 24.5826 336.891 23.3959 337.186 20.5612C337.53 17.9242 335.555 15.485 332.843 15.3531C330.54 15.2872 328.779 17.1331 328.41 19.0449H328.418Z" fill="#231F20"/>
<path fill-rule="evenodd" clip-rule="evenodd" d="M24.8274 9.82227H41.8214L36.1021 39.8179L71.5324 9.82227H91.5827L49.5401 48.0997L71.0899 96.4471L52.1539 96.6202V96.2246L36.9871 59.0102L32.1035 62.8174L25.9335 96.4471L9.0542 96.6202L24.8274 9.82227Z" fill="#231F20"/>
<path fill-rule="evenodd" clip-rule="evenodd" d="M123.35 9.82227H139.623L124.407 82.4052L174.005 82.57L170.948 96.4471L105.521 96.6202L123.35 9.82227Z" fill="#231F20"/>
<path fill-rule="evenodd" clip-rule="evenodd" d="M140.066 25.9985H155.954L149.341 57.84C147.727 69.1461 160.174 64.9434 161.673 57.7823L168.728 25.9985H185.222L174.669 77.0323L158.781 76.9746L159.223 73.6702C152.783 81.4492 128.398 82.0673 133.511 57.6093L140.066 25.9902V25.9985Z" fill="#231F20"/>
<path fill-rule="evenodd" clip-rule="evenodd" d="M223.93 77.1397H208.042L214.655 45.2981C216.269 33.9921 203.822 38.1947 202.323 45.3558L195.268 77.1397H178.774L189.327 26.1058L205.215 26.1635L204.773 29.468C211.213 21.6889 235.598 21.0708 230.485 45.5289L223.93 77.1479V77.1397Z" fill="#231F20"/>
<path fill-rule="evenodd" clip-rule="evenodd" d="M269.75 30.3079L271.086 26.1711H286.916L277.641 77.0401C274.642 100.938 228.715 104.292 230.821 75.8617H247.872C245.037 84.4237 261.368 85.0417 261.925 71.8898C242.768 83.0228 228.6 61.8198 232.82 44.4734C236.155 30.7116 256.091 17.6174 269.75 30.3161V30.3079ZM258.86 38.1446C263.695 38.1446 267.021 43.1796 266.3 49.393C265.522 55.6064 261.024 60.6414 256.189 60.6414C251.355 60.6414 248.135 55.6064 248.856 49.393C249.577 43.1796 254.018 38.1446 258.852 38.1446H258.86Z" fill="#231F20"/>
<path fill-rule="evenodd" clip-rule="evenodd" d="M305.238 44.3498H289.022C288.965 28.462 306.016 23.1962 318.954 25.2646C328.566 26.8303 334.506 30.86 335.063 38.9192L328.844 72.6067C328.68 74.1724 328.68 75.631 329.008 77.139L313.792 77.0813C313.128 76.3561 312.514 75.4002 312.292 74.4526C288.244 89.5575 282.36 68.6924 282.967 62.3637C283.245 59.5124 282.745 46.0803 306.573 45.1821C318.626 44.7371 321.847 39.3642 317.463 38.0787C313.522 36.9003 306.073 37.0734 305.246 44.3498H305.238ZM315.57 55.3757C315.291 59.4053 311.907 63.4926 308.13 64.6628C304.517 65.7258 300.797 65.9483 299.969 62.924C299.805 58.4494 302.689 56.6529 305.852 56.2656C308.794 55.8701 312.571 56.5458 315.57 55.3674V55.3757Z" fill="#231F20"/>
<path fill-rule="evenodd" clip-rule="evenodd" d="M83.3069 44.3498H67.0913C67.0339 28.462 84.0853 23.1962 97.0234 25.2646C106.635 26.8303 112.575 30.86 113.133 38.9192L106.913 72.6067C106.75 74.1724 106.75 75.631 107.077 77.139L91.8613 77.0813C91.1976 76.3561 90.5831 75.4002 90.3618 74.4526C66.3128 89.5575 60.4297 68.6924 61.036 62.3637C61.3146 59.5124 60.8148 46.0803 84.6425 45.1821C96.6957 44.7371 99.9159 39.3642 95.5321 38.0787C91.5909 36.9003 84.1427 37.0734 83.3151 44.3498H83.3069ZM93.6394 55.3757C93.3608 59.4053 89.9767 63.4926 86.1993 64.6628C82.5858 65.7258 78.8658 65.9483 78.0383 62.924C77.8744 58.4494 80.7586 56.6529 83.9214 56.2656C86.863 55.8701 90.6404 56.5458 93.6394 55.3674V55.3757Z" fill="#231F20"/>
<path d="M259.385 111.775H267.874L269.906 102.834H261.417L259.385 111.775ZM257.746 112.994L260.344 101.564H271.495L268.898 112.994H257.746Z" fill="#231F20"/>
<path d="M297.781 103.247C297.24 104.573 296.413 105.603 295.29 106.337C294.176 107.07 292.881 107.433 291.406 107.433C289.415 107.433 288.088 106.724 287.441 105.315C286.785 103.906 286.785 101.755 287.441 98.8956C288.104 95.962 289.104 93.8112 290.423 92.4432C291.742 91.0753 293.471 90.3831 295.593 90.3831C297.003 90.3831 298.068 90.7292 298.797 91.4132C299.518 92.1054 299.83 93.053 299.723 94.2809H308.228C308.564 91.545 307.663 89.3283 305.541 87.6307C303.419 85.9332 300.452 85.0927 296.642 85.0927C292.119 85.0927 288.268 86.3287 285.097 88.7927C281.926 91.2566 279.853 94.627 278.878 98.8956C277.919 103.115 278.468 106.477 280.55 108.974C282.623 111.471 285.908 112.723 290.423 112.723C294.25 112.723 297.585 111.866 300.444 110.152C303.296 108.438 305.262 106.139 306.327 103.238H297.789L297.781 103.247ZM296.954 102.027H308.064C307.007 105.719 304.869 108.628 301.673 110.77C298.469 112.913 294.635 113.992 290.177 113.992C285.245 113.992 281.639 112.633 279.37 109.921C277.1 107.202 276.485 103.527 277.542 98.8874C278.599 94.2397 280.853 90.5644 284.302 87.8944C287.76 85.208 291.964 83.873 296.913 83.873C301.403 83.873 304.787 84.9443 307.065 87.0704C309.335 89.1965 310.121 92.0312 309.425 95.5582H298.273C298.486 94.2314 298.338 93.2508 297.822 92.608C297.306 91.9735 296.396 91.6521 295.102 91.6521C293.488 91.6521 292.168 92.2372 291.152 93.3991C290.136 94.5611 289.341 96.3905 288.776 98.8874C288.194 101.442 288.137 103.288 288.588 104.458C289.047 105.62 290.063 106.205 291.636 106.205C292.971 106.205 294.078 105.859 294.954 105.175C295.839 104.483 296.503 103.436 296.962 102.027H296.954Z" fill="#231F20"/>
<path d="M322.543 98.8952C323.24 95.8379 324.198 93.6624 325.419 92.3522C326.648 91.0337 328.303 90.3827 330.393 90.3827C332.482 90.3827 333.851 91.0419 334.482 92.3604C335.121 93.6871 335.088 95.8544 334.4 98.8869C333.711 101.919 332.753 104.103 331.507 105.43C330.278 106.765 328.607 107.424 326.517 107.424C324.428 107.424 323.068 106.765 322.437 105.446C321.814 104.12 321.847 101.944 322.543 98.8869V98.8952ZM313.981 98.8952C313.014 103.164 313.538 106.559 315.57 109.048C317.602 111.536 320.847 112.781 325.304 112.781C329.762 112.781 333.588 111.536 336.743 109.056C339.898 106.575 341.963 103.189 342.938 98.8952C343.913 94.6101 343.38 91.2232 341.356 88.7428C339.332 86.2706 336.079 85.0345 331.606 85.0345C327.132 85.0345 323.321 86.2789 320.167 88.7675C317.012 91.2562 314.947 94.6348 313.981 98.8869V98.8952ZM323.879 98.8952C323.289 101.499 323.223 103.37 323.682 104.507C324.141 105.644 325.181 106.213 326.796 106.213C328.41 106.213 329.713 105.636 330.712 104.491C331.712 103.345 332.499 101.483 333.089 98.8952C333.67 96.3241 333.72 94.4865 333.252 93.3493C332.777 92.2203 331.737 91.6517 330.098 91.6517C328.459 91.6517 327.173 92.2038 326.206 93.3245C325.239 94.4453 324.46 96.2994 323.87 98.8869L323.879 98.8952ZM312.645 98.8952C313.702 94.2475 315.947 90.5722 319.372 87.9023C322.797 85.2158 326.968 83.8809 331.868 83.8809C336.768 83.8809 340.299 85.2241 342.512 87.9023C344.724 90.5722 345.297 94.2475 344.24 98.8952C343.183 103.568 340.93 107.251 337.497 109.954C334.072 112.649 329.909 113.992 325.026 113.992C320.142 113.992 316.57 112.64 314.357 109.954C312.153 107.251 311.58 103.568 312.637 98.8952H312.645Z" fill="#231F20"/>
<path d="M377.925 98.3274C378.425 96.1354 379.261 94.4708 380.441 93.3254C381.613 92.1799 383.063 91.6031 384.775 91.6031C386.594 91.6031 387.758 92.147 388.274 93.2347C388.79 94.3225 388.725 96.2755 388.086 99.102L385.21 111.776H393.518L396.575 98.3274C397.009 96.4074 397.304 94.8499 397.443 93.688C397.591 92.5343 397.607 91.5701 397.509 90.812C397.287 89.0897 396.558 87.7465 395.313 86.7989C394.075 85.8347 392.437 85.3568 390.421 85.3568C388.536 85.3568 386.603 85.9006 384.62 87.0049C382.629 88.1091 380.752 89.6995 378.958 91.7597C378.737 89.6418 378.048 88.0432 376.868 86.9637C375.697 85.8841 374.082 85.3485 372.034 85.3485C369.986 85.3485 367.994 85.9171 366.028 87.0543C364.07 88.1915 361.997 89.988 359.809 92.4272L361.243 86.0984H353.811L347.977 111.768H356.236L359.104 99.1515C359.686 96.6051 360.563 94.7016 361.734 93.4572C362.914 92.2129 364.414 91.5949 366.249 91.5949C368.085 91.5949 369.199 92.1305 369.707 93.2018C370.223 94.273 370.149 96.2343 369.502 99.0938L366.626 111.768H374.885L377.942 98.3192L377.925 98.3274ZM346.387 112.996L352.77 84.887H362.668L362.037 87.6724C361.956 88.0185 361.849 88.381 361.718 88.7519C361.579 89.1227 361.415 89.5018 361.202 89.8973C362.84 87.9855 364.602 86.5434 366.503 85.5792C368.404 84.6151 370.412 84.1289 372.542 84.1289C374.672 84.1289 376.303 84.6151 377.557 85.5792C378.81 86.5434 379.548 87.9278 379.769 89.7325C381.228 87.8948 382.924 86.4939 384.833 85.5463C386.742 84.5986 388.84 84.1289 391.126 84.1289C393.059 84.1289 394.715 84.5821 396.108 85.4886C397.501 86.3868 398.385 87.6064 398.771 89.1392C398.992 90.0786 399.049 91.1581 398.959 92.3942C398.861 93.6385 398.5 95.6327 397.886 98.3686L394.567 112.979H383.612L386.922 98.4181C387.414 96.2673 387.463 94.7922 387.078 93.9929C386.693 93.2018 385.824 92.798 384.448 92.798C383.071 92.798 382.006 93.243 381.162 94.133C380.326 95.0229 379.695 96.4238 379.253 98.3604L375.934 112.971H365.036L368.347 98.4098C368.822 96.3085 368.879 94.8416 368.511 94.0258C368.134 93.2018 367.29 92.798 365.971 92.798C364.569 92.798 363.43 93.2595 362.562 94.1659C361.693 95.0806 361.038 96.5145 360.595 98.4675L357.301 112.979H346.404L346.387 112.996Z" fill="#231F20"/>
<path fill-rule="evenodd" clip-rule="evenodd" d="M360.349 30.8285L364.463 27.8948C370.092 24.1701 378.13 26.395 381.998 31.7185L394.649 50.2515C403.351 63.9555 392.387 81.5244 376.573 79.1512C371.387 78.2447 367.339 75.7066 364.274 71.3144L354.36 56.8027C351.008 51.8914 348.87 48.9165 349.943 42.8103C351.295 36.5721 354.278 35.1795 358.612 32.0646C358.563 31.9986 360.341 30.8202 360.349 30.8285ZM356.343 55.5337L366.183 69.9382C368.707 73.6382 372.157 75.9044 376.524 76.7119C380.891 77.5195 384.874 76.6295 388.504 74.0502C392.142 71.4545 394.354 67.9357 395.132 63.4858C395.911 59.0524 395.009 54.9486 392.469 51.2239L382.629 36.8194L356.343 55.5337Z" fill="#231F20"/>
<path fill-rule="evenodd" clip-rule="evenodd" d="M359.801 34.1328L355.802 36.9758C352.565 39.2832 350.197 46.5266 353.819 51.8253L354.942 53.4652L367.093 44.8126L359.801 34.1328Z" fill="#A6CE39"/>
<path fill-rule="evenodd" clip-rule="evenodd" d="M361.775 32.7324L365.774 29.8894C369.011 27.5821 376.483 27.821 380.105 33.1197L381.228 34.7596L369.076 43.4122L361.784 32.7324H361.775Z" fill="#FFCB05"/>
<path fill-rule="evenodd" clip-rule="evenodd" d="M285.564 17.3705L287.637 17.3457C294.241 -7.20292 335.489 -1.23675 358.408 32.4342L360.685 31.2723C356.277 25.8912 352.656 21.2353 348.468 17.4199C326.312 -2.77774 306.901 -2.15969 296.011 3.17195C288.686 6.76484 285.613 14.3297 285.663 17.354C285.663 17.4611 285.449 17.354 285.564 17.354V17.3705Z" fill="#231F20"/>
</g>
<defs>
<clipPath id="clip0_2386_189">
<rect width="399" height="114" fill="white"/>
</clipPath>
</defs>
</svg>
