<svg xmlns="http://www.w3.org/2000/svg" viewBox="0 0 1360.29 1516.02"><defs><style>.cls-1{font-size:33px;}.cls-1,.cls-15,.cls-5{font-family:Montserrat-Regular, Montserrat;}.cls-2{letter-spacing:-0.05em;}.cls-3{letter-spacing:-0.01em;}.cls-4{letter-spacing:0em;}.cls-5{font-size:32.06px;}.cls-6{letter-spacing:-0.01em;}.cls-7{letter-spacing:-0.01em;}.cls-8{letter-spacing:-0.02em;}.cls-9{letter-spacing:0em;}.cls-10{letter-spacing:0em;}.cls-11{letter-spacing:0em;}.cls-12,.cls-13,.cls-14,.cls-18,.cls-19,.cls-20{fill:none;stroke-miterlimit:10;}.cls-12{stroke:red;}.cls-12,.cls-13,.cls-14{stroke-width:1.94px;}.cls-13{stroke:blue;}.cls-14,.cls-18,.cls-19,.cls-20{stroke:#000;}.cls-15{font-size:40px;}.cls-16{letter-spacing:-0.01em;}.cls-17{letter-spacing:-0.02em;}.cls-18{stroke-width:3px;}.cls-19{stroke-width:2.95px;}.cls-20{stroke-width:2.96px;}</style></defs><g id="Layer_2" data-name="Layer 2"><g id="Layer_1-2" data-name="Layer 1"><text class="cls-1" transform="translate(989.26 1506.19)"><tspan class="cls-2">T</tspan><tspan x="17.13" y="0">op </tspan><tspan class="cls-3" x="68.84" y="0">P</tspan><tspan x="92.04" y="0">a</tspan><tspan class="cls-4" x="111.51" y="0">n</tspan><tspan x="133.91" y="0">el</tspan></text><text class="cls-5" transform="translate(271.69 736.21)"><tspan class="cls-6">F</tspan><tspan class="cls-7" x="19.97" y="0">r</tspan><tspan x="32.41" y="0">ont </tspan><tspan class="cls-8" x="95.62" y="0">P</tspan><tspan x="118.16" y="0">a</tspan><tspan class="cls-9" x="137.07" y="0">n</tspan><tspan class="cls-10" x="158.84" y="0">el (</tspan><tspan class="cls-11" x="205.77" y="0">x</tspan><tspan class="cls-10" x="222.79" y="0">2)</tspan></text><rect class="cls-12" x="108.75" y="108.25" width="577.41" height="577.41"/><rect class="cls-13" x="120.3" y="289.13" width="11.55" height="76.99"/><rect class="cls-13" x="120.3" y="427.78" width="11.55" height="76.99"/><rect class="cls-13" x="120.3" y="566.43" width="11.55" height="76.99"/><rect class="cls-13" x="663.02" y="289.13" width="11.55" height="76.99"/><rect class="cls-13" x="663.02" y="427.78" width="11.55" height="76.99"/><rect class="cls-13" x="663.02" y="566.43" width="11.55" height="76.99"/><rect class="cls-13" x="599.66" y="618.29" width="11.55" height="76.99" transform="translate(1262.21 51.35) rotate(90)"/><rect class="cls-13" x="461.01" y="618.29" width="11.55" height="76.99" transform="translate(1123.57 190) rotate(90)"/><rect class="cls-13" x="322.36" y="618.29" width="11.55" height="76.99" transform="translate(984.92 328.65) rotate(90)"/><rect class="cls-13" x="183.71" y="618.29" width="11.55" height="76.99" transform="translate(846.27 467.3) rotate(90)"/><rect class="cls-13" x="599.66" y="208.91" width="11.55" height="76.99" transform="translate(852.83 -358.03) rotate(90)"/><rect class="cls-13" x="461.01" y="208.91" width="11.55" height="76.99" transform="translate(714.18 -219.38) rotate(90)"/><rect class="cls-13" x="322.36" y="208.91" width="11.55" height="76.99" transform="translate(575.53 -80.73) rotate(90)"/><rect class="cls-13" x="183.71" y="208.91" width="11.55" height="76.99" transform="translate(436.89 57.92) rotate(90)"/><line class="cls-14" x1="151.99" y1="230.2" x2="226.74" y2="230.2"/><line class="cls-14" x1="290.22" y1="230.2" x2="365.59" y2="230.2"/><line class="cls-14" x1="428.73" y1="230.2" x2="504.1" y2="230.2"/><line class="cls-14" x1="567.24" y1="230.2" x2="642.93" y2="230.2"/><line class="cls-14" x1="151.99" y1="639.32" x2="226.74" y2="639.32"/><line class="cls-14" x1="290.22" y1="639.32" x2="365.59" y2="639.32"/><line class="cls-14" x1="428.73" y1="639.32" x2="504.1" y2="639.32"/><line class="cls-14" x1="567.24" y1="639.32" x2="642.93" y2="639.32"/><path class="cls-13" d="M500.4,401.49c54.44,65.25-12.56,190.77-12.56,190.77s17.72,18.58,40.62,0c0,0,37.15-110.18-10.81-191.41a10.23,10.23,0,0,0,4-3s19.75,3.84,29.51,21c0,0,1.86-9.76,0-13.71,0,0,16.73,10.44,16.73,23.81,0,0,49.72,17.08,68.54,47.52,0,0-4.88-58.09-25.79-78.65,0,0-11-8.05-20.84-7.66,0,0,7.78-4.54,11.26-2.64,0,0-14.08-8.62-36.06-6.09,0,0,7.59-5.46,11.94-4.35,0,0-33-19.23-58.59-1.68,0,0,17.19-24.76,47.19-23.16a25.32,25.32,0,0,0-11.65-11.78s18.88-2.68,25.84,2.28c0,0,31.47-16.34,50.35-11.25,0,0-28.52-47.54-100-13.13,0,0-9.46,8.75-11.23,19.62,0,0-2.8-9.49,1.11-16.19,0,0-18.41,14.68-16.56,49.51a8.68,8.68,0,0,0-6.37,1.87s-15.53-37.68-38.78-45.88c0,0,2.1,7.06,4.54,16.33,0,0-13.9-15.95-27.33-19.54,0,0-64.59-13.25-91.23,43.08,0,0,70.08-16.16,90.6,7.86,0,0,14.41-8.52,25.54-3.71,0,0-14.84,1.74-18.12,10.47,0,0,27.68-10.57,45.35,3.31,0,0-39.51-8.17-69.49,15.26,0,0,16.73-3.74,22.78-.54,0,0-24.82,3.65-32.78,12.19-4.73,5.06-41.95,40.48-35.19,88.52,0,0,27.44-40.85,53.72-45,0,0,5.16-22.15,14.49-26.55,0,0-4.42,11.57-2.46,17.22,0,0,10.07-29.48,22.11-35.37,0,0-7.62,15.23-6.14,22.59,0,0,21.67-26.12,33.46-31.52a9,9,0,0,0,9.82,1.4A21.38,21.38,0,0,0,500.4,401.49Z"/><path class="cls-13" d="M242.74,474.35s-9.7-2.92-10.09-6.24c0,0,11.55-18.86,24.83,0,0,0,16.45,19.43,37.8,22.46,0,0-28.57-18.6-33.56-36.4,0,0-8.24-23.33-35-1.21,0,0-15-17.84-33.22-6.3A30.78,30.78,0,0,0,182.12,460c-4.38,9.59-15.75,30.78-34.72,41.17,0,0,34.11-19.24,48.19-34.4.78-.85,1.51-1.73,2.21-2.65,1.89-2.46,9.32-10.23,20.37,2.53,0,0-.53,4.78-10.09,8.89C208.08,475.54,233.5,480.21,242.74,474.35Z"/><path class="cls-13" d="M216.51,351.25S204.64,300.4,155,325.11c0,0,40-44.61,65.89,8.92,0,0,6.17-2.51,10.29.92,0,0,47.82-44.61,69.78,3,0,0-34.09-37.52-63.37,14.42a31.77,31.77,0,0,0,6.86,14s-29.33,7-40.18-1.42a26.76,26.76,0,0,0,12.24-13.62Z"/><path class="cls-13" d="M301.29,570.81s32.79-10.77,52.17-7.18c0,0-12-6.46-12-9.09,0,0,16.89-16.54,50.18-1.49,0,0,14.3,7.63,29.14,2.61,0,0-16.49,0-33.13-12.37-16.34-12.1-49.78,0-49.78,0s-1.43-2.16-8.13-.72c0,0-21.25-17.67-60.79,9.33,0,0-24.89,16.28-34,5.27,0,0,1.91,25.61,47.14-1.92,0,0,17-14.12,39-4.54C321.15,550.71,301.77,562.43,301.29,570.81Z"/><path class="cls-13" d="M296.2,416.56c6-6.69,15.19-7.37,15.19-7.37-7.6-12.44-45.36-2.76-45.36-2.76s33.62-20.5,51.81-6.22c0,0,26.94-19.81,57.8,8.75,0,0-41.22-17-51.58,1.38,0,0,6.2.46,8.62,5.3a81.5,81.5,0,0,1-27.33,2.27A80.18,80.18,0,0,1,296.2,416.56Z"/><text class="cls-15" transform="translate(1018.55 34)">15cm</text><text class="cls-5" transform="translate(952.69 736.21)">Side <tspan class="cls-8" x="77.83" y="0">P</tspan><tspan x="100.37" y="0">a</tspan><tspan class="cls-9" x="119.28" y="0">n</tspan><tspan class="cls-10" x="141.05" y="0">el (</tspan><tspan class="cls-11" x="187.98" y="0">x</tspan><tspan class="cls-10" x="205" y="0">2)</tspan></text><path class="cls-12" d="M1346.71,366.11v61.67h11.54v77h-11.54v61.67h11.54v77h-11.54v42.24H1220.08V638.12a11.83,11.83,0,0,0-8.88-11.46,11.67,11.67,0,0,0-3-.39,11.47,11.47,0,0,0-3,.39,11.82,11.82,0,0,0-8.88,11.46v47.53h-404V643.41H780.88v-77h11.56V504.76H780.88v-77h11.56V366.11H780.88v-77h11.56V108.25h554.27V289.13h11.54v77Z"/><path class="cls-12" d="M1205.29,626.66a12.21,12.21,0,0,0-8.88,11.89v-.43A11.82,11.82,0,0,1,1205.29,626.66Z"/><path class="cls-12" d="M1220.08,638.12v.43a12.22,12.22,0,0,0-8.88-11.89A11.83,11.83,0,0,1,1220.08,638.12Z"/><rect class="cls-13" x="1271.79" y="618.29" width="11.55" height="76.99" transform="translate(1934.35 -620.78) rotate(90)"/><rect class="cls-13" x="1133.14" y="618.29" width="11.55" height="76.99" transform="translate(1795.7 -482.13) rotate(90)"/><rect class="cls-13" x="994.49" y="618.29" width="11.55" height="76.99" transform="translate(1657.05 -343.49) rotate(90)"/><rect class="cls-13" x="855.85" y="618.29" width="11.55" height="76.99" transform="translate(1518.4 -204.84) rotate(90)"/><rect class="cls-13" x="1271.79" y="208.9" width="11.55" height="76.99" transform="translate(1524.96 -1030.17) rotate(90)"/><rect class="cls-13" x="1133.14" y="208.9" width="11.55" height="76.99" transform="translate(1386.31 -891.52) rotate(90)"/><rect class="cls-13" x="994.49" y="208.9" width="11.55" height="76.99" transform="translate(1247.67 -752.87) rotate(90)"/><rect class="cls-13" x="855.85" y="208.9" width="11.55" height="76.99" transform="translate(1109.02 -614.22) rotate(90)"/><path class="cls-13" d="M995.54,391.05s-8-2.42-8.36-5.18c0,0,9.57-15.62,20.57,0,0,0,13.64,16.1,31.33,18.61,0,0-23.67-15.41-27.81-30.16,0,0-6.83-19.33-29-1,0,0-12.46-14.78-27.52-5.22a25.59,25.59,0,0,0-9.42,11.06c-3.62,7.94-13,25.5-28.76,34.11,0,0,28.26-15.95,39.92-28.5.65-.71,1.25-1.44,1.84-2.2,1.56-2,7.72-8.48,16.88,2.09,0,0-.44,4-8.36,7.38C966.83,392,987.88,395.9,995.54,391.05Z"/><path class="cls-13" d="M875.07,328.48s-9.83-42.14-51-21.66c0,0,33.18-37,54.6,7.39,0,0,5.12-2.09,8.53.76,0,0,39.62-37,57.81,2.46,0,0-28.24-31.09-52.5,11.94a26.28,26.28,0,0,0,5.68,11.57s-24.3,5.82-33.29-1.18a22.11,22.11,0,0,0,10.14-11.28Z"/><path class="cls-13" d="M929.9,469.63s27.17-8.92,43.23-5.95c0,0-9.91-5.35-9.91-7.53,0,0,14-13.7,41.58-1.23,0,0,11.84,6.32,24.13,2.16,0,0-13.65,0-27.44-10.25-13.54-10-41.25,0-41.25,0s-1.19-1.79-6.74-.6c0,0-17.6-14.63-50.37,7.74,0,0-20.62,13.48-28.15,4.36,0,0,1.58,21.22,39.06-1.59,0,0,14.08-11.7,32.32-3.76C946.36,453,930.3,462.69,929.9,469.63Z"/><path class="cls-13" d="M1008.63,337c5.06-5.62,12.77-6.19,12.77-6.19-6.39-10.46-38.13-2.33-38.13-2.33s28.26-17.22,43.55-5.22c0,0,22.65-16.65,48.59,7.35,0,0-34.65-14.32-43.36,1.17,0,0,5.21.38,7.25,4.45a67.26,67.26,0,0,1-30.67.77Z"/><path class="cls-13" d="M878,404.47c-5.06-5.62-12.77-6.19-12.77-6.19,6.39-10.46,38.13-2.33,38.13-2.33s-28.26-17.22-43.55-5.22c0,0-22.65-16.65-48.59,7.35,0,0,34.65-14.32,43.36,1.17,0,0-5.21.38-7.25,4.45a67.26,67.26,0,0,0,30.67.77Z"/><path class="cls-13" d="M995.54,589.58s-8-2.42-8.36-5.17c0,0,9.57-15.62,20.57,0,0,0,13.64,16.1,31.33,18.61,0,0-23.67-15.41-27.81-30.16,0,0-6.83-19.33-29-1,0,0-12.46-14.78-27.52-5.21a25.51,25.51,0,0,0-9.42,11.05c-3.62,7.95-13,25.51-28.76,34.11,0,0,28.26-15.94,39.92-28.5.65-.7,1.25-1.44,1.84-2.2,1.56-2,7.72-8.47,16.88,2.1,0,0-.44,4-8.36,7.37C966.83,590.57,987.88,594.43,995.54,589.58Z"/><path class="cls-13" d="M875.07,527s-9.83-42.13-51-21.66c0,0,33.18-37,54.6,7.39,0,0,5.12-2.08,8.53.76,0,0,39.62-37,57.81,2.47,0,0-28.24-31.09-52.5,11.94a26.27,26.27,0,0,0,5.68,11.56s-24.3,5.83-33.29-1.18A22.11,22.11,0,0,0,875.07,527Z"/><path class="cls-13" d="M1008.63,535.5c5.06-5.62,12.77-6.2,12.77-6.2C1015,518.85,983.27,527,983.27,527s28.26-17.23,43.55-5.23c0,0,22.65-16.64,48.59,7.36,0,0-34.65-14.33-43.36,1.16,0,0,5.21.39,7.25,4.45a68.51,68.51,0,0,1-23,1.91A66.21,66.21,0,0,1,1008.63,535.5Z"/><path class="cls-13" d="M1244,391.05s-8-2.42-8.37-5.18c0,0,9.58-15.62,20.58,0,0,0,13.63,16.1,31.32,18.61,0,0-23.67-15.41-27.8-30.16,0,0-6.84-19.33-29-1,0,0-12.47-14.78-27.53-5.22a25.5,25.5,0,0,0-9.41,11.06c-3.63,7.94-13,25.5-28.77,34.11,0,0,28.26-15.95,39.93-28.5.65-.71,1.25-1.44,1.83-2.2,1.57-2,7.73-8.48,16.88,2.09,0,0-.44,4-8.36,7.38C1215.27,392,1236.33,395.9,1244,391.05Z"/><path class="cls-13" d="M1123.51,328.48s-9.83-42.14-51-21.66c0,0,33.17-37,54.59,7.39,0,0,5.12-2.09,8.53.76,0,0,39.62-37,57.82,2.46,0,0-28.25-31.09-52.51,11.94a26.37,26.37,0,0,0,5.69,11.57s-24.3,5.82-33.3-1.18a22.11,22.11,0,0,0,10.14-11.28Z"/><path class="cls-13" d="M1178.35,469.63s27.16-8.92,43.23-5.95c0,0-9.92-5.35-9.92-7.53,0,0,14-13.7,41.58-1.23,0,0,11.84,6.32,24.14,2.16,0,0-13.66,0-27.45-10.25-13.53-10-41.24,0-41.24,0s-1.19-1.79-6.74-.6c0,0-17.61-14.63-50.37,7.74,0,0-20.62,13.48-28.16,4.36,0,0,1.59,21.22,39.06-1.59,0,0,14.08-11.7,32.33-3.76C1194.81,453,1178.74,462.69,1178.35,469.63Z"/><path class="cls-13" d="M1261.14,337c5.07-5.62,12.78-6.19,12.78-6.19-6.39-10.46-38.13-2.33-38.13-2.33s28.26-17.22,43.55-5.22c0,0,22.65-16.65,48.59,7.35,0,0-34.65-14.32-43.36,1.17,0,0,5.21.38,7.25,4.45a67.33,67.33,0,0,1-30.68.77Z"/><path class="cls-13" d="M1126.44,404.47c-5.07-5.62-12.78-6.19-12.78-6.19,6.39-10.46,38.14-2.33,38.14-2.33s-28.27-17.22-43.56-5.22c0,0-22.64-16.65-48.58,7.35,0,0,34.65-14.32,43.36,1.17,0,0-5.21.38-7.25,4.45a67.3,67.3,0,0,0,30.67.77Z"/><path class="cls-13" d="M1244,589.58s-8-2.42-8.37-5.17c0,0,9.58-15.62,20.58,0,0,0,13.63,16.1,31.32,18.61,0,0-23.67-15.41-27.8-30.16,0,0-6.84-19.33-29-1,0,0-12.47-14.78-27.53-5.21a25.42,25.42,0,0,0-9.41,11.05c-3.63,7.95-13,25.51-28.77,34.11,0,0,28.26-15.94,39.93-28.5.65-.7,1.25-1.44,1.83-2.2,1.57-2,7.73-8.47,16.88,2.1,0,0-.44,4-8.36,7.37C1215.27,590.57,1236.33,594.43,1244,589.58Z"/><path class="cls-13" d="M1123.51,527s-9.83-42.13-51-21.66c0,0,33.17-37,54.59,7.39,0,0,5.12-2.08,8.53.76,0,0,39.62-37,57.82,2.47,0,0-28.25-31.09-52.51,11.94a26.35,26.35,0,0,0,5.69,11.56s-24.3,5.83-33.3-1.18A22.11,22.11,0,0,0,1123.51,527Z"/><path class="cls-13" d="M1261.14,535.5c5.07-5.62,12.78-6.2,12.78-6.2-6.39-10.45-38.13-2.32-38.13-2.32s28.26-17.23,43.55-5.23c0,0,22.65-16.64,48.59,7.36,0,0-34.65-14.33-43.36,1.16,0,0,5.21.39,7.25,4.45a68.51,68.51,0,0,1-23,1.91A66.4,66.4,0,0,1,1261.14,535.5Z"/><path class="cls-13" d="M878,603c-5.06-5.62-12.77-6.2-12.77-6.2,6.39-10.45,38.13-2.32,38.13-2.32s-28.26-17.23-43.55-5.23c0,0-22.65-16.64-48.59,7.36,0,0,34.65-14.33,43.36,1.16,0,0-5.21.39-7.25,4.45a68.51,68.51,0,0,0,23,1.91A66.21,66.21,0,0,0,878,603Z"/><path class="cls-13" d="M1126.44,603c-5.07-5.62-12.78-6.2-12.78-6.2,6.39-10.45,38.14-2.32,38.14-2.32s-28.27-17.23-43.56-5.23c0,0-22.64-16.64-48.58,7.36,0,0,34.65-14.33,43.36,1.16,0,0-5.21.39-7.25,4.45a68.45,68.45,0,0,0,23,1.91A66.4,66.4,0,0,0,1126.44,603Z"/><polygon class="cls-12" points="1359.32 955.33 1359.32 875.15 1346.71 875.15 1346.71 843.18 1326.81 843.18 1326.81 831.16 1246.62 831.16 1246.62 843.18 1182.4 843.18 1182.4 831.16 1102.22 831.16 1102.22 843.18 1038 843.18 1038 831.16 957.81 831.16 957.81 843.18 893.59 843.18 893.59 831.16 813.41 831.16 813.41 843.18 793.46 843.18 793.46 875.15 781.92 875.15 781.92 955.33 793.46 955.33 793.46 1019.55 781.92 1019.55 781.92 1099.74 793.46 1099.74 793.46 1163.96 781.92 1163.96 781.92 1244.14 793.46 1244.14 793.46 1308.37 781.92 1308.37 781.92 1388.55 793.46 1388.55 793.46 1420.51 813.41 1420.51 813.41 1432.5 893.59 1432.5 893.59 1420.51 957.71 1420.51 957.71 1432.5 1037.89 1432.5 1037.89 1420.51 1102.22 1420.51 1102.22 1432.5 1182.41 1432.5 1182.41 1420.51 1246.62 1420.51 1246.62 1432.5 1326.8 1432.5 1326.8 1420.51 1346.71 1420.51 1346.71 1388.55 1359.32 1388.55 1359.32 1308.37 1346.71 1308.37 1346.71 1244.14 1359.32 1244.14 1359.32 1163.96 1346.71 1163.96 1346.71 1099.74 1359.32 1099.74 1359.32 1019.55 1346.71 1019.55 1346.71 955.33 1359.32 955.33"/><line class="cls-14" x1="814.8" y1="855.22" x2="892.66" y2="855.22"/><line class="cls-14" x1="958.77" y1="855.22" x2="1037.27" y2="855.22"/><line class="cls-14" x1="1103.04" y1="855.22" x2="1181.53" y2="855.22"/><line class="cls-14" x1="1247.3" y1="855.22" x2="1326.13" y2="855.22"/><line class="cls-14" x1="814.8" y1="1408.35" x2="892.66" y2="1408.35"/><line class="cls-14" x1="958.77" y1="1408.35" x2="1037.27" y2="1408.35"/><line class="cls-14" x1="1103.04" y1="1408.35" x2="1181.53" y2="1408.35"/><line class="cls-14" x1="1247.3" y1="1408.35" x2="1326.13" y2="1408.35"/><line class="cls-14" x1="141.06" y1="855.75" x2="219.09" y2="855.75"/><line class="cls-14" x1="285.36" y1="855.75" x2="364.03" y2="855.75"/><line class="cls-14" x1="429.95" y1="855.75" x2="508.63" y2="855.75"/><line class="cls-14" x1="574.54" y1="855.75" x2="653.55" y2="855.75"/><line class="cls-14" x1="141.06" y1="1410.15" x2="219.09" y2="1410.15"/><text class="cls-1" transform="translate(282.7 1507.37)">Bo<tspan class="cls-16" x="45.57" y="0">t</tspan><tspan class="cls-17" x="58.51" y="0">t</tspan><tspan x="71.28" y="0">om </tspan><tspan class="cls-3" x="135.63" y="0">P</tspan><tspan x="158.83" y="0">a</tspan><tspan class="cls-4" x="178.3" y="0">n</tspan><tspan x="200.7" y="0">el</tspan></text><polygon class="cls-12" points="686.82 956.09 686.82 875.73 674.17 875.73 674.17 843.69 654.23 843.69 654.23 831.63 573.86 831.63 573.86 843.69 509.5 843.69 509.5 831.63 429.13 831.63 429.13 843.69 364.76 843.69 364.76 831.63 284.39 831.63 284.39 843.69 220.03 843.69 220.03 831.63 139.66 831.63 139.66 843.69 119.67 843.69 119.67 875.73 108.1 875.73 108.1 956.09 119.67 956.09 119.67 1020.46 108.1 1020.46 108.1 1100.83 119.67 1100.83 119.67 1165.2 108.1 1165.2 108.1 1245.56 119.67 1245.56 119.67 1309.93 108.1 1309.93 108.1 1390.3 119.67 1390.3 119.67 1422.34 139.66 1422.34 139.66 1434.35 220.03 1434.35 220.03 1422.34 284.29 1422.34 284.29 1434.35 364.66 1434.35 364.66 1422.34 429.13 1422.34 429.13 1434.35 509.5 1434.35 509.5 1422.34 573.86 1422.34 573.86 1434.35 654.23 1434.35 654.23 1422.34 674.17 1422.34 674.17 1390.3 686.82 1390.3 686.82 1309.93 674.17 1309.93 674.17 1245.56 686.82 1245.56 686.82 1165.2 674.17 1165.2 674.17 1100.83 686.82 1100.83 686.82 1020.46 674.17 1020.46 674.17 956.09 686.82 956.09"/><line class="cls-14" x1="285.36" y1="1410.15" x2="364.03" y2="1410.15"/><line class="cls-14" x1="429.95" y1="1410.15" x2="508.63" y2="1410.15"/><line class="cls-14" x1="574.54" y1="1410.15" x2="653.55" y2="1410.15"/><circle class="cls-13" cx="1070.62" cy="1131.85" r="73.24"/><circle class="cls-13" cx="865.18" cy="922.76" r="10.96"/><circle class="cls-13" cx="933.66" cy="922.76" r="10.96"/><circle class="cls-13" cx="1002.14" cy="922.76" r="10.96"/><circle class="cls-13" cx="1070.62" cy="922.76" r="10.96"/><circle class="cls-13" cx="1139.1" cy="922.76" r="10.96"/><circle class="cls-13" cx="1207.58" cy="922.76" r="10.96"/><circle class="cls-13" cx="1276.06" cy="922.76" r="10.96"/><circle class="cls-13" cx="865.18" cy="971.08" r="10.96"/><circle class="cls-13" cx="933.66" cy="971.08" r="10.96"/><circle class="cls-13" cx="1002.14" cy="971.08" r="10.96"/><circle class="cls-13" cx="1070.62" cy="971.08" r="10.96"/><circle class="cls-13" cx="1139.1" cy="971.08" r="10.96"/><circle class="cls-13" cx="1207.58" cy="971.08" r="10.96"/><circle class="cls-13" cx="1276.06" cy="971.08" r="10.96"/><circle class="cls-13" cx="865.18" cy="1019.41" r="10.96"/><circle class="cls-13" cx="933.66" cy="1019.41" r="10.96"/><circle class="cls-13" cx="1002.14" cy="1019.41" r="10.96"/><circle class="cls-13" cx="1070.62" cy="1019.41" r="10.96"/><circle class="cls-13" cx="1139.1" cy="1019.41" r="10.96"/><circle class="cls-13" cx="1207.58" cy="1019.41" r="10.96"/><circle class="cls-13" cx="1276.06" cy="1019.41" r="10.96"/><circle class="cls-13" cx="865.18" cy="1244.29" r="10.96"/><circle class="cls-13" cx="933.66" cy="1244.29" r="10.96"/><circle class="cls-13" cx="1002.14" cy="1244.29" r="10.96"/><circle class="cls-13" cx="1070.62" cy="1244.29" r="10.96"/><circle class="cls-13" cx="1139.1" cy="1244.29" r="10.96"/><circle class="cls-13" cx="1207.58" cy="1244.29" r="10.96"/><circle class="cls-13" cx="1276.06" cy="1244.29" r="10.96"/><circle class="cls-13" cx="865.18" cy="1292.62" r="10.96"/><circle class="cls-13" cx="933.66" cy="1292.62" r="10.96"/><circle class="cls-13" cx="1002.14" cy="1292.62" r="10.96"/><circle class="cls-13" cx="1070.62" cy="1292.62" r="10.96"/><circle class="cls-13" cx="1139.1" cy="1292.62" r="10.96"/><circle class="cls-13" cx="1207.58" cy="1292.62" r="10.96"/><circle class="cls-13" cx="1276.06" cy="1292.62" r="10.96"/><circle class="cls-13" cx="865.18" cy="1340.94" r="10.96"/><circle class="cls-13" cx="933.66" cy="1340.94" r="10.96"/><circle class="cls-13" cx="1002.14" cy="1340.94" r="10.96"/><circle class="cls-13" cx="1070.62" cy="1340.94" r="10.96"/><circle class="cls-13" cx="1139.1" cy="1340.94" r="10.96"/><circle class="cls-13" cx="1207.58" cy="1340.94" r="10.96"/><circle class="cls-13" cx="1276.06" cy="1340.94" r="10.96"/><line class="cls-18" x1="782" y1="89.79" x2="782" y2="34"/><line class="cls-19" x1="1358.54" y1="89.79" x2="1358.54" y2="34"/><line class="cls-19" x1="1358.54" y1="61.89" x2="782" y2="61.89"/><text class="cls-15" transform="translate(346.44 34)">15cm</text><line class="cls-18" x1="108.75" y1="89.79" x2="108.75" y2="34"/><line class="cls-18" x1="686.16" y1="89.79" x2="686.16" y2="34"/><line class="cls-18" x1="686.16" y1="61.89" x2="108.75" y2="61.89"/><text class="cls-15" transform="translate(34 477.45) rotate(-90)">15cm</text><line class="cls-20" x1="89.79" y1="685.65" x2="34" y2="685.65"/><line class="cls-18" x1="89.79" y1="108.25" x2="34" y2="108.25"/><line class="cls-20" x1="61.9" y1="108.25" x2="61.9" y2="685.65"/></g></g></svg>