<svg width="660" height="263" viewBox="0 0 660 263" fill="none" xmlns="http://www.w3.org/2000/svg">
<path d="M179.52 210.24V51.84H213.504V82.08H222.432L211.776 100.512C211.776 83.424 215.616 70.56 223.296 61.9199C230.976 53.28 242.304 48.96 257.28 48.96C274.368 48.96 287.808 54.24 297.6 64.8C307.392 75.36 312.288 89.952 312.288 108.576V120.096H274.56V111.168C274.56 100.992 271.872 93.12 266.496 87.552C261.312 81.984 254.112 79.2 244.896 79.2C235.488 79.2 228.192 81.984 223.008 87.552C218.016 93.12 215.52 100.992 215.52 111.168V210.24H179.52Z" fill="#00131C"/>
<path d="M347.312 262.08V51.84H382.448V82.08H390.512L382.448 90.432C382.448 77.568 386.288 67.488 393.968 60.192C401.648 52.704 412.016 48.96 425.072 48.96C441.008 48.96 453.776 54.432 463.376 65.376C472.976 76.32 477.776 91.008 477.776 109.44V152.352C477.776 164.64 475.568 175.392 471.152 184.608C466.928 193.632 460.88 200.64 453.008 205.632C445.136 210.624 435.824 213.12 425.072 213.12C412.016 213.12 401.648 209.472 393.968 202.176C386.288 194.688 382.448 184.512 382.448 171.648L390.512 180H382.16L383.312 217.728V262.08H347.312ZM412.4 182.016C421.616 182.016 428.816 179.328 434 173.952C439.184 168.576 441.776 160.896 441.776 150.912V111.168C441.776 101.184 439.184 93.504 434 88.128C428.816 82.752 421.616 80.064 412.4 80.064C403.376 80.064 396.272 82.848 391.088 88.416C385.904 93.792 383.312 101.376 383.312 111.168V150.912C383.312 160.704 385.904 168.384 391.088 173.952C396.272 179.328 403.376 182.016 412.4 182.016Z" fill="#00131C"/>
<path d="M561.183 210.24L509.055 51.84H545.919L576.159 148.032C577.887 153.792 579.519 159.744 581.055 165.888C582.783 172.032 584.031 176.928 584.799 180.576C585.759 176.928 587.007 172.032 588.543 165.888C590.079 159.744 591.615 153.888 593.151 148.32L622.815 51.84H659.391L607.551 210.24H561.183Z" fill="#00131C"/>
<path d="M43.488 210.24V101.952H0V69.408H43.488V45.504C43.488 31.68 48.096 20.64 57.312 12.384C66.528 4.128 78.72 0 93.888 0H140.256V31.68H94.752C90.144 31.68 86.4 33.024 83.52 35.712C80.832 38.208 79.488 41.664 79.488 46.08V69.408H140.256V101.952H79.488V210.24H43.488Z" fill="#238CBD"/>
</svg>
