<?xml version="1.0" encoding="utf-8"?>
<!-- Generator: Adobe Illustrator 25.0.1, SVG Export Plug-In . SVG Version: 6.00 Build 0)  -->
<svg version="1.1" id="Camada_1" xmlns="http://www.w3.org/2000/svg" xmlns:xlink="http://www.w3.org/1999/xlink" x="0px" y="0px"
	 viewBox="0 0 554.1 402.7" style="enable-background:new 0 0 554.1 402.7;" xml:space="preserve">
<style type="text/css">
	.st0{fill:url(#SVGID_1_);stroke:#000000;stroke-width:2;stroke-linecap:round;stroke-linejoin:round;stroke-miterlimit:10;}
	.st1{fill:url(#SVGID_2_);}
	.st2{fill:url(#SVGID_3_);}
	.st3{fill:url(#SVGID_4_);}
	.st4{fill:#FFFFFF;}
	.st5{fill:#666666;}
	.st6{fill:none;stroke:#000000;stroke-miterlimit:10;}
	.st7{fill:none;stroke:#000000;stroke-linecap:round;stroke-linejoin:round;stroke-miterlimit:10;}
	.st8{clip-path:url(#SVGID_6_);fill:#238CBD;}
	.st9{clip-path:url(#SVGID_6_);fill:#FFFFFF;}
	.st10{fill:none;stroke:#000000;stroke-width:2;stroke-linecap:round;stroke-linejoin:round;stroke-miterlimit:10;}
	.st11{fill:#CCCCCC;stroke:#000000;stroke-width:2;stroke-linecap:round;stroke-linejoin:round;stroke-miterlimit:10;}
	.st12{fill:#E6E6E6;stroke:#000000;stroke-width:2;stroke-linecap:round;stroke-linejoin:round;stroke-miterlimit:10;}
	.st13{fill:none;stroke:#000000;stroke-width:2;stroke-miterlimit:10;}
	.st14{fill:none;stroke:#238CBD;stroke-width:0.5;stroke-linecap:round;stroke-linejoin:round;stroke-miterlimit:10;}
	.st15{fill:#238CBD;}
	.st16{fill:#CCCCCC;}
	.st17{clip-path:url(#SVGID_8_);fill:#238CBD;}
	.st18{clip-path:url(#SVGID_8_);fill:#FFFFFF;}
</style>
<linearGradient id="SVGID_1_" gradientUnits="userSpaceOnUse" x1="244.4341" y1="161.5172" x2="387.567" y2="161.5172">
	<stop  offset="3.519371e-03" style="stop-color:#CCCCCC"/>
	<stop  offset="1" style="stop-color:#E6E6E6"/>
</linearGradient>
<path class="st0" d="M386.8,152.1c-0.7,8.8-1.7,16.6-2.7,23.1c-4,25.3-7.5,35.6-21.8,55.7c-0.2,0.2-0.3,0.4-0.5,0.7
	c-7.7,10.6-21.5,29.7-42.3,30.5c-15.6,0.6-33.4-10-41.1-16.4c-2.5-2.1-5.3-4.6-8.2-7.8c-6.7-7.4-8.3-7.7-14.5-24.5
	c-8-21.3-10.8-43.1-11.1-62.5c-0.4-22.7,2.7-42.1,4.9-53.8c15.3-0.1,36.5-1.8,60.7-9c25.1-7.5,44.3-18.2,57.3-26.8
	c-1,5-2.9,18.2,3.4,32.8c4.9,11.2,12.3,18,16.4,21.2C387.9,128.8,387.6,141.2,386.8,152.1z"/>
<linearGradient id="SVGID_2_" gradientUnits="userSpaceOnUse" x1="240.4658" y1="285.2181" x2="394.1958" y2="285.2181">
	<stop  offset="3.519371e-03" style="stop-color:#CCCCCC"/>
	<stop  offset="1" style="stop-color:#E6E6E6"/>
</linearGradient>
<path class="st1" d="M394.2,287.1c-8.5,15.2-24.1,35-50.7,44.7c-7,2.5-40.7,14.9-73.1-4.1c-15.5-9.1-24.8-21.9-30-31.7
	c15-7.9,27.6-19.6,29.1-21.4c4.3-5.4,4.1-25.8,3.8-35.3c2.9,3.2,11.5,6.4,14,8.5c7.7,6.4,19.7,16.4,35.3,15.8
	c20.8-0.8,34.7-19.9,42.3-30.5c0.2-0.2,0.3-0.4,0.5-0.7c-1.3,12.5-0.4,35.2,8.5,44C375.3,277.7,381.6,282.1,394.2,287.1z"/>
<linearGradient id="SVGID_3_" gradientUnits="userSpaceOnUse" x1="114.1344" y1="340.5155" x2="553.7516" y2="340.5155">
	<stop  offset="0" style="stop-color:#238CBD"/>
	<stop  offset="1" style="stop-color:#43B2E6"/>
</linearGradient>
<path class="st2" d="M553.7,398.6c-146.5-0.2-293.1-0.4-439.6-0.6c11.8-40.8,24.5-66.4,40.8-76.2c30-18,51.3-14.9,81.7-26.5
	c2.8-1.1,5.8-2.4,8.7-4c5.2,9.8,14.4,22.6,30,31.7c32.4,19,66.1,6.7,73.1,4.1c26.6-9.7,42.2-29.6,50.7-44.7c3.7,1.5,8,3,12.9,4.7
	c29.9,10,44.3,9.9,65.3,16.7c14.8,4.8,30.3,4,43.8,15.8C554.4,348.9,553.9,391.9,553.7,398.6z"/>
<linearGradient id="SVGID_4_" gradientUnits="userSpaceOnUse" x1="232.5197" y1="74.7322" x2="411.2591" y2="74.7322">
	<stop  offset="0" style="stop-color:#238CBD"/>
	<stop  offset="1" style="stop-color:#43B2E6"/>
</linearGradient>
<path class="st3" d="M406.8,115.2c-3.3,10.3-7.4,20-16.4,33.1c0.8-10.8,1.1-23.3,0.4-37.1c-4-3.2-11.5-10-16.4-21.2
	c-6.3-14.6-4.4-27.8-3.4-32.8c-13,8.6-32.2,19.3-57.3,26.8c-24.2,7.2-45.4,9-60.7,9c-2.3,11.7-5.3,31.2-4.9,53.8h0
	c-3.8-9.4-13.3-23.2-15.1-43.4c-1.1-11.8-1.1-33.3,10.6-55.5c3.6-7,18.8-35.9,49.7-44.2c30.4-8.2,81.5,1.2,88,37.1
	C420.3,33.6,411.9,99,406.8,115.2z"/>
<g>
	<path class="st4" d="M288.4,158.8c-1.8,0-3.7-0.1-5.8-0.3c-1-0.1-2.1-0.2-3.1-0.3c-7.5-0.7-14.5-1.4-16.9-5.7
		c-1.3-2.3-1.4-4.4-0.3-6.1c2.8-4.8,13.4-5.5,19.5-5.5c4.1,0,8.4,0.3,11.6,0.9c3.5,0.6,6.9,3.2,8.6,6.3c1,1.8,1.1,3.6,0.5,5
		C300.7,156.8,296,158.8,288.4,158.8C288.4,158.8,288.4,158.8,288.4,158.8z"/>
	<path d="M281.8,141.8c4.3,0,8.4,0.4,11.4,0.9c5.4,1,9.8,6.6,8.3,9.9c-1.7,3.7-6.8,5.1-13.2,5.1c-1.8,0-3.7-0.1-5.7-0.3
		c-8.1-0.8-16.8-1-19.2-5.5C259.2,144.2,271,141.8,281.8,141.8 M281.8,139.8c-13.9,0-18.7,3.3-20.4,6c-0.9,1.4-1.5,3.8,0.3,7.1
		c2.6,4.8,9.9,5.5,17.7,6.2c1,0.1,2,0.2,3.1,0.3c2.1,0.2,4.1,0.3,5.9,0.3c8,0,13.1-2.1,15-6.3c0.8-1.7,0.6-3.8-0.5-5.9
		c-1.8-3.4-5.5-6.1-9.3-6.8C290.3,140.2,286,139.8,281.8,139.8L281.8,139.8z"/>
</g>
<g>
	<path class="st4" d="M350.7,158.7c-8.9,0-14.3-2.2-16-6.4c-0.6-1.4-0.3-3.2,0.7-5c1.8-3,5.3-5.4,8.9-5.9c2.2-0.3,5.1-0.5,8-0.5
		c4.5,0,19.4,0.5,22.7,6.4c1,1.8,0.8,3.9-0.5,6.2c-2.6,4.2-9.6,4.5-17.1,4.9c-1,0-2.1,0.1-3.1,0.2
		C353.1,158.7,351.9,158.7,350.7,158.7z"/>
	<path d="M352.3,142c11.6,0,26.5,2.6,21.3,11.1c-2.6,4.3-11.3,4.1-19.4,4.6c-1.2,0.1-2.4,0.1-3.5,0.1c-7.4,0-13.4-1.5-15.1-5.8
		c-1.4-3.4,3.4-8.8,8.8-9.5C346.5,142.2,349.3,142,352.3,142 M352.3,140v2V140L352.3,140c-3,0-5.9,0.2-8.1,0.5
		c-3.8,0.5-7.7,3.1-9.6,6.4c-1.2,2-1.5,4.1-0.8,5.9c1.9,4.7,7.6,7,17,7c1.1,0,2.4,0,3.6-0.1c1-0.1,2.1-0.1,3.1-0.2
		c7.8-0.4,15.1-0.7,17.9-5.4c2-3.3,1.4-5.7,0.6-7.2C372.4,140.7,358.2,140,352.3,140L352.3,140z"/>
</g>
<path class="st4" d="M291.5,206.6c-0.9-0.2-1.1-1.4-0.4-1.9c2.6-1.7,6.7-3.8,12.1-4.6c7.3-1.1,13.2,0.9,15.9,2
	c0.3,0.1,0.6,0.1,0.8,0c1.9-0.9,4.3-1.8,7.2-2.3c7.9-1.3,14.5,1.4,18.1,3.4c0.8,0.4,0.7,1.7-0.2,1.9c-4.9,1.2-10.4,2.3-16.3,2.9
	C314,209.8,301.3,208.5,291.5,206.6z"/>
<path class="st4" d="M290,213.6c-1.3-0.2-2.2,1.2-1.5,2.3c1.5,2.3,3.7,5.1,7,7c8,4.6,19.1,5.6,28.5,2.8c7-2.1,10.9-6.7,13-9.8
	c0.7-1.1-0.2-2.5-1.5-2.3C320.4,215.7,305.8,216,290,213.6z"/>
<path class="st5" d="M373.8,126.8c-1.4,2.8-5.4,2.2-18.6,3.1c-14.3,0.9-18.5,2.1-20.7-0.8c-2-2.6-2.1-7.7,0.3-9.4
	c7.2-5.1,24.9-4.3,35.4-3C373.7,117.1,375.3,123.9,373.8,126.8z"/>
<path class="st5" d="M259.6,130.9c2,2.4,5.8,1,18.9-0.9c14.2-2.1,18.5-1.9,20.1-5.2c1.4-2.9,0.4-8-2.3-9.2
	c-8.1-3.4-25.2,1.1-35.2,4.6C257.6,121.4,257.5,128.3,259.6,130.9z"/>
<g>
	<defs>
		<path id="SVGID_5_" d="M373.6,152.9c-2.6,4.3-11.3,4.2-19.4,4.7c-8.9,0.6-17.2-0.5-18.6-5.6c-1.4-5.3,3.3-8.8,8.7-9.5
			C354.8,141,380.1,142.3,373.6,152.9z"/>
	</defs>
	<clipPath id="SVGID_6_">
		<use xlink:href="#SVGID_5_"  style="overflow:visible;"/>
	</clipPath>
	<circle class="st8" cx="354.2" cy="151.2" r="7.3"/>
	<circle class="st9" cx="350.8" cy="148.2" r="3.2"/>
</g>
<path class="st10" d="M291.7,208.4c-1-0.2-1.2-1.5-0.4-2c2.4-1.5,6.1-3.4,10.8-4c6.7-1,12,0.8,14.5,1.9c0.3,0.1,0.6,0.1,0.9,0
	c1.8-0.8,4-1.6,6.5-2c7-1.1,12.9,1.1,16.3,2.9c0.9,0.5,0.7,1.8-0.2,2c-4.4,1.1-9.3,2-14.7,2.6C312.2,211.2,300.7,210.1,291.7,208.4z
	"/>
<path class="st10" d="M294.7,214.3c-1-0.1-1.7,0.9-1.2,1.7c1.3,2.1,3.3,4.8,6.5,6.6c7.1,4.1,17,5,25.4,2.5c6.5-1.9,10-6.3,11.8-9.1
	c0.5-0.8-0.1-1.9-1.1-1.8C322.2,216.3,309,216.6,294.7,214.3z"/>
<path class="st11" d="M248,184.3c0.4,1.1-3.7,6.4-7.6,6.2c-5.2-0.2-8.4-10-11.3-18.9c-3.5-10.7-6-18.7-1.7-24.6
	c0.5-0.7,3.4-4.7,7.3-4.5c3.4,0.1,10.1,2.5,10,8.2c-0.1,6-0.4,11.1,0.6,16.5C246.6,173.9,246.5,180.2,248,184.3z"/>
<path class="st12" d="M382.9,182.3c-0.3,1.1,5.1,8.4,9.1,8.2c5.2-0.2,8.4-10,11.3-18.9c3.5-10.7,6-18.7,1.7-24.6
	c-0.5-0.7-3.4-4.7-7.3-4.5c-3.6,0.1-9.9,3-10.6,9.2c-0.5,4.4-0.8,9.7-1.7,14.8C384.2,173.1,383.9,177.8,382.9,182.3z"/>
<path class="st13" d="M261.4,134c2,2.4,5.8,1,18.9-0.9c14.2-2.1,18.5-1.9,20.1-5.2c1.4-2.9,0.4-8-2.3-9.2
	c-8.1-3.4-25.2,1.1-35.2,4.6C259.5,124.5,259.3,131.4,261.4,134z"/>
<path class="st13" d="M370.2,130c-1.4,2.8-5.4,2.2-18.6,3.1c-14.3,0.9-18.5,2.1-20.7-0.8c-2-2.6-2.1-7.7,0.3-9.4
	c7.2-5.1,24.9-4.3,35.4-3C370.1,120.3,371.7,127,370.2,130z"/>
<path class="st10" d="M403.1,118.9c-3.3,10.3-7.4,20-16.4,33.1c0.8-10.8,1.1-23.3,0.4-37.1c-4-3.2-11.5-10-16.4-21.2
	c-6.3-14.6-4.4-27.8-3.4-32.8c-13,8.6-32.2,19.3-57.3,26.8c-24.2,7.2-45.4,9-60.7,9c-2.3,11.7-5.3,31.2-4.9,53.8h0
	c-3.8-9.4-13.3-23.2-15.1-43.4c-1.1-11.8-1.1-33.3,10.6-55.5c3.6-7,18.8-35.9,49.7-44.2c30.4-8.2,81.5,1.2,88,37.1
	C416.6,37.4,408.3,102.8,403.1,118.9z"/>
<path class="st10" d="M545.6,401.6c-146.5-0.2-293.1-0.4-439.6-0.6c11.8-40.8,24.5-66.4,40.8-76.2c30-18,51.3-14.9,81.7-26.5
	c2.8-1.1,5.8-2.4,8.7-4c5.2,9.8,14.4,22.6,30,31.7c32.4,19,66.1,6.7,73.1,4.1c26.6-9.7,42.2-29.6,50.7-44.7c3.7,1.5,8,3,12.9,4.7
	c29.9,10,44.3,9.9,65.3,16.7c14.8,4.8,30.3,4,43.7,15.8C546.3,351.9,545.8,394.9,545.6,401.6z"/>
<path class="st10" d="M391,285.5c-8.5,15.2-24.1,35-50.7,44.7c-7,2.5-40.7,14.9-73.1-4.1c-15.5-9.1-24.8-21.9-30-31.7
	c15-7.9,27.6-19.6,29.1-21.4c4.3-5.4,4.1-25.8,3.8-35.3c2.9,3.2,5.7,5.8,8.2,7.8c7.7,6.4,25.5,17,41.1,16.4
	c20.8-0.8,34.7-19.9,42.3-30.5c0.2-0.2,0.3-0.4,0.5-0.7c-1.3,12.5-0.4,35.2,8.5,44C372.1,276.1,378.4,280.5,391,285.5z"/>
<path class="st4" d="M310.9,182.1c-2.4-0.3-7.9-3.1-1.8-17.4c9.3-21.7,13.8-16.7,19.3,2.2c2.1,7.3,2.9,13.6-2.1,14.8
	C320.9,183.1,314.5,182.6,310.9,182.1z"/>
<path class="st13" d="M308.1,185.1c-2.4-0.3-7.9-3.1-1.8-17.4c9.3-21.7,13.8-16.7,19.3,2.2c2.1,7.3,2.9,13.6-2.1,14.8
	C318,186.1,311.6,185.6,308.1,185.1z"/>
<path class="st10" d="M31.1,208.9c1-3.6,9.3-30.8,37.2-42.5c20.3-8.5,45.4-6.4,64.6,8.9c33,26.2,17.1,64.3,14.7,72.3
	c-1.5,4.9-4.5,24,5.6,33.9c9.5,9.3,29.9,5.9,40.7-2.7c5.3-4.2,8-8.6,14.1-11.3c6.1-2.7,14.1-3.4,21.3,1.6c8.8,6.1,3.1,17.3,7.8,25.2
	"/>
<line class="st14" x1="31.1" y1="208.9" x2="85" y2="72.7"/>
<circle class="st15" cx="85" cy="72.7" r="1.3"/>
<g>
	<path class="st16" d="M21.4,258.3l-16.1-6.2c-0.5-0.2-1,0.1-1.2,0.5l-3.2,8.3c-0.2,0.5,0.1,1,0.5,1.2l16.1,6.2
		c0.5,0.2,1-0.1,1.2-0.5l3.2-8.3C22.1,259,21.8,258.5,21.4,258.3z"/>
	<path class="st16" d="M30.8,213.1l-9.9,25.6c-0.1,0.3-0.1,0.6,0.1,0.9c1.1,1.4,1,3.5-1,4.8c-0.1,0.1-0.2,0.1-0.3,0.1
		c-3,0.8-5-1.9-4.1-4.2c0.4-1.1,1.3-1.8,2.4-2c0.3-0.1,0.6-0.3,0.7-0.6l9.9-25.6c0.4-0.9-0.8-1.7-1.5-1L4.5,233.9
		c-0.2,0.2-0.3,0.4-0.3,0.7l0.6,14.8c0,0.4,0.2,0.7,0.6,0.8l7.4,2.9L15,254l7.6,2.9l0.4,0.2l10.8-11c0.2-0.2,0.3-0.4,0.3-0.7
		l-1.5-32.1C32.5,212.4,31.2,212.1,30.8,213.1z"/>
</g>
<g>
	<defs>
		<path id="SVGID_7_" d="M263.5,152c2.4,4.4,11.1,4.6,19.2,5.5c8.9,0.9,16.6,0,18.8-4.8c1.5-3.3-3-8.9-8.3-9.9
			C282.7,140.8,257.5,141.1,263.5,152z"/>
	</defs>
	<clipPath id="SVGID_8_">
		<use xlink:href="#SVGID_7_"  style="overflow:visible;"/>
	</clipPath>
	<circle class="st17" cx="282.2" cy="150.4" r="7.3"/>
	<circle class="st18" cx="279" cy="147.3" r="3.2"/>
</g>
</svg>
