<svg width="42" height="36" viewBox="0 0 42 36" fill="none" xmlns="http://www.w3.org/2000/svg">
<mask id="mask0" mask-type="alpha" maskUnits="userSpaceOnUse" x="0" y="0" width="42" height="36">
<path d="M8.75 3.6H3.5V1.8H8.75V3.6ZM27.8775 3.6L29.2985 5.7942C30.5988 7.8012 32.7757 9 35.1225 9H38.5V32.4H3.5V9H10.3775C12.7242 9 14.9013 7.8012 16.2015 5.7942L17.6225 3.6H27.8775ZM29.75 0H15.75L13.2895 3.7962C12.6403 4.7988 11.5483 5.4 10.3775 5.4H0V36H42V5.4H35.1225C33.9517 5.4 32.8597 4.7988 32.2105 3.7962L29.75 0ZM10.5 14.4C10.5 13.4064 9.71775 12.6 8.75 12.6C7.78225 12.6 7 13.4064 7 14.4C7 15.3936 7.78225 16.2 8.75 16.2C9.71775 16.2 10.5 15.3936 10.5 14.4ZM22.75 14.4C25.6445 14.4 28 16.8228 28 19.8C28 22.7772 25.6445 25.2 22.75 25.2C19.8555 25.2 17.5 22.7772 17.5 19.8C17.5 16.8228 19.8555 14.4 22.75 14.4ZM22.75 10.8C17.9183 10.8 14 14.8302 14 19.8C14 24.7698 17.9183 28.8 22.75 28.8C27.5817 28.8 31.5 24.7698 31.5 19.8C31.5 14.8302 27.5817 10.8 22.75 10.8Z" fill="#9F9F9F"/>
</mask>
<g mask="url(#mask0)">
<rect x="-1" y="-1" width="45" height="40" fill="#9F9F9F"/>
<rect x="13" y="10" width="20" height="19" fill="#238CBD"/>
</g>
</svg>
